

<svg width="64" height="64" viewBox="0 0 64 64" fill="none" xmlns="http://www.w3.org/2000/svg">
<rect width="64" height="64" rx="12" fill="white"/>
<path d="M42.4599 16.2374V46.954C42.4599 48.7599 40.9903 50.2295 39.1844 50.2295H17.8575C16.0516 50.2295 14.582 48.7599 14.582 46.954V16.2374C14.582 14.4315 16.0516 12.9619 17.8575 12.9619H39.1844C40.9903 12.9619 42.4599 14.4315 42.4599 16.2374Z" fill="#EEF4FF"/>
<path d="M42.4602 16.2374V46.954C42.4602 48.7599 40.9906 50.2295 39.1847 50.2295H28.5576V12.9619H39.1847C40.9906 12.9619 42.4602 14.4315 42.4602 16.2374Z" fill="#D9E6FC"/>
<path d="M37.8014 21.1143C37.8014 21.717 37.3123 22.2061 36.7096 22.2061H20.4051C19.8024 22.2061 19.3132 21.717 19.3132 21.1143C19.3132 20.5116 19.8024 20.0225 20.4051 20.0225H36.7096C37.3123 20.0225 37.8014 20.5116 37.8014 21.1143Z" fill="#425796"/>
<path d="M37.8014 21.1143C37.8014 21.717 37.3122 22.2061 36.7096 22.2061H28.4845V20.0225H36.7096C37.3122 20.0225 37.8014 20.5116 37.8014 21.1143Z" fill="#283758"/>
<path d="M34.3076 26.9373C34.3076 27.54 33.8185 28.0291 33.2158 28.0291H20.4051C19.8024 28.0291 19.3132 27.54 19.3132 26.9373C19.3132 26.3346 19.8024 25.8455 20.4051 25.8455H33.2158C33.8185 25.8455 34.3076 26.3346 34.3076 26.9373Z" fill="#425796"/>
<path d="M34.3076 26.9373C34.3076 27.54 33.8184 28.0291 33.2157 28.0291H28.4845V25.8455H33.2157C33.8184 25.8455 34.3076 26.3346 34.3076 26.9373Z" fill="#283758"/>
<path d="M30.8138 32.7603C30.8138 33.363 30.3246 33.8521 29.7219 33.8521H20.4051C19.8024 33.8521 19.3132 33.363 19.3132 32.7603C19.3132 32.1576 19.8024 31.6685 20.4051 31.6685H29.7219C30.3246 31.6685 30.8138 32.1576 30.8138 32.7603Z" fill="#425796"/>
<path d="M30.8137 32.7603C30.8137 33.363 30.3246 33.8521 29.7219 33.8521H28.4845V31.6685H29.7219C30.3246 31.6685 30.8137 32.1576 30.8137 32.7603Z" fill="#283758"/>
<path d="M51.5468 29.2147C51.4106 29.4447 50.9557 29.912 47.9074 32.9204C46.1408 34.6637 43.5029 37.2615 39.552 41.1615C39.362 41.35 39.7915 41.12 33.0702 44.2564C32.1422 44.691 31.1915 43.7207 31.6188 42.805C34.7604 36.0743 34.5245 36.511 34.7189 36.3189C38.6567 32.381 41.2727 29.7636 43.0116 28.0246C46.3912 24.6436 46.4574 24.5796 46.4654 24.5883C47.3411 23.8808 48.5996 23.9507 49.3871 24.7383C51.3597 26.7108 51.2643 26.6082 51.3597 26.7268C51.9187 27.4081 52.0213 28.4046 51.5468 29.2147Z" fill="#FFE278"/>
<path d="M51.5463 29.2149C51.3316 29.5781 50.3199 30.5331 39.5516 41.1617C39.3616 41.3502 39.791 41.1202 33.0698 44.2566C32.922 44.3258 32.7641 44.3592 32.6083 44.3592C32.3062 44.3592 32.0427 44.2406 31.8506 44.0535L50.2769 25.6279C51.3294 26.6797 51.2807 26.6295 51.3593 26.727C51.9183 27.4083 52.0209 28.4048 51.5463 29.2149Z" fill="#FFB454"/>
<path d="M51.5467 29.2147C51.4106 29.4447 50.9557 29.912 47.9073 32.9204L47.9015 32.9153L45.4456 30.4594L43.0116 28.0261V28.0246C46.3912 24.6436 46.4574 24.5796 46.4654 24.5883C47.341 23.8808 48.5995 23.9507 49.3871 24.7383C49.7489 25.1 50.0407 25.3919 50.2773 25.6277C51.3313 26.681 51.2818 26.63 51.3597 26.7268C51.9187 27.4081 52.0213 28.4046 51.5467 29.2147Z" fill="#DD5958"/>
<path d="M51.5464 29.2149C51.4103 29.4449 50.9554 29.9122 47.907 32.9206L47.9012 32.9155L45.4453 30.4596L50.277 25.6279C51.331 26.6812 51.2815 26.6302 51.3594 26.727C51.9184 27.4083 52.021 28.4048 51.5464 29.2149Z" fill="#D8225B"/>
</svg>
