
<svg width="64" height="64" viewBox="0 0 64 64" fill="none" xmlns="http://www.w3.org/2000/svg">
<rect width="64" height="64" rx="12" fill="white"/>
<path d="M22.7778 31.2029L22.7528 32.8238L24.8332 34.8837L26.1347 34.6741L26.75 33.7337L24.2905 31.2985L22.7778 31.2029Z" fill="#D9E5FF"/>
<path d="M21.5419 36.26L18.6049 32.4205L13.7725 32.3013L16.5165 28.3216L15.1366 23.6888L19.7694 25.0687L23.7491 22.3247L23.8683 27.1572L27.7078 30.0942L23.1487 31.7009L21.5419 36.26Z" fill="#FDBF00"/>
<path d="M39.7106 31.2986C38.9296 32.0718 38.0329 32.9595 37.2518 33.7327L37.6795 34.8823H39.169C39.8959 34.1626 40.521 33.5438 41.248 32.8242L41.3733 31.1968L39.7106 31.2986Z" fill="#BED5FF"/>
<path d="M48.8642 23.6888C47.6084 24.0629 44.9706 24.8485 44.2314 25.0687C43.1527 24.325 40.8868 22.7626 40.2517 22.3247C40.2372 22.9116 40.147 26.5682 40.1325 27.1572C39.6661 27.5139 36.761 29.7362 36.293 30.0942C36.8467 30.2893 40.2964 31.5051 40.852 31.7009C41.0472 32.2546 42.2629 35.7044 42.4587 36.26C42.8155 35.7937 45.0377 32.8885 45.3957 32.4205C45.9827 32.406 49.6392 32.3158 50.2282 32.3013C49.4844 31.2227 47.9221 28.9567 47.4842 28.3216C47.6518 27.759 48.696 24.2535 48.8642 23.6888Z" fill="#FF9F22"/>
<path d="M31.474 30.7156L30.9174 31.2335C29.6317 32.0049 26.1903 34.0695 24.8333 34.8837C25.1774 35.466 27.3232 39.0974 27.6689 39.6823V44.8411L29.8346 45.563L32.0004 44.8411L32.7223 39.1563L32.0004 31.2336L31.474 30.7156Z" fill="#FFDA2D"/>
<path d="M36.3315 39.6823C36.6744 39.102 38.8234 35.4662 39.1686 34.8822C37.7536 34.0337 34.2047 31.9057 33.0833 31.2332L32.5023 30.8057L32 31.2335V44.841L34.1658 45.5629L36.3315 44.841C36.3315 44.217 36.3315 40.3104 36.3315 39.6823Z" fill="#FDBF00"/>
<path d="M31.4594 24.6402L30.918 25.6214V31.2337H32.0008L32.7228 27.8434L32.0008 25.1028C31.9916 25.095 31.452 24.6338 31.4594 24.6402Z" fill="#ECF2FF"/>
<path d="M33.0837 25.6215L32.5423 24.6404L32.0009 25.1031V31.234H33.0837C33.0837 29.4499 33.0837 27.4056 33.0837 25.6215Z" fill="#D9E5FF"/>
<path d="M32.0008 13.772C31.7214 14.2884 29.981 17.5055 29.7006 18.0237C28.4147 18.2599 25.7078 18.7574 24.9463 18.8974C25.3511 19.3227 27.8729 21.972 28.2791 22.3987C28.1064 23.6948 27.7431 26.4228 27.6409 27.1904C28.1704 26.9368 31.4693 25.3571 32.0008 25.1027L32.7227 20.8812L32.0008 13.772Z" fill="#FFDA2D"/>
<path d="M35.7217 22.3987C36.1265 21.9734 38.6482 19.3241 39.0545 18.8974C37.7686 18.6611 35.0616 18.1636 34.3001 18.0237C34.0224 17.5104 32.2786 14.287 32 13.772V25.1027C32.5274 25.3553 35.8307 26.937 36.36 27.1905C36.1869 25.8916 35.8235 23.1633 35.7217 22.3987Z" fill="#FDBF00"/>
<path d="M32.7227 46.6098L32.0008 44.8411C31.2147 44.8411 26.2948 44.8411 25.5035 44.8411C25.5035 46.6323 24.0463 48.0897 22.2549 48.0897L28.0843 48.8116L32.0008 48.0897L32.7227 46.6098Z" fill="#495F66"/>
<path d="M20.0887 50.2556H32.0004L32.7223 49.1727L32.0004 48.0898C28.325 48.0898 23.7926 48.0898 20.0887 48.0898V50.2556Z" fill="#3B4A51"/>
<path d="M38.4973 44.8411C37.7112 44.8411 32.7913 44.8411 32 44.8411V48.0897L36.1149 48.8116L41.7459 48.0897C39.9547 48.0897 38.4973 46.6325 38.4973 44.8411Z" fill="#3B4A51"/>
<path d="M43.9117 50.2556C43.9117 49.4982 43.9117 48.8473 43.9117 48.0898C42.5134 48.0898 35.4623 48.0898 32 48.0898V50.2556H43.9117Z" fill="#283646"/>
</svg>
