
<svg width="21" height="30" viewBox="0 0 21 30" fill="none" xmlns="http://www.w3.org/2000/svg">
<path d="M17.9094 5.11481V22.7806H13.5053C12.7569 22.7806 12.1502 23.4852 12.1502 24.3544V29.4299L12.0825 29.5086H2.3258C1.57738 29.5086 0.970703 28.804 0.970703 27.9348V5.11481C0.970703 4.2456 1.57738 3.54102 2.3258 3.54102H16.5544C17.3027 3.54102 17.9094 4.24567 17.9094 5.11481Z" fill="#D4E1F4"/>
<path d="M17.8755 22.8198L12.1502 29.4297V24.3936C12.1502 23.5244 12.7569 22.8198 13.5053 22.8198H17.8755Z" fill="#00CEB4"/>
<path d="M4.86566 17.1148H3.51056C3.13635 17.1148 2.83301 16.7625 2.83301 16.3279C2.83301 15.8933 3.13635 15.541 3.51056 15.541H4.86566C5.23987 15.541 5.54321 15.8933 5.54321 16.3279C5.54321 16.7625 5.2398 17.1148 4.86566 17.1148Z" fill="#00ACEA"/>
<path d="M14.6911 17.1148H6.89923C6.52502 17.1148 6.22168 16.7625 6.22168 16.3279C6.22168 15.8933 6.52502 15.541 6.89923 15.541H14.691C15.0652 15.541 15.3686 15.8933 15.3686 16.3279C15.3686 16.7625 15.0653 17.1148 14.6911 17.1148Z" fill="#083863"/>
<path d="M4.86566 21.0494H3.51056C3.13635 21.0494 2.83301 20.6971 2.83301 20.2625C2.83301 19.8279 3.13635 19.4756 3.51056 19.4756H4.86566C5.23987 19.4756 5.54321 19.8279 5.54321 20.2625C5.54321 20.6971 5.2398 21.0494 4.86566 21.0494Z" fill="#00ACEA"/>
<path d="M14.6911 21.0494H6.89923C6.52502 21.0494 6.22168 20.6971 6.22168 20.2625C6.22168 19.8279 6.52502 19.4756 6.89923 19.4756H14.691C15.0652 19.4756 15.3686 19.8279 15.3686 20.2625C15.3686 20.6971 15.0653 21.0494 14.6911 21.0494Z" fill="#083863"/>
<path d="M4.86566 13.1802H3.51056C3.13635 13.1802 2.83301 12.8279 2.83301 12.3933C2.83301 11.9587 3.13635 11.6064 3.51056 11.6064H4.86566C5.23987 11.6064 5.54321 11.9587 5.54321 12.3933C5.54321 12.8279 5.2398 13.1802 4.86566 13.1802Z" fill="#00ACEA"/>
<path d="M14.6911 13.1802H6.89923C6.52502 13.1802 6.22168 12.8279 6.22168 12.3933C6.22168 11.9587 6.52502 11.6064 6.89923 11.6064H14.691C15.0652 11.6064 15.3686 11.9587 15.3686 12.3933C15.3686 12.8279 15.0653 13.1802 14.6911 13.1802Z" fill="#083863"/>
<path d="M4.86566 9.24615H3.51056C3.13635 9.24615 2.83301 8.89386 2.83301 8.45926C2.83301 8.02466 3.13635 7.67236 3.51056 7.67236H4.86566C5.23987 7.67236 5.54321 8.02466 5.54321 8.45926C5.54321 8.89379 5.2398 9.24615 4.86566 9.24615Z" fill="#00ACEA"/>
<path d="M14.6911 9.24615H6.89923C6.52502 9.24615 6.22168 8.89386 6.22168 8.45926C6.22168 8.02466 6.52502 7.67236 6.89923 7.67236H14.691C15.0652 7.67236 15.3686 8.02466 15.3686 8.45926C15.3686 8.89379 15.0653 9.24615 14.6911 9.24615Z" fill="#083863"/>
<path d="M20.2804 22.3871C19.9062 22.3871 19.6028 22.0348 19.6028 21.6002V3.14758C19.6028 2.27837 18.9961 1.57379 18.2477 1.57379H3.34161C2.9674 1.57379 2.66406 1.2215 2.66406 0.786895C2.66406 0.352292 2.96747 0 3.34161 0H18.2477C19.7445 0 20.9579 1.40924 20.9579 3.14758V21.6003C20.9579 22.0348 20.6546 22.3871 20.2804 22.3871Z" fill="#00ACEA"/>
</svg>
