<svg width="20" height="27" viewBox="0 0 20 27" fill="none" xmlns="http://www.w3.org/2000/svg">
<path d="M11.8517 21.8271C11.8836 21.8324 11.9158 21.8368 11.948 21.841C11.9158 21.8368 11.8837 21.8323 11.8517 21.8271Z" fill="black"/>
<path d="M11.6984 21.7983C11.7177 21.8025 11.737 21.8064 11.7565 21.8102C11.7371 21.8065 11.7177 21.8025 11.6984 21.7983Z" fill="black"/>
<path d="M12.0117 21.8496C12.065 21.8555 12.1186 21.8601 12.1727 21.8633C12.1188 21.8602 12.0652 21.8554 12.0117 21.8496Z" fill="black"/>
<path d="M12.5478 21.8633C12.4253 21.8702 12.3021 21.8702 12.1796 21.8633C12.2405 21.8668 12.3018 21.869 12.3637 21.869C12.4255 21.869 12.4868 21.8668 12.5478 21.8633Z" fill="black"/>
<path d="M12.7792 21.841C12.8115 21.8368 12.8437 21.8324 12.8756 21.8271C12.8436 21.8323 12.8115 21.8368 12.7792 21.841Z" fill="black"/>
<path d="M13.0297 21.7983C13.0103 21.8025 12.991 21.8065 12.9716 21.8102C12.991 21.8064 13.0103 21.8025 13.0297 21.7983Z" fill="black"/>
<path d="M12.5547 21.8633C12.6087 21.8601 12.6623 21.8555 12.7156 21.8496C12.6621 21.8554 12.6085 21.8601 12.5547 21.8633Z" fill="black"/>
<rect width="20" height="20" rx="1" fill="#3CBCCC"/>
<rect y="10.9302" width="20" height="14.186" rx="1" fill="#3CBCCC"/>
<path d="M17.7259 1.39502H2.1266C1.72297 1.39502 1.39539 1.7226 1.39539 2.12624V22.844C1.39539 23.2477 1.72297 23.5752 2.1266 23.5752H10.17V22.1128V20.9838C9.5699 20.4066 9.19503 19.5969 9.19503 18.7005C9.19503 16.9534 10.6165 15.5319 12.3636 15.5319C14.1108 15.5319 15.5322 16.9534 15.5322 18.7005C15.5322 19.5969 15.1574 20.4066 14.5573 20.9838V22.1128V23.5752H17.7259C18.1295 23.5752 18.4571 23.2477 18.4571 22.844V2.12624C18.4571 1.7226 18.1295 1.39502 17.7259 1.39502V1.39502ZM5.05147 7.00101H14.801C15.2046 7.00101 15.5322 7.3286 15.5322 7.73223C15.5322 8.13586 15.2046 8.46344 14.801 8.46344H5.05147C4.64784 8.46344 4.32025 8.13586 4.32025 7.73223C4.32025 7.3286 4.64784 7.00101 5.05147 7.00101ZM4.32025 5.29484C4.32025 4.89121 4.64784 4.56362 5.05147 4.56362H7.97633C8.37996 4.56362 8.70755 4.89121 8.70755 5.29484C8.70755 5.69847 8.37996 6.02606 7.97633 6.02606H5.05147C4.64784 6.02606 4.32025 5.69847 4.32025 5.29484ZM5.05147 10.9008C4.64784 10.9008 4.32025 10.5732 4.32025 10.1696C4.32025 9.76598 4.64784 9.4384 5.05147 9.4384H14.801C15.2046 9.4384 15.5322 9.76598 15.5322 10.1696C15.5322 10.5732 15.2046 10.9008 14.801 10.9008H5.05147ZM14.801 13.3382H11.8762C11.4725 13.3382 11.1449 13.0106 11.1449 12.607C11.1449 12.2034 11.4725 11.8758 11.8762 11.8758H14.801C15.2046 11.8758 15.5322 12.2034 15.5322 12.607C15.5322 13.0106 15.2046 13.3382 14.801 13.3382Z" fill="#E0F7FA"/>
<path d="M12.7148 21.8496C12.7366 21.8472 12.7581 21.8441 12.7798 21.8413C12.7582 21.8441 12.7366 21.8472 12.7148 21.8496Z" fill="black"/>
<path d="M12.876 21.8273C12.9082 21.8221 12.9401 21.8162 12.972 21.8101C12.9401 21.8163 12.9082 21.822 12.876 21.8273Z" fill="black"/>
<path d="M12.1729 21.8628C12.175 21.8629 12.1772 21.8632 12.1794 21.8633C12.1772 21.8631 12.1751 21.8629 12.1729 21.8628Z" fill="black"/>
<path d="M11.7556 21.8101C11.7875 21.8162 11.8194 21.8221 11.8516 21.8273C11.8194 21.822 11.7874 21.8162 11.7556 21.8101Z" fill="black"/>
<path d="M12.5477 21.8633C12.5499 21.8632 12.5521 21.8629 12.5543 21.8628C12.552 21.8629 12.5499 21.8631 12.5477 21.8633Z" fill="black"/>
<path d="M11.9482 21.8413C11.9699 21.8441 11.9915 21.8473 12.0132 21.8496C11.9915 21.8472 11.9699 21.8441 11.9482 21.8413Z" fill="black"/>
<path d="M5.05141 6.02689H7.97627C8.3801 6.02689 8.70749 5.6995 8.70749 5.29567C8.70749 4.89184 8.3801 4.56445 7.97627 4.56445H5.05141C4.64758 4.56445 4.32019 4.89184 4.32019 5.29567C4.32019 5.6995 4.64758 6.02689 5.05141 6.02689Z" fill="#80DEEA"/>
<path d="M5.05141 8.4639H14.801C15.2048 8.4639 15.5322 8.13651 15.5322 7.73268C15.5322 7.32885 15.2048 7.00146 14.801 7.00146H5.05141C4.64758 7.00146 4.32019 7.32885 4.32019 7.73268C4.32019 8.13651 4.64758 8.4639 5.05141 8.4639Z" fill="#80DEEA"/>
<path d="M15.5322 10.1702C15.5322 9.76635 15.2048 9.43896 14.801 9.43896H5.05141C4.64758 9.43896 4.32019 9.76635 4.32019 10.1702C4.32019 10.574 4.64758 10.9014 5.05141 10.9014H14.801C15.2048 10.9014 15.5322 10.574 15.5322 10.1702Z" fill="#80DEEA"/>
<path d="M10.1695 23.5755V22.113V20.984C10.0833 20.9011 10.0023 20.8128 9.92578 20.7207V23.5755H10.1695Z" fill="#B2EBF2"/>
<path d="M17.7254 1.39502H9.92578V7.00101H14.8006C15.2042 7.00101 15.5318 7.3286 15.5318 7.73223C15.5318 8.13586 15.2042 8.46344 14.8006 8.46344H9.92578V9.4384H14.8006C15.2042 9.4384 15.5318 9.76598 15.5318 10.1696C15.5318 10.5732 15.2042 10.9008 14.8006 10.9008H9.92578V16.6784C10.5075 15.9784 11.3841 15.5319 12.3632 15.5319C14.1103 15.5319 15.5318 16.9534 15.5318 18.7005C15.5318 19.5969 15.1569 20.4066 14.5568 20.9838V22.1128V23.5752H17.7254C18.1291 23.5752 18.4566 23.2477 18.4566 22.844V2.12624C18.4566 1.7226 18.1291 1.39502 17.7254 1.39502V1.39502ZM14.8006 13.3382H11.8757C11.4721 13.3382 11.1445 13.0106 11.1445 12.607C11.1445 12.2034 11.4721 11.8758 11.8757 11.8758H14.8006C15.2042 11.8758 15.5318 12.2034 15.5318 12.607C15.5318 13.0106 15.2042 13.3382 14.8006 13.3382Z" fill="#B2EBF2"/>
<path d="M14.8006 7.00146H9.92578V8.4639H14.8006C15.2044 8.4639 15.5318 8.13651 15.5318 7.73268C15.5318 7.32885 15.2044 7.00146 14.8006 7.00146Z" fill="#4DD0E1"/>
<path d="M14.8006 9.43848H9.92578V10.9009H14.8006C15.2044 10.9009 15.5318 10.5735 15.5318 10.1697C15.5318 9.76587 15.2044 9.43848 14.8006 9.43848Z" fill="#4DD0E1"/>
<path d="M14.8006 11.876H11.8757C11.4719 11.876 11.1445 12.2034 11.1445 12.6072C11.1445 13.011 11.4719 13.3384 11.8757 13.3384H14.8006C15.2044 13.3384 15.5318 13.011 15.5318 12.6072C15.5318 12.2034 15.2044 11.876 14.8006 11.876Z" fill="#4DD0E1"/>
<path d="M13.0285 21.7989C13.0094 21.8028 12.9904 21.8068 12.9714 21.8107C12.9397 21.8165 12.9076 21.8223 12.8754 21.8277C12.8437 21.8326 12.8115 21.8375 12.7794 21.8414C12.7579 21.8443 12.7365 21.8472 12.715 21.8496C12.6619 21.8555 12.6083 21.8604 12.5541 21.8633C12.5522 21.8633 12.5498 21.8638 12.5478 21.8638C12.425 21.8706 12.3021 21.8706 12.1793 21.8638C12.1773 21.8638 12.1749 21.8633 12.1729 21.8633C12.1188 21.8604 12.0652 21.8555 12.0121 21.8496C11.9906 21.8472 11.9692 21.8443 11.9477 21.8414C11.9155 21.8375 11.8834 21.8326 11.8517 21.8277C11.8195 21.8223 11.7873 21.8165 11.7557 21.8107C11.7366 21.8068 11.7176 21.8028 11.6986 21.7989C11.4056 21.7361 11.1278 21.6327 10.8709 21.4948C10.614 21.3568 10.3785 21.1847 10.1699 20.9844V26.0132C10.1699 26.2828 10.3181 26.5309 10.556 26.6581C10.7939 26.7849 11.0824 26.7712 11.3067 26.6216L12.3635 25.9172L13.4204 26.6216C13.5427 26.703 13.6841 26.7444 13.826 26.7444C13.9444 26.7444 14.0629 26.7156 14.1711 26.6581C14.409 26.5309 14.5572 26.2828 14.5572 26.0132V20.9844C14.1404 21.3851 13.6144 21.6732 13.0285 21.7989Z" fill="#EF5350"/>
<path d="M16.7444 18.2559C16.7444 18.865 16.6139 19.4435 16.3787 19.9691C16.1435 20.4941 15.8036 20.9647 15.3849 21.3566C14.8036 21.9008 14.0702 22.292 13.2531 22.4628C13.2265 22.4681 13.2 22.4734 13.1735 22.4787C13.1293 22.4866 13.0845 22.4946 13.0396 22.5018C12.9954 22.5085 12.9506 22.5151 12.9057 22.5204C12.8758 22.5243 12.8459 22.5283 12.816 22.5316C12.7419 22.5396 12.6671 22.5462 12.5916 22.5502C12.5889 22.5502 12.5855 22.5508 12.5828 22.5508C12.4115 22.5601 12.2402 22.5601 12.0689 22.5508C12.0662 22.5508 12.0628 22.5502 12.06 22.5502C11.9846 22.5462 11.9098 22.5396 11.8357 22.5316C11.8058 22.5283 11.7759 22.5243 11.746 22.5204C11.7011 22.5151 11.6562 22.5085 11.6121 22.5018C11.5672 22.4946 11.5223 22.4866 11.4781 22.4787C11.4516 22.4734 11.4251 22.4681 11.3986 22.4628C10.9901 22.3774 10.6026 22.2371 10.2443 22.0497C9.88608 21.8624 9.55775 21.6287 9.2668 21.3566C8.42998 20.5729 7.90723 19.4733 7.90723 18.2559C7.90723 15.8834 9.88948 13.9531 12.3258 13.9531C14.7622 13.9531 16.7444 15.8834 16.7444 18.2559Z" fill="#FDD835"/>
<path d="M13.0282 21.7989C13.0092 21.8028 12.9902 21.8068 12.9712 21.8107C12.9395 21.8165 12.9073 21.8223 12.8751 21.8277C12.8434 21.8326 12.8113 21.8375 12.7791 21.8414C12.7577 21.8443 12.7362 21.8472 12.7148 21.8496C12.6616 21.8555 12.608 21.8604 12.5539 21.8633C12.5519 21.8633 12.5495 21.8638 12.5475 21.8638C12.4861 21.8672 12.4247 21.8689 12.3633 21.8689V25.9172L13.4201 26.6216C13.5425 26.703 13.6839 26.7444 13.8257 26.7444C13.9442 26.7444 14.0626 26.7156 14.1708 26.6581C14.4087 26.5309 14.5569 26.2828 14.5569 26.0132V20.9844C14.1401 21.3851 13.6141 21.6732 13.0282 21.7989Z" fill="#D32F2F"/>
<path d="M12.3252 13.9531V22.5578C12.4108 22.5578 12.4965 22.5555 12.5822 22.5508C12.5849 22.5508 12.5883 22.5502 12.591 22.5502C12.6664 22.5462 12.7412 22.5396 12.8153 22.5316C12.8452 22.5283 12.8751 22.5243 12.9051 22.5204C12.9499 22.5151 12.9948 22.5085 13.039 22.5018C13.0838 22.4946 13.1287 22.4866 13.1729 22.4787C13.1994 22.4734 13.2259 22.4681 13.2524 22.4628C14.0695 22.292 14.803 21.9008 15.3842 21.3566C15.803 20.9647 16.1429 20.4941 16.3781 19.9691C16.6133 19.4435 16.7438 18.865 16.7438 18.2559C16.7438 15.8834 14.7615 13.9531 12.3252 13.9531Z" fill="#FBC02D"/>
</svg>
