
<svg width="24" height="30" viewBox="0 0 24 30" fill="none" xmlns="http://www.w3.org/2000/svg">
<path d="M9.53534 28.0869H13.5696V28.4335H9.53534V28.0869Z" fill="#344D5B"/>
<path d="M9.98163 27.0747V28.6612C9.98163 28.903 10.1776 29.0989 10.4194 29.0989H12.6855C12.9273 29.0989 13.1233 28.903 13.1233 28.6612V27.0747H9.98163Z" fill="#293B44"/>
<path d="M16.2431 1.00203C16.0977 0.937304 15.9274 1.0027 15.8626 1.14807L15.2418 2.54256C15.1771 2.68793 15.2424 2.85826 15.3878 2.92299C15.5332 2.98772 15.7035 2.92232 15.7682 2.77695L16.3891 1.38246C16.4538 1.23709 16.3885 1.06676 16.2431 1.00203Z" fill="#64798A"/>
<path d="M20.1415 3.8346C20.0351 3.71633 19.8529 3.70679 19.7346 3.81327L18.6002 4.83467C18.482 4.94115 18.4724 5.12334 18.5789 5.24161C18.6854 5.35987 18.8676 5.36941 18.9858 5.26293L20.1202 4.24153C20.2385 4.13505 20.248 3.95286 20.1415 3.8346Z" fill="#64798A"/>
<path d="M22.5521 8.00875C22.5029 7.85739 22.3404 7.77458 22.189 7.82375L20.7373 8.29545C20.5859 8.34463 20.5031 8.50718 20.5523 8.65853C20.6014 8.80989 20.764 8.89271 20.9153 8.84353L22.3671 8.37183C22.5184 8.32266 22.6013 8.1601 22.5521 8.00875Z" fill="#64798A"/>
<path d="M23.0555 12.8021C23.0721 12.6438 22.9573 12.502 22.799 12.4854L21.2809 12.3258C21.1227 12.3092 20.9809 12.424 20.9642 12.5823C20.9476 12.7405 21.0624 12.8823 21.2207 12.8989L22.7388 13.0585C22.897 13.0751 23.0388 12.9603 23.0555 12.8021Z" fill="#64798A"/>
<path d="M21.5657 17.3859C21.6453 17.2481 21.5981 17.0719 21.4603 16.9923L20.1383 16.2291C20.0005 16.1495 19.8243 16.1967 19.7447 16.3345C19.6651 16.4724 19.7124 16.6486 19.8502 16.7282L21.1721 17.4914C21.3099 17.5709 21.4862 17.5237 21.5657 17.3859Z" fill="#64798A"/>
<path d="M1.4908 17.3854C1.57037 17.5233 1.7466 17.5705 1.88441 17.4909L3.20636 16.7277C3.34417 16.6481 3.3914 16.4719 3.31183 16.3341C3.23226 16.1962 3.05603 16.149 2.91822 16.2286L1.59627 16.9918C1.45846 17.0714 1.41123 17.2476 1.4908 17.3854Z" fill="#64798A"/>
<path d="M0.00160178 12.8021C0.0182368 12.9603 0.160029 13.0751 0.318282 13.0585L1.83638 12.8989C1.99464 12.8823 2.10946 12.7405 2.09283 12.5823C2.07619 12.424 1.9344 12.3092 1.77615 12.3258L0.258045 12.4854C0.0997918 12.502 -0.0150332 12.6438 0.00160178 12.8021Z" fill="#64798A"/>
<path d="M0.505391 8.00875C0.456213 8.1601 0.539053 8.32266 0.690389 8.37183L2.14214 8.84353C2.29348 8.89271 2.45604 8.80989 2.50522 8.65853C2.5544 8.50718 2.47156 8.34463 2.32022 8.29545L0.868469 7.82375C0.717133 7.77458 0.55457 7.85739 0.505391 8.00875Z" fill="#64798A"/>
<path d="M2.91483 3.8346C2.80834 3.95286 2.81791 4.13505 2.93616 4.24153L4.07054 5.26293C4.1888 5.36941 4.37099 5.35987 4.47748 5.24161C4.58397 5.12334 4.5744 4.94115 4.45615 4.83467L3.32177 3.81327C3.20351 3.70679 3.02132 3.71633 2.91483 3.8346Z" fill="#64798A"/>
<path d="M6.81457 1.00203C6.66918 1.06676 6.60381 1.23709 6.66854 1.38246L7.28941 2.77695C7.35413 2.92232 7.52445 2.98772 7.66983 2.92299C7.81522 2.85826 7.88059 2.68793 7.81587 2.54256L7.195 1.14807C7.13027 1.0027 6.95995 0.937304 6.81457 1.00203Z" fill="#64798A"/>
<path d="M11.5284 0C11.3693 0 11.2403 0.129016 11.2403 0.28814V1.8146C11.2403 1.97373 11.3693 2.10274 11.5284 2.10274C11.6876 2.10274 11.8166 1.97373 11.8166 1.8146V0.28814C11.8166 0.129016 11.6876 0 11.5284 0Z" fill="#64798A"/>
<path d="M9.04883 24.3975V26.926C9.04883 27.3113 9.36122 27.6237 9.74656 27.6237H13.3583C13.7437 27.6237 14.056 27.3113 14.056 26.926V24.3975H9.04883Z" fill="#344D5B"/>
<path d="M20.3154 10.8294C19.9544 6.52213 16.4218 3.06583 12.1082 2.79005C6.97536 2.46187 2.70984 6.52796 2.70984 11.5902C2.70984 13.9405 3.62924 16.0762 5.129 17.6567C6.75979 19.3753 7.81527 21.5434 8.11814 23.864C8.17814 24.3237 8.56333 24.6701 9.02689 24.6701H14.0332C14.4981 24.6701 14.8838 24.3219 14.9427 23.8609C15.2344 21.5755 16.212 19.4124 17.8343 17.7541C19.5524 15.998 20.5415 13.5269 20.3154 10.8294Z" fill="#F7BE56"/>
<path d="M11.5285 17.7404C14.9535 17.7404 17.73 14.9639 17.73 11.5389C17.73 8.1139 14.9535 5.3374 11.5285 5.3374C8.10352 5.3374 5.32703 8.1139 5.32703 11.5389C5.32703 14.9639 8.10352 17.7404 11.5285 17.7404Z" fill="#FCD462"/>
</svg>
