
<svg width="27" height="21" viewBox="0 0 27 21" fill="none" xmlns="http://www.w3.org/2000/svg">
<path d="M9.55426 13.4582V18.1936C9.55426 19.5036 8.48747 20.5612 7.1658 20.5612C5.84414 20.5612 4.77734 19.5036 4.77734 18.1936V13.4582C4.77734 13.0162 5.1276 12.6689 5.5735 12.6689H8.75811C9.20401 12.6689 9.55426 13.0162 9.55426 13.4582Z" fill="#57555C"/>
<path d="M3.98077 6.23096H3.18461C1.43313 6.23096 0 7.67956 0 9.45018C0 11.2207 1.43313 12.6694 3.18461 12.6694H3.98077C4.42666 12.6694 4.77692 12.3152 4.77692 11.8646V7.03576C4.77692 6.58502 4.42666 6.23096 3.98077 6.23096Z" fill="#7A7780"/>
<path d="M4.77692 9.5542V11.8907C4.77692 12.3268 4.42666 12.6696 3.98077 12.6696H3.18461C1.43313 12.6696 0 11.2676 0 9.5542H4.77692Z" fill="#57555C"/>
<path d="M26.2108 11.008H23.8431C23.4069 11.008 23.0539 10.6829 23.0539 10.2811C23.0539 9.87933 23.4069 9.5542 23.8431 9.5542H26.2108C26.647 9.5542 27 9.87933 27 10.2811C27 10.6829 26.647 11.008 26.2108 11.008Z" fill="#1DE8F1"/>
<path d="M24.0085 15.5561L22.4508 13.9984C22.1466 13.6942 22.1466 13.2013 22.4508 12.8971C22.755 12.5929 23.2479 12.5929 23.5522 12.8971L25.1099 14.4548C25.4141 14.759 25.4141 15.2519 25.1099 15.5561C24.8056 15.8604 24.3127 15.8604 24.0085 15.5561Z" fill="#1BD9DE"/>
<path d="M22.4508 7.66404C22.1466 7.35982 22.1466 6.86692 22.4508 6.5627L24.0085 5.00502C24.3127 4.7008 24.8057 4.7008 25.1099 5.00502C25.4141 5.30923 25.4141 5.80214 25.1099 6.10635L23.5522 7.66404C23.2479 7.9683 22.755 7.9683 22.4508 7.66404Z" fill="#1DE8F1"/>
<path d="M11.0077 5.57301V12.9772L9.42923 14.3307H5.48308C4.45703 14.3307 3.57309 13.6619 3.2575 12.7384C3.16279 12.4836 3.11539 12.2288 3.11539 11.9422V7.16531C3.11539 5.84365 4.1729 4.77686 5.48308 4.77686H9.42923L11.0077 5.57301Z" fill="#FF507E"/>
<path d="M11.0077 9.5542V12.9776L9.42923 14.3311H5.48308C4.45703 14.3311 3.57309 13.6623 3.2575 12.7388C3.16279 12.484 3.11539 12.2293 3.11539 11.9427V9.5542H11.0077Z" fill="#F40F78"/>
<path d="M19.1076 1.62421V17.4832C19.1076 17.8004 18.9187 18.0858 18.6195 18.2126C18.336 18.3396 17.9895 18.2761 17.7691 18.0382L16.8399 17.1184C15.5486 15.818 12.1679 14.3114 10.3412 14.3114H9.5538V4.796H10.3412C12.1679 4.796 15.5486 3.2894 16.8399 1.98891L17.7691 1.06904C17.9895 0.831207 18.3202 0.767718 18.6195 0.89459C18.9187 1.02146 19.1076 1.30703 19.1076 1.62421Z" fill="#E1E4FB"/>
<path d="M19.1076 9.5542V17.4837C19.1076 17.8009 18.9187 18.0864 18.6195 18.2132C18.336 18.3401 17.9895 18.2767 17.7691 18.0387L16.8399 17.1189C15.5486 15.8185 12.1679 14.3119 10.3412 14.3119H9.5538V9.5542H19.1076Z" fill="#C5C9F7"/>
<path d="M20.7692 1.575V17.325C20.7692 18.1912 20.0215 18.9 19.1077 18.9C18.1939 18.9 17.4462 18.1912 17.4462 17.325V1.575C17.4462 0.708749 18.1939 0 19.1077 0C20.0215 0 20.7692 0.708749 20.7692 1.575Z" fill="#FF507E"/>
<path d="M20.7692 9.5542V17.3427C20.7692 18.1994 20.0215 18.9003 19.1077 18.9003C18.1939 18.9003 17.4462 18.1994 17.4462 17.3427V9.5542H20.7692Z" fill="#F40F78"/>
<path d="M23.8431 11.0078H26.2108C26.647 11.0078 27 10.7292 27 10.3848H23.0539C23.0539 10.7292 23.4069 11.0078 23.8431 11.0078Z" fill="#1BD9DE"/>
</svg>
