


<svg width="26" height="26" viewBox="0 0 26 26" fill="none" xmlns="http://www.w3.org/2000/svg">
<path d="M6.50543 19.4949C5.01234 18.0173 2.60539 18.0173 1.1123 19.4949C-0.365315 20.9878 -0.365315 23.395 1.1123 24.8879C2.60539 26.3657 5.01234 26.3657 6.50543 24.8879C7.98305 23.395 7.98305 20.988 6.50543 19.4949Z" fill="#FF9F00"/>
<path d="M16.7579 25.2383C16.7579 25.4972 16.7274 25.7409 16.7121 26H12.1418C12.1724 25.7409 12.1876 25.4972 12.1876 25.2383C12.1876 22.0847 10.908 19.236 8.83606 17.1641C6.76415 15.0922 3.91544 13.8125 0.761841 13.8125C0.502976 13.8125 0.258988 13.8278 0.00012207 13.8581V9.28781C0.258988 9.27254 0.502976 9.24219 0.761841 9.24219C5.17981 9.24219 9.1713 11.0398 12.0656 13.9343C14.9604 16.8288 16.7579 20.8203 16.7579 25.2383Z" fill="#FF9F00"/>
<path d="M26.0001 25.2383C26.0001 25.4972 25.9696 25.7409 25.9543 26H21.2824C21.2977 25.7409 21.3283 25.4972 21.3283 25.2383C21.3283 19.571 19.0278 14.4219 15.2954 10.7047C11.5783 6.97231 6.42891 4.67188 0.761841 4.67188C0.502976 4.67188 0.258988 4.70243 0.00012207 4.7177V0.0458222C0.258988 0.0305481 0.502976 0 0.761841 0C7.70876 0 13.9852 2.91992 18.5402 7.45969C23.0802 12.0149 26.0001 18.2914 26.0001 25.2383Z" fill="#FF9F00"/>
<path d="M6.50556 19.4951C7.98317 20.988 7.98317 23.3952 6.50556 24.8881C5.01247 26.3659 2.60552 26.3659 1.11243 24.8881L6.50556 19.4951Z" fill="#FF7816"/>
<path d="M12.0656 13.9341C14.9604 16.8286 16.7579 20.8201 16.7579 25.2381C16.7579 25.4969 16.7274 25.7407 16.7121 25.9998H12.1418C12.1723 25.7407 12.1876 25.4969 12.1876 25.2381C12.1876 22.0845 10.908 19.2358 8.83606 17.1639L12.0656 13.9341Z" fill="#FF7816"/>
<path d="M26.0008 25.2386C26.0008 25.4974 25.9702 25.7412 25.9549 26.0003H21.2831C21.2983 25.7412 21.3289 25.4974 21.3289 25.2386C21.3289 19.5713 19.0284 14.4222 15.296 10.705L18.5409 7.45996C23.0808 12.0152 26.0008 18.2916 26.0008 25.2386Z" fill="#FF7816"/>
</svg>
