<svg width="9" height="6" viewBox="0 0 9 6" fill="none" xmlns="http://www.w3.org/2000/svg">
<path d="M0.341246 1.00101L0.341992 1.00024L0.977816 0.343902C1.16411 0.151596 1.46102 0.152726 1.64351 0.343132L1.64351 0.343134L1.64425 0.343902L4.35635 3.14351L4.5 3.2918L4.64365 3.14351L7.35575 0.343902C7.54204 0.151596 7.83895 0.152726 8.02144 0.343134L8.02218 0.343902L8.65801 1.00024C8.84774 1.19609 8.84668 1.51375 8.65875 1.70567L8.65801 1.70644L4.83181 5.6561L4.8318 5.65609L4.83033 5.65765C4.65121 5.84657 4.35491 5.84885 4.16819 5.6561L0.341992 1.70644C0.152265 1.51059 0.153322 1.19293 0.341246 1.00101Z" fill="black" stroke="#F6F3FF" stroke-width="0.4"/>
</svg>
