<svg width="31" height="30" viewBox="0 0 31 30" fill="none" xmlns="http://www.w3.org/2000/svg">
<mask id="mask0_0_62" style="mask-type:alpha" maskUnits="userSpaceOnUse" x="0" y="0" width="31" height="30">
<g clip-path="url(#clip0_0_62)">
<path d="M15.7145 0.97168C7.88776 0.97168 1.54309 7.31635 1.54309 15.1431C1.54309 22.9699 7.88776 29.3145 15.7145 29.3145C23.5413 29.3145 29.8859 22.9699 29.8859 15.1431C29.8859 7.31635 23.5413 0.97168 15.7145 0.97168ZM19.0714 10.7647H16.9412C16.6888 10.7647 16.4083 11.0969 16.4083 11.5383V13.0764H19.0729L18.6699 15.2701H16.4083V21.8553H13.8944V15.2701H11.6137V13.0764H13.8944V11.7863C13.8944 9.93511 15.1787 8.43087 16.9412 8.43087H19.0714V10.7647Z" fill="#069CF6"/>
</g>
</mask>
<g mask="url(#mask0_0_62)">
<rect x="-3.80945" y="-1.52344" width="38.0952" height="33.3333" fill="#673CCB"/>
</g>
<defs>
<clipPath id="clip0_0_62">
<rect width="29.5238" height="29.5238" fill="white" transform="translate(0.952271 0.381348)"/>
</clipPath>
</defs>
</svg>
