<svg width="33" height="33" viewBox="0 0 33 33" fill="none" xmlns="http://www.w3.org/2000/svg">
<mask id="mask0_0_58" style="mask-type:alpha" maskUnits="userSpaceOnUse" x="0" y="0" width="33" height="33">
<path d="M16.1912 13.3682C15.5294 13.3682 14.8825 13.5644 14.3322 13.9321C13.782 14.2998 13.3531 14.8224 13.0998 15.4338C12.8466 16.0452 12.7803 16.7179 12.9094 17.367C13.0385 18.0161 13.3572 18.6123 13.8252 19.0802C14.2931 19.5482 14.8893 19.8669 15.5384 19.996C16.1874 20.1251 16.8602 20.0588 17.4716 19.8056C18.083 19.5523 18.6056 19.1234 18.9733 18.5732C19.341 18.0229 19.5372 17.376 19.5372 16.7142C19.5372 16.2748 19.4506 15.8397 19.2825 15.4338C19.1143 15.0278 18.8679 14.6589 18.5572 14.3482C18.2465 14.0375 17.8776 13.7911 17.4716 13.6229C17.0657 13.4547 16.6306 13.3682 16.1912 13.3682ZM29.5888 10.0626C29.5817 9.02073 29.3898 7.98834 29.0221 7.01344C28.7513 6.30006 28.3323 5.65222 27.7927 5.11266C27.2532 4.5731 26.6053 4.15409 25.892 3.88328C24.9171 3.51557 23.8847 3.32371 22.8427 3.31661C21.1023 3.22217 20.5896 3.22217 16.1912 3.22217C11.7927 3.22217 11.28 3.22217 9.53957 3.31661C8.49766 3.32371 7.46526 3.51557 6.49037 3.88328C5.77699 4.15409 5.12914 4.5731 4.58958 5.11266C4.05003 5.65222 3.63102 6.30006 3.36021 7.01344C2.9925 7.98834 2.80064 9.02073 2.79354 10.0626C2.6991 11.8031 2.6991 12.3158 2.6991 16.7142C2.6991 21.1126 2.6991 21.6253 2.79354 23.3658C2.80806 24.4114 2.99967 25.447 3.36021 26.4285C3.62982 27.1386 4.04848 27.7827 4.58799 28.3174C5.12523 28.8602 5.77446 29.2792 6.49037 29.5452C7.46526 29.9129 8.49766 30.1048 9.53957 30.1119C11.28 30.2063 11.7927 30.2063 16.1912 30.2063C20.5896 30.2063 21.1023 30.2063 22.8427 30.1119C23.8847 30.1048 24.9171 29.9129 25.892 29.5452C26.6079 29.2792 27.2571 28.8602 27.7943 28.3174C28.3338 27.7827 28.7525 27.1386 29.0221 26.4285C29.3895 25.4488 29.5813 24.4121 29.5888 23.3658C29.6832 21.6253 29.6832 21.1126 29.6832 16.7142C29.6832 12.3158 29.6832 11.8031 29.5888 10.0626ZM26.1618 20.8563C26.1185 21.6889 25.9408 22.509 25.6356 23.2849C25.3737 23.9321 24.9843 24.52 24.4906 25.0137C23.9969 25.5074 23.409 25.8968 22.7618 26.1587C21.9786 26.4469 21.1539 26.6063 20.3197 26.6309H12.0626C11.2284 26.6063 10.4037 26.4469 9.62053 26.1587C8.95146 25.91 8.34725 25.5134 7.85307 24.9984C7.3642 24.5143 6.98666 23.9296 6.74672 23.2849C6.45739 22.5025 6.3023 21.6768 6.28799 20.8428V12.5857C6.3023 11.7516 6.45739 10.926 6.74672 10.1436C6.99535 9.47453 7.39201 8.87032 7.90703 8.37614C8.3932 7.88991 8.97731 7.51277 9.62053 7.26979C10.4037 6.9816 11.2284 6.82213 12.0626 6.79756H20.3197C21.1539 6.82213 21.9786 6.9816 22.7618 7.26979C23.4309 7.51842 24.0351 7.91508 24.5293 8.4301C25.0181 8.91413 25.3957 9.49885 25.6356 10.1436C25.9238 10.9268 26.0833 11.7515 26.1078 12.5857V16.7142C26.1078 19.4936 26.2023 19.7769 26.1618 20.8428V20.8563ZM24.0031 10.8182C23.8424 10.3824 23.5891 9.98661 23.2607 9.65817C22.9323 9.32973 22.5365 9.07646 22.1007 8.91582C21.5023 8.70839 20.872 8.60792 20.2388 8.61899H12.1435C11.5071 8.62521 10.8767 8.74398 10.2816 8.96979C9.85249 9.12313 9.4609 9.36607 9.1329 9.68244C8.8049 9.99881 8.54799 10.3814 8.37926 10.8047C8.18332 11.4056 8.0876 12.0346 8.09592 12.6666V20.7619C8.1093 21.3976 8.22783 22.0267 8.44672 22.6238C8.60736 23.0596 8.86063 23.4553 9.18907 23.7838C9.5175 24.1122 9.91328 24.3655 10.3491 24.5261C10.9248 24.7378 11.5305 24.8563 12.1435 24.8769H20.2388C20.8752 24.8707 21.5056 24.7519 22.1007 24.5261C22.5365 24.3655 22.9323 24.1122 23.2607 23.7838C23.5891 23.4553 23.8424 23.0596 24.0031 22.6238C24.2289 22.0287 24.3476 21.3983 24.3539 20.7619V12.6666C24.3542 12.0295 24.2353 11.398 24.0031 10.8047V10.8182ZM16.1912 21.8682C15.515 21.8682 14.8454 21.7348 14.2209 21.4756C13.5963 21.2164 13.029 20.8366 12.5515 20.3578C12.074 19.8791 11.6956 19.3108 11.4381 18.6855C11.1806 18.0603 11.0489 17.3904 11.0507 16.7142C11.0507 15.6943 11.3533 14.6973 11.9202 13.8494C12.4872 13.0016 13.2929 12.341 14.2354 11.9513C15.178 11.5616 16.215 11.4603 17.2151 11.6603C18.2153 11.8603 19.1336 12.3525 19.8538 13.0746C20.5741 13.7968 21.0639 14.7164 21.2612 15.717C21.4586 16.7177 21.3546 17.7544 20.9624 18.6959C20.5703 19.6375 19.9076 20.4415 19.0582 21.0062C18.2089 21.5709 17.2111 21.8709 16.1912 21.8682ZM21.588 12.5722C21.2897 12.5406 21.0137 12.3998 20.8131 12.1768C20.6125 11.9539 20.5015 11.6645 20.5015 11.3646C20.5015 11.0647 20.6125 10.7754 20.8131 10.5524C21.0137 10.3295 21.2897 10.1887 21.588 10.1571C21.8862 10.1887 22.1623 10.3295 22.3629 10.5524C22.5635 10.7754 22.6745 11.0647 22.6745 11.3646C22.6745 11.6645 22.5635 11.9539 22.3629 12.1768C22.1623 12.3998 21.8862 12.5406 21.588 12.5722Z" fill="#069CF6"/>
</mask>
<g mask="url(#mask0_0_58)">
<rect y="-6.14258" width="32.381" height="39.0476" fill="#673CCB"/>
</g>
</svg>
