<svg width="29" height="28" viewBox="0 0 29 28" fill="none" xmlns="http://www.w3.org/2000/svg">
<mask id="mask0_0_55" style="mask-type:alpha" maskUnits="userSpaceOnUse" x="0" y="0" width="29" height="29">
<path d="M14.7141 0.381348C7.088 0.381348 0.904541 6.56481 0.904541 14.1909C0.904541 21.8169 7.088 28.0004 14.7141 28.0004C22.3401 28.0004 28.5236 21.8169 28.5236 14.1909C28.5236 6.56481 22.3401 0.381348 14.7141 0.381348ZM21.3507 10.7909C21.3599 10.9358 21.3599 11.0868 21.3599 11.2348C21.3599 15.7599 17.9137 20.9723 11.6162 20.9723C9.67421 20.9723 7.87403 20.4082 6.35745 19.4373C6.63488 19.4681 6.89997 19.4804 7.18356 19.4804C8.78645 19.4804 10.2599 18.9379 11.4343 18.0193C9.93005 17.9885 8.66623 17.0021 8.23469 15.6458C8.76179 15.7229 9.23649 15.7229 9.77901 15.5842C9.00446 15.4268 8.30828 15.0061 7.80874 14.3936C7.30919 13.7812 7.0371 13.0146 7.03868 12.2242V12.1811C7.49181 12.4369 8.02508 12.5941 8.58301 12.6157C8.11398 12.3031 7.72934 11.8797 7.46317 11.3828C7.19701 10.886 7.05756 10.3311 7.05718 9.76751C7.05718 9.12943 7.22363 8.54685 7.52263 8.04132C8.38234 9.09965 9.45514 9.96523 10.6713 10.5818C11.8874 11.1984 13.2197 11.5521 14.5815 11.6201C14.0976 9.29281 15.8361 7.40941 17.926 7.40941C18.9124 7.40941 19.8002 7.82246 20.4259 8.48828C21.1996 8.3434 21.9394 8.05365 22.5991 7.66525C22.3432 8.45745 21.8069 9.12635 21.0948 9.54865C21.7853 9.47467 22.4511 9.28356 23.0676 9.01538C22.6021 9.69969 22.0196 10.3069 21.3507 10.7909Z" fill="#069CF6"/>
</mask>
<g mask="url(#mask0_0_55)">
<rect x="-0.999756" y="-3.42822" width="33.3333" height="32.381" fill="#673CCB"/>
</g>
</svg>
