<svg width="677" height="729" viewBox="0 0 677 729" fill="none" xmlns="http://www.w3.org/2000/svg">
<path d="M-7 134.408C5.40393 170.328 58.4307 204.358 105.566 173.637C178.926 125.825 237.205 -10.567 348.062 0.653252C506.833 16.7227 485.852 262.454 558.309 342.839C649.478 443.982 737.5 552.5 619 614.5C-122.5 865 -7 625 -7 625V134.408Z" fill="#F1EAFF"/>
<g clip-path="url(#clip0_0_1)">
<path d="M180.654 338.305V371.998C180.654 376.104 184.554 379.782 190.943 382.553C197.746 385.488 207.375 387.319 218.06 387.319C238.714 387.319 255.43 380.458 255.43 372.014V338.322H180.654V338.305Z" fill="#945915"/>
<path d="M180.654 338.305V371.998C180.654 376.104 184.555 379.782 190.943 382.553V348.86L188.908 339.921L187.137 338.322H180.654V338.305Z" fill="#874C12"/>
<path d="M180.654 338.305C180.654 342.412 184.554 346.089 190.943 348.86C197.746 351.796 207.375 353.626 218.06 353.626C238.714 353.626 255.43 346.766 255.43 338.322C255.43 337.53 255.279 336.739 254.996 335.963L250.775 324.254L242.408 326.712C235.869 324.403 227.351 323.001 218.042 323.001C210.315 323.001 203.117 323.957 197.162 325.623C195.956 325.936 194.787 326.299 193.675 326.695L185.12 324.733L181.106 335.947C180.804 336.706 180.654 337.481 180.654 338.305Z" fill="#FFCB24"/>
<path d="M180.654 338.305C180.654 342.412 184.555 346.089 190.943 348.86L196.974 327.751C196.974 327.751 197.087 326.86 197.162 325.64C195.956 325.953 194.788 326.316 193.676 326.712L185.12 324.749L181.106 335.963C180.805 336.706 180.654 337.481 180.654 338.305Z" fill="#F9B800"/>
<path d="M218.042 340.317C199.672 340.317 184.781 334.218 184.781 326.695C184.781 319.172 199.672 313.073 218.042 313.073C236.411 313.073 251.303 319.172 251.303 326.695C251.303 334.218 236.411 340.317 218.042 340.317Z" fill="#FFD357"/>
<path d="M218.174 325.458C223.375 325.458 227.615 321.764 227.615 317.196V282.662H208.751V317.196C208.751 321.764 212.973 325.458 218.174 325.458Z" fill="#FBC006"/>
<path d="M208.733 282.662V317.196C208.733 321.517 212.558 325.079 217.401 325.425C215.479 323.957 214.292 321.764 214.292 319.34V284.806H227.615V282.662H208.733Z" fill="#F7A500"/>
<path d="M162.017 199.131V255.352C162.017 282.415 187.099 304.382 218.042 304.382C221.17 304.382 224.261 304.151 227.238 303.706C237.245 302.287 246.347 298.527 253.809 293.101C266.19 284.08 274.068 270.524 274.068 255.352V199.131H162.017Z" fill="#FFCB24"/>
<path d="M227.257 303.705C237.263 302.287 246.365 298.527 253.828 293.101C261.592 284.707 266.209 274.004 266.209 262.361V206.157H253.206V262.377C253.187 279.759 242.841 295.031 227.257 303.705Z" fill="#FFD96E"/>
<path d="M162.016 199.131V255.352C162.016 279.05 181.219 298.824 206.753 303.392C192.488 294.52 183.216 279.941 183.216 263.449V207.229H274.086V199.131H162.016Z" fill="#F9B800"/>
<path d="M218.041 214.535C187.089 214.535 161.997 207.638 161.997 199.131C161.997 190.624 187.089 183.728 218.041 183.728C248.994 183.728 274.086 190.624 274.086 199.131C274.086 207.638 248.994 214.535 218.041 214.535Z" fill="#FFD96E"/>
<path d="M218.118 212.754C189.445 212.754 166.2 206.655 166.2 199.131C166.2 191.608 189.445 185.509 218.118 185.509C246.791 185.509 270.035 191.608 270.035 199.131C270.035 206.655 246.791 212.754 218.118 212.754Z" fill="#C5A600"/>
<path d="M218.042 358.244C217.571 358.244 217.1 358.244 216.61 358.227V374.092C217.081 374.109 217.552 374.109 218.042 374.109C232.477 374.109 245.009 370.761 251.228 365.846V349.981C245.009 354.896 232.477 358.244 218.042 358.244Z" fill="#FFCB24"/>
<path d="M306.537 260.794C306.518 261.932 308.855 262.856 311.738 262.872C314.622 262.889 316.958 261.998 316.977 260.86C316.996 259.739 314.659 258.799 311.776 258.782C308.893 258.766 306.556 259.656 306.537 260.794Z" fill="#ED8406"/>
<path d="M306.713 241.995L317.153 242.075L316.961 260.892L306.521 260.812L306.713 241.995Z" fill="#ED8406"/>
<path d="M306.726 241.977C306.707 243.098 309.044 244.039 311.927 244.055C314.81 244.072 317.147 243.181 317.166 242.043C317.185 240.922 314.848 239.982 311.965 239.965C309.082 239.949 306.745 240.856 306.726 241.977Z" fill="#FBC006"/>
<path d="M289.897 207.542C289.897 207.542 279.721 223.374 276.763 227.959C273.804 232.56 245.028 243.247 208.771 218.987C192.3 208.169 185.968 189.962 189.587 184.322C193.205 178.698 205.039 160.31 205.039 160.31L289.897 207.542Z" fill="#5624C1"/>
<path d="M320.426 212.457L222.527 215.458L176.32 142.614L274.501 139.596L320.426 212.457Z" fill="#0A2982"/>
<path d="M178.75 138.837L176.319 142.614L181.709 145.269L185.271 143.983L178.75 138.837Z" fill="#0A2982"/>
<path d="M322.838 208.68L320.426 212.457L313.039 206.322L322.838 208.68Z" fill="#0A2982"/>
<path d="M322.838 208.68L224.958 211.682L178.751 138.837L276.932 135.836L322.838 208.68Z" fill="#5624C1"/>
<path d="M311.832 242.802C312.36 242.802 312.812 242.422 312.812 241.944L312.831 208.631C312.831 208.35 312.68 208.103 312.417 207.938L252.339 170.568C251.906 170.304 251.303 170.386 250.983 170.766C250.681 171.145 250.775 171.673 251.209 171.953L310.89 209.076L310.871 241.944C310.871 242.422 311.305 242.802 311.832 242.802Z" fill="#FBC006"/>
<path d="M246.309 171.458C246.629 174.163 249.381 176.109 252.471 175.829C255.562 175.548 257.786 173.14 257.465 170.436C257.145 167.731 254.394 165.785 251.303 166.065C248.231 166.346 245.989 168.754 246.309 171.458Z" fill="#0A2982"/>
<path d="M384.497 301.891C384.497 310.533 398.593 317.542 415.987 317.542C433.381 317.542 447.477 310.533 447.477 301.891C447.477 293.25 433.381 286.257 415.987 286.257C398.593 286.241 384.497 293.25 384.497 301.891Z" fill="url(#paint0_linear_0_1)"/>
<path d="M459.405 213.133L447.477 296.07H447.345C446.082 304.134 432.533 310.484 415.968 310.484C398.574 310.484 384.478 303.475 384.478 294.849L372.55 213.149H459.405V213.133Z" fill="#5624C1"/>
<path d="M372.587 213.149L384.516 294.849C384.516 301.182 392.073 306.624 402.965 309.082C401.288 307.169 400.346 305.058 400.346 302.848L388.436 221.148H458.256L459.405 213.149H372.587Z" fill="#3A138C"/>
<path d="M415.987 234.704C392.008 234.704 372.568 225.046 372.568 213.133C372.568 201.219 392.008 191.562 415.987 191.562C439.966 191.562 459.405 201.219 459.405 213.133C459.405 225.046 439.966 234.704 415.987 234.704Z" fill="#D0DCFE"/>
<path d="M415.987 229.773C395.119 229.773 378.203 222.323 378.203 213.133C378.203 203.943 395.119 196.492 415.987 196.492C436.854 196.492 453.771 203.943 453.771 213.133C453.771 222.323 436.854 229.773 415.987 229.773Z" fill="#272C91"/>
<path d="M415.987 229.773C395.119 229.773 378.203 222.323 378.203 213.133C378.203 203.943 395.119 196.492 415.987 196.492C436.854 196.492 453.771 203.943 453.771 213.133C453.771 222.323 436.854 229.773 415.987 229.773Z" fill="#272C91"/>
<path d="M399.893 205.662L400.854 205.497C401.363 205.415 401.702 204.969 401.608 204.524L398.8 191.842C398.706 191.397 398.197 191.1 397.688 191.182L396.727 191.347C396.218 191.43 395.879 191.875 395.973 192.32L398.781 205.002C398.894 205.448 399.384 205.744 399.893 205.662Z" fill="#FD9220"/>
<path d="M403.832 267.984C404.077 269.122 406.376 269.304 408.957 268.364C411.539 267.424 413.442 265.742 413.197 264.604C412.952 263.466 410.653 263.284 408.072 264.224C405.49 265.148 403.587 266.83 403.832 267.984Z" fill="#9A98ED"/>
<path d="M393.749 174.773L413.197 264.604L403.831 267.984L384.384 178.137L393.749 174.773Z" fill="#FBC006"/>
<path d="M384.383 178.137C384.628 179.275 386.927 179.457 389.509 178.517C392.091 177.577 393.994 175.894 393.749 174.756C393.504 173.619 391.205 173.437 388.623 174.377C386.023 175.317 384.119 176.999 384.383 178.137Z" fill="#5624C1"/>
<path d="M408.185 155.296L408.26 158.149L408.298 159.32L408.411 163.262L408.43 164.433L408.543 168.374L408.581 169.545L408.675 173.371L408.713 174.542L408.826 178.401L408.864 179.572L408.958 183.514L408.995 184.652L409.109 188.593L409.165 189.731L409.259 193.59L409.297 194.728L409.41 198.62L409.429 199.791L409.542 203.683L409.58 204.821L409.674 208.779L409.712 209.95L409.825 213.891L409.862 215.029L409.957 218.938L409.994 220.076L410.107 224.034L410.145 225.172L410.239 229.064L410.277 230.235L410.39 234.176L410.409 235.314L410.861 251.394C410.955 255.071 413.97 257.644 416.929 256.539L426.672 252.878C428.688 252.103 430.026 249.827 429.913 247.32L426.615 153.02C426.502 149.673 423.958 147.215 421.207 147.76L412.067 149.574C409.768 150.068 408.11 152.493 408.185 155.296Z" fill="#5624C1"/>
<path d="M408.26 158.166L408.298 159.337C408.317 159.337 408.336 159.337 408.373 159.32L412.519 158.38C412.764 158.314 412.934 158.017 412.896 157.687C412.839 157.391 412.594 157.16 412.331 157.259L408.26 158.166Z" fill="white"/>
<path d="M408.411 163.262L408.43 164.433C408.467 164.433 408.486 164.433 408.524 164.416L412.67 163.46C412.934 163.41 413.103 163.113 413.047 162.8C412.99 162.503 412.745 162.272 412.5 162.338L408.411 163.262Z" fill="white"/>
<path d="M408.543 168.374L408.581 169.545C408.619 169.545 408.637 169.529 408.675 169.529L412.821 168.572C413.085 168.523 413.254 168.209 413.198 167.912C413.141 167.599 412.915 167.385 412.651 167.451L408.543 168.374Z" fill="white"/>
<path d="M408.676 173.355L408.713 174.526C408.751 174.526 408.77 174.526 408.789 174.509L412.934 173.553C413.198 173.503 413.368 173.206 413.311 172.893C413.255 172.58 413.029 172.365 412.765 172.431L408.676 173.355Z" fill="white"/>
<path d="M408.845 178.385L408.883 179.556C408.902 179.556 408.92 179.556 408.958 179.539L413.104 178.582C413.349 178.533 413.519 178.236 413.481 177.923C413.424 177.626 413.179 177.395 412.916 177.461L408.845 178.385Z" fill="white"/>
<path d="M408.977 183.497L409.014 184.635H409.108L413.254 183.679C413.499 183.613 413.669 183.316 413.631 182.986C413.575 182.689 413.33 182.458 413.066 182.557L408.977 183.497Z" fill="white"/>
<path d="M409.128 188.577L409.165 189.731C409.184 189.731 409.203 189.731 409.222 189.715L413.368 188.758C413.613 188.709 413.782 188.412 413.745 188.098C413.688 187.801 413.443 187.571 413.179 187.637L409.128 188.577Z" fill="white"/>
<path d="M409.259 193.607L409.297 194.744H409.391L413.537 193.788C413.801 193.722 413.971 193.425 413.914 193.128C413.857 192.815 413.612 192.584 413.368 192.667L409.259 193.607Z" fill="white"/>
<path d="M409.41 198.637L409.429 199.808C409.448 199.808 409.467 199.808 409.504 199.791L413.65 198.835C413.914 198.785 414.084 198.488 414.027 198.175C413.971 197.862 413.744 197.647 413.481 197.713L409.41 198.637Z" fill="white"/>
<path d="M409.542 203.7L409.579 204.838H409.655L413.801 203.881C414.064 203.815 414.234 203.518 414.177 203.221C414.121 202.908 413.876 202.677 413.631 202.76L409.542 203.7Z" fill="white"/>
<path d="M409.674 208.795L409.712 209.966C409.749 209.966 409.768 209.966 409.806 209.95L413.952 208.993C414.197 208.944 414.366 208.647 414.329 208.334C414.272 208.037 414.046 207.806 413.763 207.872L409.674 208.795Z" fill="white"/>
<path d="M409.825 213.908L409.862 215.046H409.881C409.9 215.046 409.938 215.029 409.957 215.029L414.102 214.073C414.366 214.023 414.536 213.71 414.479 213.413C414.442 213.1 414.197 212.885 413.933 212.951L409.825 213.908Z" fill="white"/>
<path d="M409.956 218.954L409.994 220.092C410.013 220.092 410.013 220.092 410.032 220.092C410.069 220.092 410.088 220.092 410.126 220.076L414.272 219.119C414.535 219.07 414.686 218.773 414.648 218.46C414.592 218.163 414.347 217.932 414.102 217.998L409.956 218.954Z" fill="white"/>
<path d="M410.126 224.067L410.163 225.205H410.22L414.366 224.248C414.611 224.182 414.78 223.885 414.743 223.588C414.686 223.275 414.46 223.061 414.177 223.127L410.126 224.067Z" fill="white"/>
<path d="M410.258 229.097L410.296 230.268C410.315 230.268 410.333 230.268 410.352 230.251L414.498 229.295C414.762 229.245 414.932 228.948 414.875 228.635C414.837 228.338 414.592 228.107 414.328 228.173L410.258 229.097Z" fill="white"/>
<path d="M410.409 234.193L410.428 235.331H410.522L414.668 234.374C414.932 234.308 415.101 234.011 415.045 233.714C415.007 233.401 414.743 233.187 414.498 233.253L410.409 234.193Z" fill="white"/>
<path d="M589.812 375.544L559.415 390.864L487.013 354.385L517.184 338.965L589.812 375.544Z" fill="url(#paint1_linear_0_1)"/>
<path d="M514.716 230.235L582.368 264.34L559.415 275.9L510.909 241.317V232.164C510.909 230.449 513.02 229.377 514.716 230.235Z" fill="#5624C1"/>
<path d="M582.368 267.506L515.111 233.583L490.896 245.819L558.134 279.726L582.368 267.506Z" fill="#B592FF"/>
<path d="M489.048 242.142C489.915 241.664 490.97 241.383 491.969 241.894L559.396 275.884L582.348 264.323L514.696 230.218C513.98 229.855 513.169 229.855 512.491 230.086V230.07C512.491 230.07 514.846 229.064 515.77 228.569C516.618 228.14 517.636 227.909 518.615 228.388L589.792 264.274V368.93L563.127 355.49V382.404L490.348 345.71C488.991 345.017 488.143 343.748 488.143 342.379L485.863 243.659C485.901 243.692 488.012 242.719 489.048 242.142Z" fill="#3300A0"/>
<path d="M559.415 279.644L589.812 264.323V368.98L559.415 384.301V279.644Z" fill="#5624C1"/>
<path d="M563.542 285.301L586.985 273.493V281.491L563.542 293.299V285.301Z" fill="#FCC106"/>
<path d="M563.542 295.872L586.985 284.047V286.818L563.542 298.643V295.872Z" fill="#FCC106"/>
<path d="M563.542 301.017L586.985 289.209V291.98L563.542 303.788V301.017Z" fill="#FCC106"/>
<path d="M563.542 370.695L586.985 358.871V361.641L563.542 373.466V370.695Z" fill="#FCC106"/>
<path d="M488.238 243.774L559.415 279.661V384.317L486.637 347.623C485.28 346.93 484.432 345.661 484.432 344.292V245.704C484.432 243.989 486.542 242.917 488.238 243.774Z" fill="#632CDA"/>
<path d="M535.369 384.087L504.972 399.407L432.571 362.928L462.741 347.508L535.369 384.087Z" fill="url(#paint2_linear_0_1)"/>
<path d="M460.273 237.92L527.926 272.025L504.973 283.586L456.466 249.002V239.85C456.466 238.134 458.577 237.062 460.273 237.92Z" fill="#B4BBE1"/>
<path d="M527.944 275.191L460.668 241.284L436.453 253.505L503.71 287.412L527.944 275.191Z" fill="#DAE3F2"/>
<path d="M434.606 249.827C435.473 249.349 436.528 249.068 437.527 249.58L504.972 283.569L527.925 272.009L460.273 237.904C459.557 237.541 458.746 237.541 458.068 237.772V237.755C458.068 237.755 460.423 236.749 461.347 236.254C462.195 235.826 463.212 235.595 464.192 236.073L535.369 271.959V376.616L508.704 363.175V390.09L435.925 353.395C434.568 352.703 433.72 351.433 433.72 350.064L431.44 251.344C431.459 251.377 433.57 250.404 434.606 249.827Z" fill="#CED2EF"/>
<path d="M504.972 287.346L535.369 272.009V376.665L504.972 391.986V287.346Z" fill="#C5C8E8"/>
<path d="M509.099 292.986L532.542 281.178V289.176L509.099 301.001V292.986Z" fill="white"/>
<path d="M509.099 303.557L532.542 291.749V294.52L509.099 306.328V303.557Z" fill="white"/>
<path d="M509.099 308.719L532.542 296.895V299.665L509.099 311.49V308.719Z" fill="white"/>
<path d="M509.099 378.38L532.542 366.556V369.326L509.099 381.151V378.38Z" fill="white"/>
<path d="M433.796 251.46L504.972 287.346V392.003L432.194 355.308C430.837 354.616 429.989 353.346 429.989 351.977V253.389C429.989 251.674 432.1 250.602 433.796 251.46Z" fill="#B4BBE1"/>
<path d="M68.9796 249.002V295.987L72.6167 297.719L122.631 264.802L130.433 221.577L126.814 219.845L68.9796 249.002Z" fill="#FF9906"/>
<path d="M68.9797 249.002V295.987L72.6167 297.719L122.631 264.802L72.6167 250.734L68.9797 249.002Z" fill="#EF770A"/>
<path d="M72.6169 250.734V297.719L130.433 268.562V221.577L72.6169 250.734Z" fill="#FCC106"/>
<path d="M123.253 237.046V240.971L102.354 261.47L81.4174 261.915V258.007L123.253 237.046Z" fill="white"/>
<path d="M102.354 263.746L123.253 243.247V263.284L81.4174 284.245V264.191L102.354 263.746Z" fill="white"/>
<path d="M300.469 286.01V319.092L304.502 321.038L339.723 297.867L345.226 267.424L341.193 265.478L300.469 286.01Z" fill="#FF9906"/>
<path d="M300.469 286.01V319.092L304.502 321.038L339.723 297.867L304.502 287.956L300.469 286.01Z" fill="#EF770A"/>
<path d="M304.502 287.956V321.038L345.226 300.522V267.424L304.502 287.956Z" fill="#FCC106"/>
<path d="M334.993 290.694L329.472 300.242L313.604 290.067" stroke="white" stroke-width="3.1599" stroke-miterlimit="10" stroke-linecap="round" stroke-linejoin="round"/>
<path d="M46.5922 365.335V398.434L50.625 400.38L85.8459 377.193L91.3486 346.766L87.3347 344.803L46.5922 365.335Z" fill="#5624C1"/>
<path d="M46.5923 365.335V398.434L50.625 400.38L85.8458 377.193L50.625 367.298L46.5923 365.335Z" fill="#5624C1"/>
<path d="M50.6251 367.298V400.38L91.3486 379.848V346.765L50.6251 367.298Z" fill="#4C96ED"/>
<path d="M71.9195 363.62L74.9912 367.479C75.1797 367.71 75.5188 367.793 75.8204 367.661L82.4726 365.071C83.1133 364.824 83.6786 365.418 83.3017 365.946L77.9875 373.202C77.8933 373.334 77.8556 373.499 77.8745 373.664L79.2501 379.947C79.3255 380.31 79.0052 380.689 78.5717 380.706L71.4484 381.101C71.26 381.118 71.0715 381.184 70.9396 381.316L64.4382 387.649C63.9671 388.11 63.1379 387.797 63.2321 387.187L64.3816 380.772C64.4382 380.491 64.2686 380.244 63.9671 380.145L58.9355 378.446C58.4267 378.281 58.3701 377.671 58.8224 377.391L66.8314 372.245C66.9445 372.163 67.0388 372.064 67.0953 371.949L70.6569 363.802C70.8831 363.323 71.5992 363.224 71.9195 363.62Z" fill="white"/>
<path d="M522.008 421.077L266.058 549.647L107.856 469.662L363.806 341.076L522.008 421.077Z" fill="url(#paint3_linear_0_1)"/>
<path d="M363.806 328.79L107.856 457.359V462.356L266.058 542.358L522.008 413.772V408.775L363.806 328.79Z" fill="#80B4FF"/>
<path d="M522.008 408.775L266.058 537.361L107.856 457.359L363.806 328.79L522.008 408.775Z" fill="#5624C1"/>
<path d="M361.846 314.541C361.846 314.541 315.205 319.356 237.093 379.699C237.093 379.699 169.572 391.013 116.939 437.602V454.671L266.208 529.676L511.115 406.631V389.545L361.846 314.541Z" fill="white"/>
<path d="M511.115 389.545C511.115 389.545 464.474 394.361 386.363 454.704C386.363 454.704 318.842 466.017 266.208 512.606V529.675L511.115 406.63V389.545Z" fill="#F5F5F5"/>
<path d="M116.939 437.602L266.209 512.607V529.692L116.939 454.688V437.602Z" fill="#E2E2E2"/>
<path d="M127.304 404.981L276.592 479.969C284.262 475.665 291.951 472.07 299.526 469.085C305.557 466.71 311.493 464.698 317.278 463.016C355.345 451.933 386.363 454.721 386.363 454.721L237.075 379.716C237.075 379.7 181.143 374.686 127.304 404.981Z" fill="#F5F5F5"/>
<path d="M144.98 408.247L148.523 410.028C188.154 389.776 227.992 387.896 243.821 388.077L237.753 385.026C218.475 385.472 181.445 389.116 144.98 408.247Z" fill="url(#paint4_linear_0_1)"/>
<path d="M161.074 416.344L164.598 418.109C204.21 397.857 244.047 395.977 259.877 396.158L253.828 393.107C234.569 393.553 197.557 397.181 161.074 416.344Z" fill="url(#paint5_linear_0_1)"/>
<path d="M177.129 424.409L180.653 426.173C220.227 405.938 260.084 404.025 275.933 404.223L269.846 401.155C250.586 401.601 213.575 405.278 177.129 424.409Z" fill="url(#paint6_linear_0_1)"/>
<path d="M193.035 432.391L196.577 434.172C236.133 413.936 275.952 412.023 291.819 412.205L285.77 409.154C266.473 409.599 229.48 413.26 193.035 432.391Z" fill="url(#paint7_linear_0_1)"/>
<path d="M209.147 440.488L212.671 442.269C252.245 422.034 292.026 420.121 307.912 420.302L301.863 417.251C282.585 417.68 245.611 421.341 209.147 440.488Z" fill="url(#paint8_linear_0_1)"/>
<path d="M226.164 449.031L229.688 450.812C269.243 430.56 309.081 428.647 324.93 428.845L318.843 425.777C299.546 426.239 262.572 429.917 226.164 449.031Z" fill="url(#paint9_linear_0_1)"/>
<path d="M242.426 457.194L245.95 458.975C285.487 438.756 325.249 436.81 341.154 436.992L335.105 433.941C315.789 434.403 278.816 438.08 242.426 457.194Z" fill="url(#paint10_linear_0_1)"/>
<path d="M258.596 465.341L262.12 467.106C301.675 446.887 341.494 444.974 357.361 445.155L351.274 442.088C331.977 442.55 295.004 446.211 258.596 465.341Z" fill="url(#paint11_linear_0_1)"/>
<path d="M367.877 325.013C351.802 329.103 313.434 342.296 258.992 383.113L255.675 381.448C308.026 341.999 345.32 327.8 363.467 322.786L367.877 325.013Z" fill="url(#paint12_linear_0_1)"/>
<path d="M383.781 333.011C367.631 337.134 329.301 350.393 274.953 391.145L271.636 389.479C323.893 350.08 361.168 335.848 379.372 330.801L383.781 333.011Z" fill="url(#paint13_linear_0_1)"/>
<path d="M400.026 341.175C383.971 345.248 345.603 358.441 291.122 399.275L287.806 397.609C340.175 358.145 377.488 343.962 395.617 338.948L400.026 341.175Z" fill="url(#paint14_linear_0_1)"/>
<path d="M416.044 349.223C399.932 353.329 361.583 366.555 307.196 407.34L303.88 405.674C356.174 366.242 393.468 352.026 411.634 347.013L416.044 349.223Z" fill="url(#paint15_linear_0_1)"/>
<path d="M432.194 357.337C416.082 361.427 377.733 374.653 323.328 415.454L320.011 413.788C372.324 374.356 409.599 360.157 427.766 355.127L432.194 357.337Z" fill="url(#paint16_linear_0_1)"/>
<path d="M448.212 365.385C432.081 369.508 393.75 382.734 339.383 423.518L336.048 421.836C388.323 382.421 425.617 368.205 443.802 363.158L448.212 365.385Z" fill="url(#paint17_linear_0_1)"/>
<path d="M464.306 373.482C448.212 377.589 409.844 390.799 355.458 431.599L352.123 429.917C404.436 390.485 441.73 376.286 459.896 371.256L464.306 373.482Z" fill="url(#paint18_linear_0_1)"/>
<path d="M480.437 381.596C464.305 385.702 425.975 398.945 371.608 439.713L368.291 438.047C420.567 398.632 457.86 384.416 476.046 379.37L480.437 381.596Z" fill="url(#paint19_linear_0_1)"/>
<path d="M363.73 398.616L357.757 399.143L357.059 403.596L266.209 357.947L273.502 353.28L363.73 398.616Z" fill="#5624C1"/>
<path opacity="0.5" d="M418.268 403.415C420.529 405.641 436.905 412.551 446.12 414.975C447.194 414.415 448.25 413.87 449.286 413.343L419.907 399.704C419.907 399.688 415.987 401.188 418.268 403.415Z" fill="#898989"/>
<path d="M448.438 307.202C448.438 307.202 451.83 310.78 449.701 316.668C448.382 320.313 447.195 320.659 446.874 322.572C446.554 324.485 449.701 328.097 447.006 333.555C445.631 336.343 437.15 333.094 437.15 333.094L432.835 328.097L437.15 317.74L448.438 307.202Z" fill="#2A3049"/>
<path d="M437.357 325.392L436.867 330.455C436.867 330.455 447.326 334.017 447.552 332.352C447.779 330.686 445.366 329.697 444.914 328.559C444.462 327.421 444.914 326.448 444.914 326.448C444.914 326.448 446.252 324.205 446.026 321.517" fill="#22293F"/>
<path d="M491.404 458.464C491.404 458.464 491.084 458.744 491.14 459.091C491.197 459.437 491.762 460.031 492.93 460.575C494.099 461.119 494.984 461.35 496.209 462.224C497.415 463.098 499.696 464.962 500.977 465.885C502.277 466.809 504.087 467.304 505.066 467.436C506.065 467.568 508.628 467.963 510.588 467.864C512.341 467.766 513.565 466.924 513.754 466.281C513.942 465.655 513.867 464.583 513.867 464.583" fill="#3A3D51"/>
<path d="M499.94 447.679V453.913V456.617H493.929L491.988 447.679H499.94Z" fill="#FFE1BD"/>
<path d="M443.727 389.71C443.727 389.71 450.04 404.866 462.779 408.758C464.852 409.401 466.868 409.896 468.79 410.308C478.646 412.386 485.977 411.776 485.977 411.776C484.827 422.974 490.556 443.968 491.969 448.915C492.177 449.657 492.855 450.202 493.684 450.367C493.835 450.4 494.005 450.416 494.155 450.433C495.757 450.647 497.246 450.466 498.339 450.218C499.394 449.971 500.148 449.163 500.186 448.206C500.525 440.62 502.108 404.569 497.397 401.716C485.769 394.641 457.257 386.23 451.453 384.317C450.775 384.103 450.247 383.641 449.964 383.047L448.061 378.99L443.727 389.71Z" fill="#3A3D51"/>
<path d="M465.38 401.699L468.791 410.308C478.647 412.386 485.977 411.776 485.977 411.776C484.828 422.974 490.557 443.968 491.97 448.915C492.177 449.658 492.856 450.202 493.685 450.367C493.836 450.4 494.005 450.416 494.156 450.433H494.175C488.71 433.726 489.614 407.686 489.614 407.686C477.912 408.329 465.757 401.897 465.38 401.699Z" fill="#333647"/>
<path d="M459.425 452.148L456.711 457.211C456.711 457.211 448.514 463.692 450.323 455.71L453.677 446.508" fill="#FFE1BD"/>
<path d="M416.062 392.002C416.552 396.686 418.192 401.914 425.428 405.476C431.798 408.626 445.253 414.316 461.459 417.944C460.856 419.181 460.197 420.583 459.481 422.166C456.616 428.383 453.299 444.331 452.112 449.575C451.924 450.4 452.169 451.241 452.734 451.9C452.866 452.049 452.998 452.181 453.149 452.296C454.166 453.071 455.636 453.912 457.238 453.912C458.331 453.912 459.292 453.319 459.782 452.478C463.08 446.772 478.966 419.577 480.323 413.772C480.474 413.095 480.681 411.99 480.361 411.199C480.266 410.885 480.153 410.655 480.021 410.506C472.823 403.86 448.437 394.278 448.437 394.278L448.061 379.007L421.282 381.613L417.117 382.008C417.117 382.008 415.648 388.094 416.062 392.002Z" fill="#3A3D51"/>
<path d="M416.063 392.002C416.553 396.686 418.192 401.914 425.429 405.476C431.798 408.626 445.253 414.316 461.46 417.944C460.857 419.181 460.197 420.583 459.481 422.166C456.617 428.383 453.3 444.331 452.113 449.575C451.924 450.4 452.169 451.241 452.735 451.9C454.412 446.755 458.124 436.068 459.406 430.197C460.894 423.37 467.32 415.256 467.32 415.256C467.32 415.256 459.462 413.425 448.25 410.176C437.037 406.927 424.939 402.062 421.415 396.208C417.891 390.353 421.415 381.761 421.415 381.761C421.415 381.761 421.358 381.711 421.283 381.613L417.118 382.008C417.118 382.008 415.648 388.094 416.063 392.002Z" fill="#333647"/>
<path d="M491.574 459.107C492.591 459.932 493.27 460.047 495.983 461.4C498.697 462.735 501.411 465.935 503.616 466.529C505.82 467.122 510.192 467.848 512.322 466.957C513.471 466.479 513.905 465.704 513.961 464.929C513.999 464.286 513.792 463.643 513.509 463.164C512.925 462.125 511.097 461.334 508.892 460.443C506.687 459.553 504.351 457.211 502.824 455.957C501.298 454.688 500.827 453.286 500.299 452.593C500.035 452.247 497.793 452.676 497.058 453.715C496.7 454.242 496.794 454.457 496.945 454.655C497.076 454.852 497.058 455.083 496.907 455.265C496.794 455.397 496.605 455.479 496.398 455.496C493.458 455.595 493.119 452.923 493.119 452.923C491.027 453.682 490.556 458.283 491.574 459.107Z" fill="#FBC006"/>
<path d="M446.93 459.437C446.93 459.437 446.195 460.097 446.195 460.69C446.195 461.152 447.382 463.313 448.287 463.939C448.287 463.939 448.532 464.269 448.833 464.78C449.135 465.292 450.624 468.095 451.943 469.563C453.262 471.031 456.296 471.888 457.653 472.235C458.991 472.581 460.517 472.828 462.779 472.103C465.059 471.394 465.172 469.909 465.172 469.909L459.047 466.941" fill="#3A3D51"/>
<path d="M446.535 460.196C446.479 460.657 447.27 462.29 448.778 463.758C450.511 466.759 452.226 469.266 453.187 469.876C454.318 470.602 456.447 471.361 458.69 471.938C461.441 472.647 465.21 471.311 465.38 469.299C465.38 469.2 465.38 469.101 465.38 469.002C465.191 466.842 461.743 465.193 460.329 464.582C458.747 463.89 458.068 459.569 457.767 457.804C457.71 457.425 457.352 456.716 456.466 456.749C455.581 456.782 454.657 457.029 454.13 457.442C453.583 457.854 453.734 458.068 453.734 458.481C453.734 458.777 453.489 458.942 453.168 458.959C453.037 458.959 452.905 458.942 452.773 458.893C452.283 458.711 450.04 456.98 450.323 455.726C450.323 455.726 449.758 455.545 449.305 456.073C448.872 456.584 446.686 458.81 446.535 460.196Z" fill="#FBC006"/>
<path d="M439.958 343.896C439.958 343.896 443.293 352.735 446.064 358.705C446.817 360.355 447.534 361.789 448.137 362.746C448.325 363.059 448.551 363.389 448.777 363.719C453.338 370.25 465.323 379.831 469.959 383.707C469.959 383.707 469.959 383.723 469.978 383.723C470.392 384.07 470.92 384.251 471.466 384.301C472.446 384.4 473.502 384.02 474.067 383.229C474.255 382.965 474.35 382.717 474.368 382.503C474.425 382.091 474.255 381.761 474.18 381.612C474.18 381.612 474.161 381.596 474.161 381.579C474.124 381.547 474.124 381.514 474.124 381.514C472.503 379.37 463.42 367.364 459.839 362.729C458.124 360.536 456.862 359.085 455.976 358.145C455.618 354.747 454.45 344.308 452.659 338.223C452.64 338.14 452.603 338.058 452.584 337.975C451.83 335.584 450.643 333.819 449.399 332.55C448.834 331.972 448.268 331.494 447.722 331.115C447.609 331.049 447.515 330.999 447.383 330.933C446.271 330.373 444.801 329.96 443.143 329.68C442.163 329.713 441.202 329.96 440.354 330.455C438.94 331.28 437.96 332.632 437.659 334.677C437.338 336.573 438.62 340.202 439.958 343.896Z" fill="#2EED89"/>
<path d="M452.565 337.992C452.697 338.85 454.695 351.96 454.808 358.491C454.808 358.491 472.691 379.898 474.368 382.503C474.425 382.091 474.255 381.761 474.18 381.613C474.18 381.613 474.161 381.596 474.161 381.58C474.124 381.547 474.124 381.514 474.124 381.514C472.503 379.37 463.42 367.364 459.839 362.73C458.124 360.536 456.862 359.085 455.976 358.145C455.618 354.748 454.45 344.308 452.659 338.223C452.622 338.173 452.584 338.074 452.565 337.992Z" fill="#41F28D"/>
<path d="M446.064 358.706C446.817 360.355 447.534 361.789 448.137 362.746C452.113 369.26 465.078 379.65 469.978 383.707C469.978 383.707 469.978 383.724 469.997 383.724C470.411 384.07 470.939 384.251 471.485 384.301C469.073 382.074 455.203 369.326 453.432 367.248C451.472 364.972 450.454 363.274 450.737 361.855C451.02 360.437 451.434 359.942 452.791 357.386C454.808 353.626 454.638 352.026 454.638 352.026C454.638 352.026 449.399 353.494 448.928 353.527C448.664 353.56 447.289 356.199 446.064 358.706Z" fill="#27E076"/>
<path d="M450.021 336.244C450.021 336.244 449.701 340.103 451.189 342.692C452.678 345.298 454.073 347.771 454.619 351.581L448.457 345.248L450.021 336.244Z" fill="#27E076"/>
<path d="M439.958 343.896C439.958 343.896 443.293 352.735 446.064 358.705C446.817 360.355 447.534 361.789 448.137 362.746C448.325 363.059 448.551 363.389 448.777 363.719C453.338 370.25 465.323 379.831 469.959 383.707C469.959 383.707 469.959 383.723 469.978 383.723C470.392 384.07 470.92 384.251 471.466 384.301C472.446 384.4 473.502 384.02 474.067 383.229C474.255 382.965 474.35 382.717 474.368 382.503C474.425 382.091 474.255 381.761 474.18 381.612C474.18 381.612 474.161 381.596 474.161 381.579C474.124 381.547 474.124 381.514 474.124 381.514C472.503 379.37 463.42 367.364 459.839 362.729C458.124 360.536 456.862 359.085 455.976 358.145C455.618 354.747 454.45 344.308 452.659 338.223C452.64 338.14 452.603 338.058 452.584 337.975C451.83 335.584 450.643 333.819 449.399 332.55C448.834 331.972 448.268 331.494 447.722 331.115C447.609 331.049 447.515 330.999 447.383 330.933C446.271 330.373 444.801 329.96 443.143 329.68C442.163 329.713 441.202 329.96 440.354 330.455C438.94 331.28 437.96 332.632 437.659 334.677C437.338 336.573 438.62 340.202 439.958 343.896Z" fill="#FBC006"/>
<path d="M417.024 380.277C416.666 380.969 416.439 381.448 417.137 381.992C417.137 381.992 419.53 384.598 427.03 384.845C427.143 384.845 427.237 384.845 427.351 384.845C427.935 384.845 428.613 384.796 429.348 384.713C434.851 384.07 443.934 381.283 447.138 379.601C447.138 379.601 447.175 379.584 447.232 379.551C447.251 379.551 447.251 379.535 447.269 379.535C447.665 379.32 448.834 378.644 448.702 378.215C448.155 376.533 448.061 374.422 448.061 374.406C448.099 370.877 448.231 366.193 448.815 363.719C448.852 363.571 448.89 363.406 448.928 363.274C448.984 363.059 449.06 362.845 449.135 362.647C449.945 360.371 451.679 358.029 452.979 356.034L452.998 356.001C453.846 354.715 454.506 353.56 454.6 352.686C455.165 348.134 450.021 345.001 450.285 341.026C450.492 337.926 451.057 334.776 449.399 332.583C449.003 332.038 448.457 331.544 447.722 331.148C447.609 331.082 447.514 331.032 447.383 330.967C446.271 330.406 444.801 329.994 443.142 329.713C438.676 328.955 432.778 329.169 428.142 330.34C428.142 330.34 412.934 335.799 411.408 340.73C409.881 345.661 414.706 354.863 416.722 359.464C416.948 359.992 417.174 360.569 417.382 361.179C419.002 366.011 419.831 373.317 418.908 376.302C418.908 376.286 417.551 379.238 417.024 380.277Z" fill="#FBC006"/>
<path d="M417.137 382.008C417.137 382.008 419.53 384.614 427.03 384.862C427.143 384.862 427.238 384.862 427.351 384.862C427.935 384.862 428.613 384.812 429.348 384.73C428.048 384.581 426.672 384.235 425.881 383.559C424.147 382.041 425.692 374.406 426.126 372.196C426.522 370.118 425.768 365.797 427.445 365.302L427.841 362.977C427.841 362.977 429.198 364.445 432.326 363.917C436.095 363.274 437.734 362.631 439.091 362.301C440.844 361.856 442.879 361.641 446.478 360.883C450.398 360.041 450.869 359.266 450.869 359.266C451.566 358.145 452.32 357.056 452.961 356.067L452.98 356.034C452.98 356.034 451.133 358.029 448.457 358.524C445.8 359.019 434.342 361.608 431.873 361.278C429.386 360.948 426.729 357.865 426.729 357.865L417.382 361.196C419.002 366.028 419.832 373.334 418.908 376.319C418.908 376.319 417.57 379.271 417.024 380.326C416.666 380.969 416.44 381.448 417.137 382.008Z" fill="#F9A208"/>
<path d="M423.884 335.188C424.128 337.134 432.552 341.802 439.11 343.748C439.11 343.748 441.88 337.217 441.221 333.424C441.108 332.748 440.637 332.121 439.939 331.808C439.581 331.643 439.28 331.445 438.997 331.214C438.262 330.587 437.81 329.697 437.81 328.74C437.81 328.278 437.848 327.817 437.866 327.404C437.979 326.2 438.187 325.326 438.187 325.326L425.994 319.472C425.994 319.472 427.615 329.416 426.22 330.95C426.201 330.917 423.639 333.358 423.884 335.188Z" fill="#FFE1BD"/>
<path opacity="0.25" d="M426.936 329.548L429.687 326.827L430.61 326.365C429.574 325.607 428.651 324.683 428.085 323.562L437.847 327.388C437.809 327.8 437.79 328.245 437.79 328.723C437.79 329.68 438.224 330.554 438.978 331.197C438.978 331.197 437.828 331.098 437.037 329.993C436.547 329.317 433.871 328.014 431.628 327.058C431.59 328.08 431.025 330.307 429.141 331.379C426.182 333.061 422.846 332.698 422.846 332.698L426.936 329.548Z" fill="#EDA38C"/>
<path d="M447.722 307.928C447.722 307.928 448.928 314.755 446.893 320.758C444.858 326.761 442.069 328.476 440.486 328.559C438.903 328.641 429.537 327.421 426.842 321.649C424.148 315.877 424.713 309.313 425.919 305.899C427.125 302.485 433.89 299.566 438.639 300.292C443.369 301.017 447.27 303.953 447.722 307.928Z" fill="#FFE1BD"/>
<path d="M431.044 396.884V398.352L467.603 385.637L490.349 393.916L490.104 393.503H493.251V394.691C493.251 394.856 493.138 395.004 492.968 395.054L454.506 408.428C454.242 408.527 453.941 408.511 453.677 408.428L429.48 399.622C429.273 399.556 429.141 399.374 429.141 399.193V397.775L431.044 396.884Z" fill="#1C0058"/>
<path d="M430.14 399.275C430.14 399.473 430.272 399.638 430.422 399.638C430.573 399.638 430.705 399.473 430.705 399.275C430.705 399.077 430.573 398.912 430.422 398.912C430.253 398.912 430.14 399.077 430.14 399.275Z" fill="#48C8EF"/>
<path d="M431.553 400.017C431.397 400.017 431.27 399.855 431.27 399.655C431.27 399.454 431.397 399.292 431.553 399.292C431.709 399.292 431.836 399.454 431.836 399.655C431.836 399.855 431.709 400.017 431.553 400.017Z" fill="#48C8EF"/>
<path d="M432.477 400.067C432.477 400.265 432.608 400.43 432.759 400.43C432.91 400.43 433.042 400.265 433.042 400.067C433.042 399.869 432.91 399.704 432.759 399.704C432.608 399.688 432.477 399.852 432.477 400.067Z" fill="#48C8EF"/>
<path d="M467.603 384.169L493.251 393.503L454.091 407.125L429.424 398.137C429.066 398.005 429.066 397.577 429.424 397.445L467.603 384.169Z" fill="#5624C1"/>
<path d="M467.773 385.835L489.916 393.899C490.085 393.965 490.085 394.179 489.916 394.245L455.826 406.103C455.769 406.119 455.713 406.119 455.675 406.103L433.532 398.039C433.363 397.973 433.363 397.758 433.532 397.692L467.622 385.835C467.66 385.818 467.717 385.818 467.773 385.835Z" fill="#CEB8FF"/>
<path d="M458.312 388.44L464.965 390.865C465.059 390.898 465.059 391.029 464.965 391.062L454.449 394.724C454.204 394.806 453.903 394.806 453.658 394.724L447.043 392.316C446.93 392.266 446.93 392.134 447.043 392.085L457.521 388.44C457.766 388.341 458.049 388.358 458.312 388.44Z" fill="white"/>
<path d="M454.845 407.703C454.75 407.686 454.637 407.637 454.524 407.538C454.505 407.505 454.468 407.488 454.449 407.472L454.091 407.142L464.7 383.905C464.832 383.608 465.096 383.394 465.417 383.278L503.615 369.986C503.728 369.953 503.841 369.969 503.916 370.052L504.576 370.646L504.595 370.662L503.295 371.503L493.25 393.503L455.58 406.614L455.712 406.713L454.882 407.703H454.845Z" fill="#A87FFF"/>
<path d="M454.845 407.703L465.304 384.796C465.511 384.35 465.907 383.988 466.416 383.823L504.407 370.613C504.482 370.596 504.539 370.613 504.595 370.646L504.614 370.662C504.652 370.695 504.652 370.745 504.633 370.794L494.08 393.932C494.005 394.08 493.873 394.196 493.722 394.245L455.203 407.653C455.203 407.653 455.166 407.67 455.109 407.686C455.053 407.686 454.996 407.703 454.883 407.686H454.845V407.703Z" fill="#571FD0"/>
<path opacity="0.17" d="M479.136 390.056C479.513 391.062 481.209 391.458 482.924 390.963C484.639 390.469 485.713 389.248 485.336 388.242C484.959 387.236 483.263 386.84 481.548 387.335C479.833 387.83 478.759 389.05 479.136 390.056Z" fill="white"/>
<path d="M446.478 388.803L447.929 390.403C448.645 391.194 449.908 391.425 451.039 391.623L453.187 392.052C453.243 392.052 453.319 392.068 453.375 392.101C453.432 392.134 453.507 392.184 453.564 392.233L455.938 394.014C456.032 394.097 456.127 394.179 456.183 394.278C456.183 394.278 457.446 396.109 457.71 396.736C457.785 396.884 457.333 397.049 456.956 396.834C456.579 396.62 455.166 394.872 455.166 394.872C455.166 394.872 456.315 397.065 456.598 397.807C456.673 397.989 456.24 398.104 455.75 397.791C455.26 397.478 453.978 395.202 453.978 395.202C453.978 395.202 454.676 396.966 454.808 397.527C454.845 397.692 454.6 397.807 454.073 397.626C453.545 397.445 452.603 395.482 452.603 395.482L451.868 394.954L452.509 395.697C452.509 395.697 453.149 396.917 453.3 397.28C453.375 397.494 452.829 397.527 452.32 397.049C451.811 396.571 450.926 395.499 450.53 395.449C450.134 395.4 449.889 395.779 448.193 395.664C446.704 395.565 445.649 393.272 445.649 393.272L441.993 390.073L446.478 388.803Z" fill="#FFE1BD"/>
<path d="M413.123 351.614C413.123 351.614 418.569 366.028 421.283 370.464C425.259 376.978 438.224 387.368 443.124 391.425L443.143 391.442C443.633 391.837 444.273 392.035 444.895 392.052C445.8 392.052 446.704 391.673 447.213 390.963C447.383 390.733 447.458 390.518 447.496 390.32C447.59 389.858 447.402 389.496 447.307 389.347C447.307 389.347 447.288 389.331 447.288 389.314C447.251 389.281 447.251 389.248 447.251 389.248C445.63 387.104 436.547 375.098 432.966 370.464C431.252 368.271 429.989 366.819 429.103 365.879C428.783 362.73 427.746 353.527 426.163 347.359C426.163 347.326 426.163 347.31 426.163 347.31C426.05 346.831 425.918 346.386 425.787 345.957C424.637 341.999 422.281 339.756 420.378 338.52C418.343 337.2 415.573 336.953 413.462 338.173C413.066 338.404 412.708 338.668 412.388 338.998C411.559 339.806 410.993 340.927 410.767 342.395C410.503 344.292 411.785 347.92 413.123 351.614Z" fill="#2EED89"/>
<path d="M413.123 351.614C413.123 351.614 418.569 366.028 421.283 370.464C425.259 376.978 438.224 387.368 443.124 391.425L443.143 391.442C443.633 391.837 444.274 392.035 444.896 392.052C442.408 389.891 433.249 381.876 431.12 379.93C428.632 377.654 423.507 372.13 421.585 368.403C419.662 364.659 414.97 351.944 413.18 346.798C411.446 341.818 412.332 339.196 412.407 339.031C411.578 339.839 411.013 340.96 410.786 342.428C410.504 344.292 411.785 347.92 413.123 351.614Z" fill="#27E076"/>
<path d="M426.182 347.375C426.276 348.266 427.859 362.812 427.822 366.11C427.822 366.11 445.781 387.764 447.514 390.304C447.609 389.842 447.42 389.479 447.326 389.331C447.326 389.331 447.307 389.314 447.307 389.298C447.269 389.265 447.269 389.232 447.269 389.232C445.649 387.088 436.566 375.082 432.985 370.447C431.27 368.254 430.008 366.803 429.122 365.863C428.783 362.729 427.746 353.543 426.182 347.375Z" fill="#41F28D"/>
<path d="M413.123 351.614C413.123 351.614 418.569 366.028 421.283 370.464C425.259 376.978 438.224 387.368 443.124 391.425L443.143 391.442C443.633 391.837 444.273 392.035 444.895 392.052C445.8 392.052 446.704 391.673 447.213 390.963C447.383 390.733 447.458 390.518 447.496 390.32C447.59 389.858 447.402 389.496 447.307 389.347C447.307 389.347 447.288 389.331 447.288 389.314C447.251 389.281 447.251 389.248 447.251 389.248C445.63 387.104 436.547 375.098 432.966 370.464C431.252 368.271 429.989 366.819 429.103 365.879C428.783 362.73 427.746 353.527 426.163 347.359C426.163 347.326 426.163 347.31 426.163 347.31C426.05 346.831 425.918 346.386 425.787 345.957C424.637 341.999 422.281 339.756 420.378 338.52C418.343 337.2 415.573 336.953 413.462 338.173C413.066 338.404 412.708 338.668 412.388 338.998C411.559 339.806 410.993 340.927 410.767 342.395C410.503 344.292 411.785 347.92 413.123 351.614Z" fill="#FBC006"/>
<path d="M420.171 333.737C422.583 332.583 425.372 332.747 427.879 331.313L427.897 331.296C428.067 331.197 428.255 331.082 428.425 330.966C428.595 330.851 428.783 330.719 428.953 330.571C432.138 327.998 430.555 322.094 430.555 319.076V318.894C430.649 314.673 430.441 311.506 436.491 312.644C439.148 313.139 441.56 312.974 443.426 312.644C447.364 311.935 449.663 308.158 447.798 305.041C447.703 304.893 447.609 304.761 447.515 304.613C443.369 298.807 433.928 299.484 428.915 302.106C424.675 304.332 423.13 307.449 423.205 313.056C423.28 317.855 421.151 317.641 420.171 321.962C420.096 322.275 420.02 322.605 419.983 322.968C419.926 323.364 419.87 323.776 419.832 324.172C419.304 329.284 420.171 333.737 420.171 333.737Z" fill="#2A3049"/>
<path d="M420.17 333.737C422.583 332.583 425.372 332.748 427.878 331.313L427.897 331.296C428.066 331.197 428.255 331.082 428.424 330.967C428.594 330.851 428.782 330.719 428.952 330.571C432.137 327.998 430.554 322.094 430.554 319.076L427.803 317.509C427.803 317.509 427.501 319.142 427.803 320.56C428.104 321.995 428.651 322.061 429.197 323.71C429.744 325.359 429.555 328.46 427.671 329.664C425.786 330.868 422.846 330.587 421.961 331.033C421.961 331.033 420.001 327.718 420.17 321.929C420.095 322.242 420.02 322.572 419.982 322.935C419.925 323.331 419.869 323.743 419.831 324.139C419.304 329.284 420.17 333.737 420.17 333.737Z" fill="#22293F"/>
<path d="M431.327 316.833C431.327 316.833 430.366 315.448 428.858 315.662C427.351 315.876 427.539 317.822 427.954 319.439C428.519 321.533 431.044 321.302 431.044 321.302" fill="#FFE1BD"/>
<path d="M491.574 459.107C492.592 459.932 493.27 460.047 495.984 461.4C498.698 462.736 501.411 465.935 503.616 466.529C505.821 467.122 510.193 467.848 512.322 466.957C513.472 466.479 513.905 465.704 513.962 464.929C513.001 465.869 512.134 466.38 508.968 466.298C505.802 466.199 502.636 465.308 500.695 463.197C498.735 461.086 497.492 460.031 495.381 459.305C493.27 458.58 492.29 457.656 492.573 456.799C492.875 455.941 493.628 455.397 495.155 455.71C496.681 456.023 496.889 455.281 496.889 455.281C496.775 455.413 496.587 455.496 496.38 455.512C493.44 455.611 493.101 452.939 493.101 452.939C491.028 453.682 490.557 458.283 491.574 459.107Z" fill="#F9A208"/>
<path d="M446.535 460.196C446.479 460.658 447.27 462.29 448.778 463.758C450.511 466.76 452.226 469.266 453.187 469.876C454.318 470.602 456.447 471.361 458.69 471.938C461.441 472.647 465.21 471.311 465.38 469.299C462.365 471.625 455.713 469.431 454.582 468.442C453.451 467.452 453.168 465.984 451.491 464.467C449.814 462.933 447.911 461.136 448.834 459.701C449.494 458.695 451.585 458.893 452.17 459.091C452.754 459.289 453.15 458.942 453.15 458.942C453.018 458.942 452.886 458.926 452.754 458.876C452.264 458.695 450.021 456.963 450.304 455.71C450.304 455.71 449.739 455.529 449.286 456.056C448.872 456.584 446.686 458.81 446.535 460.196Z" fill="#F9A208"/>
<path d="M106.217 495.587L227.615 556.887L237.716 551.824L116.318 490.491L97.3785 486.104C97.0581 486.022 96.8132 486.368 97.0393 486.583L106.217 495.587Z" fill="url(#paint20_linear_0_1)"/>
<path d="M116.129 480.464L99.7525 477.051C99.1872 476.935 98.7726 477.529 99.1684 477.908L110.306 488.628L116.129 480.464Z" fill="#B4BBE1"/>
<path d="M99.1683 477.908L103.54 482.13C103.616 481.536 103.804 480.926 104.143 480.332C104.426 479.788 104.822 479.31 105.236 478.898C105.444 478.7 105.67 478.518 105.915 478.353L99.7336 477.084C99.1683 476.919 98.7726 477.545 99.1683 477.908Z" fill="#5624C1"/>
<path d="M229.951 538.581L228.406 540.973L224.411 547.124L111.549 489.469C111.304 489.37 111.078 489.238 110.871 489.106C110.287 488.71 109.853 488.182 109.571 487.539C109.043 486.319 109.099 484.752 109.891 483.301C110.192 482.757 110.569 482.262 110.984 481.866C112.152 480.728 113.716 480.134 115.186 480.266C115.601 480.299 116.016 480.398 116.392 480.563C116.468 480.58 116.524 480.613 116.6 480.646L116.845 480.778C116.882 480.794 116.901 480.811 116.939 480.827C116.958 480.844 116.977 480.86 117.014 480.877L229.951 538.581Z" fill="#5624C1"/>
<path d="M229.951 538.581L228.406 540.973L224.486 539.95L110.984 481.883C110.984 481.883 110.984 481.883 110.984 481.866C112.152 480.728 113.716 480.134 115.186 480.266C115.601 480.299 116.016 480.398 116.392 480.563C116.468 480.58 116.524 480.613 116.6 480.646L116.845 480.778C116.882 480.794 116.901 480.811 116.939 480.827C116.958 480.844 116.977 480.86 117.014 480.877L229.951 538.581Z" fill="#80B4FF"/>
<path d="M231.591 544.749C230.234 547.206 227.332 548.443 225.089 547.503C224.844 547.404 224.618 547.272 224.411 547.14C223.827 546.745 223.393 546.2 223.129 545.574C222.602 544.353 222.658 542.787 223.45 541.335C224.561 539.29 226.766 538.103 228.764 538.284C229.178 538.317 229.593 538.416 229.97 538.581C230.045 538.614 230.102 538.647 230.177 538.664L230.422 538.812C230.46 538.829 230.479 538.845 230.516 538.862C232.307 539.999 232.834 542.506 231.591 544.749Z" fill="#5624C1"/>
<path d="M148.75 558.767C151.765 560.383 153.122 559.723 156.759 560.927C160.415 562.115 167.387 565.941 170.308 566.205C173.229 566.485 176.866 565.083 177.903 562.906C178.939 560.713 176.037 559.047 172.814 557.596C169.573 556.128 161.96 551.214 161.96 551.214L151.444 550.356C152.085 550.933 152.538 551.378 152.538 551.378L153.555 556.31L148.674 557.167C148.693 557.151 147.977 557.926 148.75 558.767Z" fill="#595959"/>
<path d="M161.978 550.34C161.978 550.34 169.592 555.271 172.833 556.722C176.055 558.173 178.958 559.839 177.921 562.032C176.885 564.226 173.248 565.611 170.327 565.33C167.406 565.05 160.433 561.224 156.777 560.037C153.121 558.849 151.783 559.492 148.749 557.893C147.638 557.299 147.204 552.764 149.409 549.301" fill="#5624C1"/>
<path d="M114.169 526.987C114.169 527.152 114.207 527.284 114.264 527.4C114.772 528.505 115.62 529.131 118.221 530.5C120.84 531.869 122.631 535.563 124.817 537.278C127.003 539.01 129.773 540.61 132.392 540.708C134.993 540.791 138.215 539.241 138.536 537.509C138.856 535.777 137.593 535.233 136.35 534.508C135.106 533.782 131.243 530.681 130.527 529.857C129.792 529.032 128.133 526.575 128.133 526.575L119.389 520.275C118.127 520.852 117.109 521.644 116.318 522.502C116.713 522.452 117.071 522.436 117.147 522.502C117.316 522.65 118.127 524.53 118.127 524.53C118.127 524.53 117.448 525.503 117.222 525.586C116.977 525.651 115.074 525.767 115.074 525.767C115.074 525.767 114.282 526.262 114.169 526.987Z" fill="#595959"/>
<path d="M128.453 525.882C128.453 525.882 130.111 528.34 130.846 529.164C131.581 529.989 135.426 533.089 136.688 533.815C137.932 534.541 139.195 535.085 138.874 536.817C138.554 538.548 135.332 540.098 132.731 540.016C130.13 539.917 127.341 538.334 125.155 536.602C122.969 534.871 121.179 531.176 118.56 529.808C115.959 528.439 115.13 527.829 114.602 526.724C114.075 525.619 115.639 521.43 119.709 519.599" fill="#5624C1"/>
<path d="M118.748 519.335C120.915 526.443 129.584 526.08 129.584 526.08C129.584 526.08 136.933 519.335 144.566 511.535C149.936 506.076 155.439 500.089 158.643 495.571C159.359 494.548 159.962 493.608 160.433 492.767C161.092 491.563 161.677 489.947 162.223 488.034C166.218 474.082 167.519 444.38 167.519 444.38L144.811 454.226L145.018 485.461C145.018 485.461 142.851 487.226 140.175 489.93C138.554 491.58 136.745 493.559 135.124 495.702C130.752 501.475 118.748 519.335 118.748 519.335Z" fill="#3A3D51"/>
<path d="M118.748 519.335C120.915 526.443 129.584 526.08 129.584 526.08C129.584 526.08 136.933 519.335 144.565 511.534L143.227 498.687L141.023 489.93H140.156C138.535 491.579 136.726 493.558 135.105 495.702C130.752 501.474 118.748 519.335 118.748 519.335Z" fill="#242733"/>
<path d="M150.031 463.791C150.031 463.791 153.197 477.875 153.668 477.957C154.026 478.007 157.136 489.798 158.625 495.571C159.341 494.548 159.944 493.608 160.415 492.767C161.074 491.563 161.659 489.947 162.205 488.034C160.773 478.452 156.307 457.211 156.307 457.211H152.217L150.031 463.791Z" fill="#333647"/>
<path d="M125.608 458.381C126.588 462.686 133.277 478.386 138.158 490.013C141.23 497.351 143.077 504.987 143.717 512.771C144.829 526.377 147.166 546.893 147.958 550.867C147.958 550.867 148.73 551.411 150.012 551.956C152.744 553.094 157.794 554.182 162.732 549.96C162.732 549.96 162.901 506.372 162.675 498.72C162.468 491.068 154.139 459.882 154.139 459.882C154.139 459.882 167.047 456.238 167.462 444.396L131.713 448.437L125.57 449.13C125.608 449.13 124.175 451.95 125.608 458.381Z" fill="#3A3D51"/>
<path d="M125.608 458.381C126.588 462.686 133.278 478.386 138.158 490.013C141.23 497.351 143.077 504.987 143.718 512.771C144.829 526.377 147.166 546.893 147.958 550.867C147.958 550.867 148.73 551.411 150.012 551.956C149.201 541.253 146.695 508.038 146.205 501.854C145.659 494.449 139.836 482.327 136.293 471.575C132.75 460.822 133.372 449.872 133.372 449.872L131.713 448.42L125.57 449.113C125.608 449.13 124.176 451.95 125.608 458.381Z" fill="#333647"/>
<path d="M123.762 449.196C123.762 449.196 123.517 449.921 123.347 450.927C123.291 451.257 123.441 451.571 123.762 451.752C124.478 452.164 126.098 452.989 129.246 454.044C132.807 455.232 137.537 455.413 140.948 455.133C142.38 455.017 156.439 452.296 164.843 447.646C166.973 446.458 168.066 444.265 167.651 442.088V442.038C167.369 440.587 123.762 449.196 123.762 449.196Z" fill="#2268BC"/>
<path d="M117.185 402.409C118.259 406.268 119.559 410.094 120.897 413.903C121.519 415.701 122.273 417.482 123.027 419.247C125.722 425.613 128.548 431.995 126.928 438.938C126.287 441.659 124.685 445.073 125.043 447.86C125.269 449.526 125.533 450.944 128.887 452.824C129.566 453.22 130.339 453.517 131.111 453.731L131.563 453.847L131.771 453.896C132.487 454.077 133.203 454.209 133.919 454.308C135.672 454.572 137.443 454.622 139.214 454.49C140.044 454.44 140.873 454.341 141.683 454.209C146.79 453.368 156.325 451.323 164.561 446.854C164.579 446.838 164.617 446.838 164.617 446.838C167.18 445.485 168.575 442.22 167.764 437.718C167.368 435.458 166.747 432.308 166.219 429.752C165.616 426.751 165.352 423.683 165.465 420.632C165.522 419.263 165.559 417.878 165.597 416.526C167.105 408.065 172.532 390.914 169.894 386.296C168.198 383.377 165.164 378.413 165.164 378.413C165.164 378.413 158.53 376.797 155.082 376.599C154.592 376.583 154.121 376.566 153.631 376.566C150.842 377.044 147.921 377.44 145.037 377.984C143.172 378.331 141.325 378.71 139.516 379.205C138.969 379.353 138.461 379.502 137.933 379.667C137.5 379.815 137.066 379.947 136.652 380.095C134.013 380.986 132.166 381.745 130.697 382.371C128.887 383.163 127.663 383.823 126.362 384.565C126.287 384.598 126.23 384.631 126.155 384.68C124.685 385.505 122.48 386.89 120.502 388.44C118.579 389.941 116.883 391.574 116.318 392.975C116.167 393.355 115.998 393.932 115.847 394.724C115.828 394.773 115.828 394.823 115.828 394.872C115.564 397.329 116.525 400.034 117.185 402.409Z" fill="#5624C1"/>
<path d="M115.885 394.707L118.919 395.037C119.729 389.628 137.631 381.431 137.631 381.431L137.952 379.65C137.518 379.799 137.085 379.93 136.67 380.079C134.032 380.969 132.185 381.728 130.715 382.355C128.906 383.146 127.681 383.806 126.381 384.548C126.306 384.581 126.249 384.614 126.174 384.664C124.704 385.488 122.499 386.873 120.52 388.424C118.598 389.924 116.902 391.557 116.337 392.959C116.186 393.338 116.035 393.915 115.885 394.707Z" fill="#5624C1"/>
<path d="M138.065 371.008V377.786C138.065 377.786 145.999 382.8 150.201 382.074C152.01 381.761 152.971 379.732 152.595 376.863L148.769 376.187L138.065 371.008Z" fill="#F2BA88"/>
<path d="M151.162 381.679L155.666 386.313C155.666 386.313 155.836 380.755 152.82 377.919C149.881 375.148 149.768 377.539 149.768 377.539C149.768 377.539 152.538 380.343 151.162 381.679Z" fill="white"/>
<path d="M159.963 361.987C159.963 361.987 160.603 367.66 159.265 372.855C157.927 378.05 157.513 379.221 155.119 380.145C152.726 381.068 150.578 381.167 146.564 378.908C142.55 376.648 140.345 372.954 140.345 372.954C140.345 372.954 139.78 373.284 138.329 371.866C136.086 369.639 135.653 368.535 135.653 365.517C135.653 362.499 136.52 358.705 139.196 354.78C141.872 350.839 150.107 352.109 153.838 353.774C157.569 355.457 159.246 358.607 159.963 361.987Z" fill="#FFD1A4"/>
<path d="M163.223 362.235C159.115 368.584 148.882 364.412 148.882 364.412C148.128 367.166 145.923 367.43 144.849 367.941C143.794 368.452 143.568 371.124 143.568 371.124H142.606C142.606 371.124 142.569 368.452 142.079 367.1C141.589 365.764 138.724 364.725 137.292 366.688C135.992 368.452 137.481 370.415 138.348 371.866C138.63 374.175 138.084 375.148 138.084 375.148C138.084 375.148 136.52 373.795 135.483 371.041C134.428 368.287 133.655 362.499 135.483 356.298C135.672 355.655 135.954 355.061 136.331 354.517C139.478 349.866 148.43 348.975 151.954 350.014C154.988 350.921 162.507 353.906 163.901 358.161C164.297 359.398 164.146 360.783 163.223 362.235Z" fill="#2A3049"/>
<path d="M163.524 488.958C163.468 489.287 163.411 489.617 163.355 489.931C163.411 489.551 163.468 489.238 163.524 488.958Z" fill="#3A3A3A"/>
<path d="M138.083 377.094C138.083 377.094 137.593 377.654 137.216 378.496C136.896 379.188 136.67 380.062 136.67 380.062C136.67 380.062 139.911 385.9 148.825 388.407L149.843 382.091C149.824 382.124 142.022 381.184 138.083 377.094Z" fill="white"/>
<path d="M163.223 362.235C159.115 368.584 148.882 364.412 148.882 364.412C148.128 367.166 145.923 367.43 144.849 367.941C143.794 368.452 143.568 371.124 143.568 371.124H142.606C142.606 371.124 142.569 368.452 142.079 367.1C141.589 365.764 138.724 364.725 137.292 366.688C135.992 368.452 137.481 370.415 138.348 371.866C138.63 374.175 138.084 375.148 138.084 375.148C138.084 375.148 136.52 373.795 135.483 371.041C134.428 368.287 133.655 362.499 135.483 356.298C135.672 355.655 135.954 355.061 136.331 354.517C138.046 355.803 143.002 359.316 148.185 361.229C154.629 363.587 160.132 363.208 161.79 362.037C164.184 360.338 163.901 358.161 163.901 358.161C164.297 359.398 164.146 360.783 163.223 362.235Z" fill="#1C2235"/>
<path d="M128.152 458.695C128.152 458.695 128.397 462.092 128.755 462.851C128.906 463.28 129.264 463.676 129.528 464.055C129.98 464.731 132.015 467.914 132.317 469.778C132.505 470.948 131.657 474.395 131.243 475.071C131.205 475.154 131.148 475.22 131.054 475.269C130.96 475.319 130.847 475.319 130.734 475.302C129.452 475.137 129.377 473.752 129.49 472.878C129.547 472.383 129.565 470.866 129.188 470.899C127.719 471.691 127.549 475.038 127.304 476.358C126.965 478.139 128.114 481.701 127.116 481.652C126.72 481.635 123.592 480.464 122.932 479.293C121.839 478.122 121.217 476.787 121.01 475.253C120.746 473.406 121.274 471.757 121.594 470.058C121.801 468.887 122.141 467.65 122.31 466.05C122.423 465.061 121.99 461.136 121.99 461.136L128.152 458.695Z" fill="#FFD1A4"/>
<path d="M126.927 438.938C126.286 441.659 124.685 445.073 125.043 447.86C125.269 449.526 125.533 450.944 128.887 452.824C129.565 453.22 130.338 453.517 131.111 453.731L131.563 453.846C131.996 443.589 130.47 426.718 130.47 426.718C132.976 419.065 132.317 401.832 132.317 401.832C132.317 401.832 123.912 410.407 123.912 411.133C123.912 411.545 123.441 415.751 123.026 419.247C125.721 425.613 128.548 431.995 126.927 438.938Z" fill="#5624C1"/>
<path d="M112.492 427.839L120.991 462.554C120.991 462.554 121.368 462.752 122.122 462.9C123.46 463.181 125.985 463.28 129.679 461.713C129.679 461.713 128.868 434.584 127.832 426.619C127.832 426.619 133.504 407.158 132.091 398.401C131.186 392.761 125.684 390.815 121.255 391.458C118.824 391.821 116.695 392.959 115.866 394.707C115.884 394.707 110.834 422.825 112.492 427.839Z" fill="#5624C1"/>
<path d="M171.118 414.645C171.137 414.629 171.156 414.629 171.175 414.612C171.175 414.612 165.559 404.717 164.108 400.792L165.408 378.496C165.408 378.496 170.44 379.304 174.906 387.5C179.391 395.713 188.964 415.948 187.834 419.329C187.834 419.329 181.125 414.596 171.175 414.645C171.156 414.645 171.137 414.645 171.118 414.645Z" fill="#5624C1"/>
<path d="M140.043 409.385V435.903C140.043 435.903 140.043 435.92 140.043 435.936C140.043 436.052 140.062 436.481 140.307 436.613L140.326 436.629C140.364 436.646 140.382 436.662 140.401 436.679L140.872 436.959L140.929 436.843L163.316 425.415V397.164L163.806 396.307L163.316 396.059L141.475 407.191C140.59 407.653 140.043 408.494 140.043 409.385Z" fill="#97A2CE"/>
<path d="M163.806 396.323L141.965 407.472C141.08 407.917 140.533 408.758 140.533 409.665V436.431C140.533 436.942 141.174 437.256 141.664 437.008L163.806 425.712V396.323Z" fill="#B4BBE1"/>
<path d="M170.684 399.786L163.806 396.323L163.222 396.62L163.486 403.464L170.684 399.786Z" fill="#97A2CE"/>
<path d="M163.222 396.62L170.044 400.116V404.866L163.222 400.562V396.62Z" fill="#8792B2"/>
<path d="M163.222 397.428L169.234 400.529L170.044 428.878L149.089 439.812L142.304 436.233C141.701 435.92 141.343 435.343 141.343 434.733V409.616C141.343 408.972 141.739 408.362 142.38 408.049L163.222 397.428Z" fill="white"/>
<path d="M147.411 413.112V439.631C147.411 439.631 147.411 439.647 147.411 439.663C147.411 439.779 147.43 440.208 147.675 440.34L147.694 440.356C147.732 440.373 147.751 440.389 147.77 440.406L148.241 440.686L148.297 440.571L170.685 429.142V400.891L171.175 400.034L170.685 399.786L148.844 410.918C147.958 411.38 147.411 412.221 147.411 413.112Z" fill="#97A2CE"/>
<path d="M171.175 400.034L149.334 411.182C148.448 411.644 147.901 412.468 147.901 413.376V440.142C147.901 440.653 148.542 440.966 149.032 440.719L171.175 429.422V400.034Z" fill="#B4BBE1"/>
<path d="M139.007 426.173C139.139 425.365 139.892 425.101 139.892 425.101L143.379 426.503C143.134 426.256 142.399 425.761 142.116 425.514C141.362 424.854 141.758 424.178 142.116 424.112C142.474 424.046 145.64 425.299 146.507 425.745C146.846 425.926 147.317 426.421 147.581 426.751C148.259 427.361 148.938 427.443 149.334 427.427L152.424 426.454L155.703 428.647L154.912 431.929C154.912 431.929 149.032 434.799 147.261 434.403C141.306 433.1 139.591 430.527 139.591 430.527C139.101 429.851 138.875 426.981 139.007 426.173Z" fill="#FFD1A4"/>
<path d="M153.987 432.754C153.987 432.754 154.251 432.325 154.345 431.764C154.628 429.851 153.554 426.586 150.539 426.701C150.539 426.701 161.77 419.313 171.136 414.629C171.701 414.431 177.091 414.497 181.199 415.734C185.175 416.938 187.851 419.313 187.851 419.313C186.683 422.71 153.987 432.754 153.987 432.754Z" fill="#5624C1"/>
<path d="M112.492 427.839L120.991 462.554C120.991 462.554 121.368 462.752 122.122 462.9C121.575 460.41 115.036 430.214 114.753 425.085C114.433 419.741 121.274 391.475 121.274 391.475C118.843 391.837 116.713 392.975 115.884 394.723C115.884 394.707 110.834 422.825 112.492 427.839Z" fill="#5624C1"/>
<path opacity="0.55" d="M193.054 423.601C193.054 423.601 193.054 423.601 193.054 423.584L193.261 417.73C193.261 417.73 193.261 417.713 193.261 417.68V417.433L193.28 417.466C193.864 406.631 211.314 398.352 232.458 398.896C253.734 399.424 270.694 408.742 270.318 419.659L270.129 425.58C269.978 429.736 267.378 433.496 263.043 436.563L271.184 440.999C272.221 440.571 273.314 440.356 274.407 440.455C274.972 440.505 275.5 440.637 276.046 440.851C276.141 440.884 276.216 440.933 276.31 440.983L276.631 441.148C276.687 441.164 276.725 441.197 276.762 441.23C276.819 441.263 276.819 441.28 276.875 441.313L317.26 463.032C311.475 464.715 305.538 466.727 299.508 469.101L269.432 452.956C269.093 452.808 268.791 452.643 268.527 452.428C267.736 451.917 267.152 451.175 266.756 450.334C266.36 449.443 266.266 448.437 266.341 447.382L255.562 441.511C255.374 441.428 255.204 441.329 255.016 441.23C254.865 441.115 254.714 440.966 254.601 440.835C247.986 443.275 239.789 444.628 230.913 444.413C210.221 443.869 193.638 435.079 193.016 424.541L192.997 424.557L193.054 423.601Z" fill="#B4BBE1"/>
<path d="M274.652 403.019C274.614 404.058 274.426 405.097 274.105 406.086C270.883 415.932 253.941 423.106 233.796 422.595C213.651 422.083 197.237 414.035 194.675 404.041C194.411 403.035 194.335 394.658 194.335 394.658C194.335 394.658 204.888 376.286 235.191 376.649C253.527 376.879 274.652 396.719 274.652 396.719C274.652 396.719 274.708 401.04 274.652 403.019ZM268.263 402.854C268.339 400.364 267.397 397.972 265.625 395.779C260.594 389.562 248.872 385.01 235.059 384.647C221.265 384.284 209.26 388.226 203.814 394.179C201.892 396.274 200.799 398.616 200.705 401.106C200.385 410.671 215.234 414.398 233.891 414.877C252.566 415.371 267.943 412.436 268.263 402.854Z" fill="#5624C1"/>
<path opacity="0.2" d="M269.809 396.719C269.488 406.482 253.47 414.002 234.023 413.508C214.594 413.013 199.103 404.685 199.442 394.905C199.763 385.142 215.781 377.622 235.229 378.116C254.658 378.628 270.148 386.956 269.809 396.719Z" fill="url(#paint21_linear_0_1)"/>
<path opacity="0.2" d="M254.865 381.547C219.814 382.223 209.279 397.313 206.358 405.855C201.892 402.755 199.311 398.962 199.442 394.905C199.782 385.142 215.687 377.968 235.134 378.463C242.277 378.66 249.4 379.584 254.865 381.547Z" fill="white"/>
<path opacity="0.6" d="M266.342 397.098C266.059 405.74 251.869 412.403 234.664 411.957C217.458 411.512 203.758 404.157 204.06 395.499C204.079 395.251 204.079 395.004 204.116 394.757C205.077 402.871 218.269 409.566 234.664 409.995C251.341 410.44 265.192 404.19 266.266 395.927C266.342 396.307 266.36 396.703 266.342 397.098Z" fill="white"/>
<path d="M271.109 390.634L261.988 382.338L235.7 376.649L209.072 380.97L199.423 388.77L196.917 393.635L200.724 394.806C200.724 394.806 205.209 378.974 235.605 379.766C265.983 380.541 269.413 396.587 269.413 396.587L273.295 395.614L271.109 390.634Z" fill="#5624C1"/>
<path d="M274.652 396.719C274.615 397.758 274.426 398.797 274.106 399.787C270.883 409.632 253.942 416.806 233.797 416.295C213.652 415.784 197.238 407.736 194.675 397.742C194.411 396.736 194.298 395.697 194.336 394.658C194.713 383.278 213.011 374.505 235.191 375.082C257.372 375.643 275.029 385.34 274.652 396.719ZM268.264 396.571C268.339 394.08 267.397 391.689 265.626 389.496C260.594 383.278 248.873 378.727 235.059 378.364C221.265 378.001 209.261 381.942 203.815 387.896C201.893 389.99 200.8 392.332 200.705 394.823C200.385 404.388 215.235 412.551 233.891 413.029C252.566 413.508 267.944 406.136 268.264 396.571Z" fill="#81C5E8"/>
<path d="M274.652 396.719C274.615 397.758 274.426 398.797 274.106 399.787C270.883 409.632 253.942 416.806 233.797 416.295C213.652 415.784 197.238 407.736 194.675 397.742C194.411 396.736 194.298 395.697 194.336 394.658C194.713 383.278 213.011 374.505 235.191 375.082C257.372 375.643 275.029 385.34 274.652 396.719ZM268.264 396.571C268.339 394.08 267.397 391.689 265.626 389.496C260.594 383.278 248.873 378.727 235.059 378.364C221.265 378.001 209.261 381.942 203.815 387.896C201.893 389.99 200.8 392.332 200.705 394.823C200.385 404.388 215.235 412.551 233.891 413.029C252.566 413.508 267.944 406.136 268.264 396.571Z" fill="#80B4FF"/>
<path d="M279.457 421.094L278.685 422.083H278.666L275.217 426.536L274.331 427.674L259.237 419.428C259.029 419.346 258.86 419.247 258.69 419.131C258.219 418.818 257.861 418.373 257.654 417.861C257.541 417.614 257.465 417.334 257.428 417.053C257.296 416.229 257.446 415.322 257.918 414.431C258.502 413.359 259.463 412.568 260.499 412.188C261.065 411.99 261.649 411.908 262.214 411.957C262.553 411.99 262.874 412.056 263.194 412.188C263.251 412.205 263.307 412.238 263.364 412.254L263.571 412.37C263.59 412.386 263.628 412.403 263.646 412.419L279.457 421.094Z" fill="#CDD5F7"/>
<path d="M279.457 421.094L278.685 422.083H278.666L260.499 412.221C261.065 412.023 261.649 411.941 262.214 411.99C262.553 412.023 262.874 412.089 263.194 412.221C263.251 412.238 263.307 412.271 263.364 412.287L263.571 412.403C263.59 412.419 263.628 412.436 263.646 412.452L279.457 421.094Z" fill="white"/>
<path d="M275.255 426.553L274.369 427.69L259.275 419.445C259.067 419.362 258.898 419.263 258.728 419.148C258.257 418.834 257.899 418.389 257.692 417.878C257.579 417.631 257.503 417.35 257.465 417.07L275.255 426.553Z" fill="#B4BBE1"/>
<path d="M327.512 444.166L325.326 447.547L319.691 456.238L273.766 431.401H273.747C273.389 431.253 273.088 431.088 272.805 430.874C271.976 430.313 271.354 429.554 270.977 428.664C270.223 426.932 270.318 424.739 271.429 422.677C271.844 421.902 272.372 421.226 272.975 420.649C272.975 420.649 272.975 420.649 272.975 420.632C274.633 419.032 276.838 418.175 278.911 418.373C279.495 418.422 280.079 418.554 280.607 418.785C280.701 418.818 280.795 418.868 280.889 418.917L281.248 419.115C281.304 419.131 281.342 419.164 281.379 419.181C281.417 419.197 281.436 419.23 281.474 419.247L327.512 444.166Z" fill="#5624C1"/>
<path d="M327.512 444.166L325.326 447.547L319.804 446.095L272.975 420.665C272.975 420.665 272.975 420.665 272.975 420.649C272.975 420.649 272.975 420.649 272.975 420.632C274.633 419.032 276.838 418.175 278.911 418.373C279.495 418.422 280.079 418.554 280.607 418.785C280.701 418.818 280.795 418.868 280.889 418.917L281.248 419.115C281.304 419.131 281.342 419.164 281.379 419.181C281.417 419.197 281.436 419.23 281.474 419.247L327.512 444.166Z" fill="#80B4FF"/>
<path d="M329.829 452.874C327.926 456.353 323.818 458.085 320.652 456.766H320.633C320.294 456.617 319.974 456.452 319.672 456.238C318.862 455.677 318.24 454.919 317.844 454.028C317.09 452.296 317.185 450.103 318.296 448.058C319.879 445.172 322.97 443.49 325.778 443.754C326.362 443.803 326.946 443.935 327.474 444.166C327.568 444.199 327.662 444.248 327.757 444.298L328.115 444.496C328.171 444.512 328.209 444.545 328.246 444.562C330.828 446.161 331.563 449.691 329.829 452.874Z" fill="#5624C1"/>
<path d="M377.959 546.629V548.361C377.959 548.707 378.016 549.037 378.129 549.367C378.129 549.367 378.129 549.367 378.129 549.383C378.148 549.466 378.185 549.515 378.223 549.598C378.261 549.647 378.28 549.713 378.336 549.812C378.374 549.862 378.43 549.928 378.468 550.027C378.581 550.142 378.675 550.291 378.807 550.439C378.864 550.521 378.92 550.587 378.977 550.67C379.033 550.719 379.109 550.785 379.165 550.818C379.26 550.901 379.354 550.983 379.448 551.082C379.938 551.478 380.635 551.94 381.578 552.335C384.593 553.655 387.777 554.628 390.001 555.782C390.717 556.162 392.696 557.316 392.696 557.316C392.696 557.316 394.298 558.454 395.56 559.13C396.861 559.806 399.65 560.977 402.401 560.73C405.115 560.466 406.415 558.949 406.547 558.025L406.509 556.574L396.427 553.292L377.959 546.629Z" fill="#3A3A3A"/>
<path d="M395.617 546.217C395.617 546.217 392.526 546.101 387.476 545.343C382.426 544.584 378.958 544.37 378.299 545.755C377.658 547.091 377.526 548.526 382.03 551.214C386.534 553.919 390.02 554.199 393.638 556.739C396.314 558.619 398.726 559.064 401.402 559.229C404.097 559.394 405.906 558.487 406.49 557.53C407.847 555.304 406.434 551.082 406.434 551.082L395.617 546.217Z" fill="#5624C1"/>
<path d="M359.717 557.25V558.85C359.698 559.592 360.169 560.252 360.904 560.614C362.638 561.422 366.162 562.775 371.363 563.336C376.414 563.88 378.129 564.061 378.129 564.061C378.129 564.061 380.333 564.21 381.916 564.375C383.518 564.556 386.138 564.49 387.287 563.616C387.57 563.385 387.758 563.22 387.928 563.072C387.928 563.072 387.928 563.055 387.947 563.039C387.947 563.039 387.966 563.006 387.984 562.989C388.079 562.907 388.135 562.824 388.192 562.725C388.361 562.429 388.399 562.049 388.437 561.901C388.437 561.851 388.437 561.818 388.437 561.818L388.418 561.159V560.862L384.705 560.631C384.687 560.631 384.687 560.631 384.687 560.631L382.859 560.515L381.144 560.416L379.561 560.317L359.717 557.25Z" fill="#3A3A3A"/>
<path d="M374.51 553.16C374.51 553.16 372.306 554.974 369.705 554.974C367.104 554.974 362.035 554.925 360.735 555.716C360.094 556.112 359.755 556.59 359.717 557.134C359.679 557.679 359.924 558.272 360.414 558.899C361.394 560.152 367.952 562.032 372.89 562.362C377.827 562.709 378.091 562.643 380.428 562.989C382.764 563.335 385.195 563.484 386.665 562.857C389.209 561.752 389.379 558.388 387.834 556.161C386.27 553.952 374.51 553.16 374.51 553.16Z" fill="#5624C1"/>
<path d="M401.458 392.299L401.854 393.124L401.232 395.829L391.358 400.182L390.773 400.116L389.19 399.951L386.703 399.671V396.67C386.703 395.136 385.742 393.635 384.14 393.025C384.084 392.992 384.027 392.975 384.027 392.975C383.481 392.794 382.915 392.481 382.35 391.986L382.199 391.854C380.296 390.089 378.6 386.115 379.09 377.44C379.184 375.923 379.58 373.301 380.371 371.965C381.803 369.557 384.856 367.957 391.15 369.458C401.647 371.998 406.226 376.17 406.754 379.766C407.3 383.361 401.458 392.299 401.458 392.299Z" fill="#FFD1A4"/>
<path d="M386.721 399.655V396.653C386.721 395.12 385.76 393.619 384.159 393.009C384.667 393.206 386.269 393.883 388.38 394.872C389.228 395.268 389.209 397.659 389.209 399.935L386.721 399.655Z" fill="#F2BA88"/>
<path d="M378.468 410.985L363.449 403.25L364.428 410.111L373.267 418.422L378.468 410.985Z" fill="#FFD1A4"/>
<path d="M369.893 415.536L351.049 424.013C350.446 424.293 349.692 424.013 349.503 423.436L340.345 397.775C340.024 396.835 340.496 395.829 341.457 395.4L358.963 387.533C359.887 387.121 360.999 387.55 361.319 388.457L370.534 414.25C370.685 414.745 370.421 415.289 369.893 415.536Z" fill="#0A2982"/>
<path d="M368.82 414.827L351.652 422.595C351.2 422.809 350.634 422.595 350.484 422.166L341.89 398.154C341.551 397.016 341.608 396.521 342.908 395.961L359.246 388.572C359.661 388.391 360.151 388.572 360.283 388.985L369.215 413.986C369.366 414.3 369.178 414.662 368.82 414.827Z" fill="#5624C1"/>
<g opacity="0.5">
<path opacity="0.5" d="M343.813 397.395L344.152 398.319L359.266 391.491L358.964 390.617C358.964 390.601 358.945 390.584 358.945 390.568L343.813 397.395Z" fill="#6CE3FF"/>
<path opacity="0.5" d="M344.924 400.413L345.245 401.32L360.358 394.526L360.038 393.619L344.924 400.413Z" fill="#6CE3FF"/>
<path opacity="0.5" d="M345.998 403.431L346.318 404.355L361.47 397.544L361.112 396.62L345.998 403.431Z" fill="#6CE3FF"/>
<path opacity="0.5" d="M347.072 406.449L347.411 407.373L362.544 400.545L362.205 399.638L347.072 406.449Z" fill="#6CE3FF"/>
<path opacity="0.5" d="M348.165 409.5L348.486 410.408L363.618 403.58L363.298 402.673L348.165 409.5Z" fill="#6CE3FF"/>
<path opacity="0.5" d="M349.239 412.502L349.56 413.409L364.711 406.614L364.391 405.691L349.239 412.502Z" fill="#6CE3FF"/>
<path opacity="0.5" d="M350.314 415.536L350.653 416.443L365.785 409.632L365.465 408.725L350.314 415.536Z" fill="#6CE3FF"/>
<path opacity="0.5" d="M351.407 418.554L351.727 419.478L366.859 412.65L366.539 411.727L351.407 418.554Z" fill="#6CE3FF"/>
</g>
<path d="M354.347 419.115L350.973 421.572L350.333 422.034C350.333 422.034 349.56 419.198 348.184 418.126C347.713 417.763 346.338 417.268 345.565 417.087C345.113 416.971 344.717 416.757 344.434 416.427C343.775 415.635 342.795 413.904 343.304 410.902C343.398 410.325 343.567 409.929 343.737 409.649C343.756 409.632 343.756 409.632 343.756 409.632C344.171 409.006 344.698 409.022 344.698 409.022C344.698 409.022 346.978 410.44 347.638 410.869C348.184 411.216 348.882 411.908 349.409 411.397C349.692 411.133 348.034 409.286 347.563 408.445C347.11 407.604 347.996 406.697 348.392 407.01C348.769 407.34 351.105 409.913 352.066 412.09C353.028 414.283 354.347 419.115 354.347 419.115Z" fill="#FFD1A4"/>
<path d="M351.746 419.478L350.973 421.589L350.333 422.051C350.333 422.051 349.56 419.214 348.184 418.142C347.713 417.779 346.338 417.285 345.565 417.103C345.113 416.988 344.717 416.773 344.434 416.444C343.775 415.652 342.795 413.92 343.304 410.919C343.398 410.342 343.567 409.946 343.737 409.665C343.756 409.649 343.756 409.649 343.756 409.649C343.756 409.649 343.775 410.16 344.717 410.902C345.659 411.628 347.035 412.288 347.694 412.65C348.335 413.013 349.353 414.349 349.994 415.668C350.653 417.004 351.746 419.478 351.746 419.478Z" fill="#F2BA88"/>
<path d="M411.578 474.428C409.242 485.61 407.564 499.479 407.564 499.479C407.564 499.479 411.465 527.251 407.074 551.445C406.886 552.583 406.434 555.007 404.757 555.947C403.795 556.458 401.289 556.821 399.329 555.914C399.254 555.865 399.16 555.848 399.084 555.799C392.526 552.665 393.224 548.592 392.281 545.92C392.3 535.151 393.582 508.682 390.981 502.86L388.644 479.392L389.492 462.62H412.954V462.67L413.067 462.62C413.067 462.637 415.065 467.139 411.578 474.428Z" fill="#3A3A3A"/>
<path d="M404.417 474.89C402.212 481.239 399.367 497.847 398.764 501.887C398.764 501.887 400.95 533.848 399.084 555.815C392.526 552.682 393.223 548.608 392.281 545.937C392.3 535.167 393.581 508.698 390.981 502.877L388.644 479.409L389.492 462.637H405.623C405.623 462.637 406.622 468.524 404.417 474.89Z" fill="#2D2D2D"/>
<path d="M402.909 468.178C402.174 471.064 400.723 475.088 397.84 478.914C397.388 479.508 396.992 480.118 396.596 480.728C396.521 481.009 395.371 484.769 393.958 489.815C392.526 494.862 390.811 501.178 389.586 506.571C390.264 513.316 392.168 536.965 388.531 557.448C388.267 558.899 387.08 560.103 385.44 560.499C384.686 560.68 383.819 560.796 382.858 560.746C382.161 560.697 381.445 560.581 380.691 560.301C376.847 558.883 374.077 553.506 374.077 553.506C374.077 553.506 373.982 519.5 371.966 510.578C371.57 508.863 371.382 507.148 371.25 505.417C370.873 499.958 370.195 489.98 369.987 485.808C369.592 477.694 369.516 470.899 369.837 467.865L389.058 468.079L402.909 468.178Z" fill="#3A3A3A"/>
<path d="M389.077 468.03C388.983 469.036 388.908 469.695 388.908 469.695C388.908 469.695 388.719 473.934 386.269 480.283C383.819 486.632 381.388 501.706 381.125 507.362C380.861 512.557 384.027 537.328 382.84 560.697C382.142 560.647 381.426 560.532 380.672 560.252C376.828 558.833 374.058 553.457 374.058 553.457C374.058 553.457 373.964 519.451 371.947 510.529C371.552 508.814 371.363 507.099 371.231 505.367C370.854 499.908 370.176 489.931 369.969 485.758C369.573 477.644 369.497 470.85 369.818 467.815L389.077 468.03Z" fill="#2D2D2D"/>
<path d="M415.347 420.731C412.257 428.961 410.504 442.5 412.37 448.141C414.254 453.797 415.347 461.796 415.347 461.796C413.595 466.034 397.2 475.22 388.041 475.913C386.929 475.995 385.798 475.962 384.687 475.797C376.64 474.758 369.083 468.491 369.083 468.491C369.083 468.491 370.817 445.304 371.91 430.478C372.645 420.616 374.303 414.481 375.34 411.463C375.848 409.946 376.206 409.236 376.206 409.236C377.168 408.115 380.07 406.235 383.744 404.108C383.763 404.108 383.801 404.091 383.82 404.075C386.288 402.64 389.096 401.106 391.923 399.655H391.942C395.711 397.709 399.499 395.878 402.533 394.559C402.891 394.41 403.23 394.262 403.55 394.13C405.699 393.206 407.357 392.613 408.205 392.464C412.52 391.755 418.287 393.751 420.039 400.578C421.792 407.439 418.419 412.485 415.347 420.731Z" fill="#5624C1"/>
<path opacity="0.75" d="M383.707 448.058C383.16 454.391 384.253 470.173 384.668 475.83C376.621 474.791 369.064 468.524 369.064 468.524C369.064 468.524 370.798 445.337 371.891 430.511C372.626 420.649 374.284 414.514 375.321 411.496C376.188 410.622 376.753 410.061 376.753 410.061H387.363C387.363 410.061 392.884 411.051 390.887 422.051C388.87 433.051 384.366 440.29 383.707 448.058Z" fill="#205CE2"/>
<path d="M403.607 397.626C401.986 399.556 396.201 402.359 393.544 402.854C390.868 403.332 388.738 403.102 387.476 403.085C385.704 403.069 384.329 403.926 383.82 404.108C383.782 404.124 383.763 404.141 383.744 404.141C383.726 404.157 383.707 404.157 383.707 404.157L385.29 402.046L387.136 401.024C387.136 401.024 389.831 400.166 390.434 399.919C390.623 399.836 391.207 399.77 391.942 399.688H391.961C393.563 399.523 395.843 399.374 396.201 399.341C396.71 399.292 400.855 396.785 401.044 396.686C401.138 396.637 401.967 395.449 402.551 394.592C402.91 394.443 403.249 394.295 403.569 394.163C404.116 394.79 404.888 396.093 403.607 397.626Z" fill="#5624C1"/>
<path d="M409.524 380.095C408.619 384.812 404.059 392.233 401.741 392.91C400.346 393.338 399.027 393.503 397.934 393.553C396.125 393.635 394.505 392.514 394.184 390.947C393.902 389.628 393.43 387.962 392.62 386.676C390.999 384.07 388.889 382.701 387.833 383.179C386.759 383.658 386.872 385.34 386.872 385.34L386.175 385.323C386.175 385.323 386.119 384.779 386.006 384.07C385.93 383.361 385.836 382.454 385.798 381.761C385.798 379.997 385.176 378.265 383.951 376.88C383.216 376.022 382.331 374.703 381.37 372.707C380.748 371.388 380.597 370.118 380.729 368.98V368.964C381.162 365.335 382.858 363.851 384.46 362.812C389.68 359.464 400.591 365.682 404.624 368.65C406.829 370.266 408.374 372.146 409.147 374.274V374.29C409.806 376.055 409.938 377.968 409.524 380.095Z" fill="#713E23"/>
<path d="M402.853 393.932L401.854 393.124C395.334 399.424 386.722 399.655 386.722 399.655C386.722 399.655 384.366 401.733 383.688 404.157L385.064 403.382C385.78 402.97 386.59 402.689 387.438 402.574C387.985 402.508 389.172 402.442 389.172 402.442C394.561 402.376 399.932 399.078 402.721 397.049C403.852 396.241 403.908 394.79 402.853 393.932Z" fill="white"/>
<path d="M378.467 550.456C378.562 550.62 378.694 550.752 378.807 550.884C378.675 550.719 378.562 550.587 378.467 550.456Z" fill="#474747"/>
<path d="M378.977 551.098C378.901 551.032 378.864 550.95 378.807 550.884C378.901 550.999 379.014 551.131 379.165 551.263C379.09 551.214 379.052 551.164 378.977 551.098Z" fill="#474747"/>
<path d="M349.767 420.5C349.767 420.5 349.767 420.5 349.767 420.517C349.918 420.896 351.444 425.217 352.367 427.922C353.253 430.527 356.174 439.977 358.53 444.479C358.549 444.562 358.586 444.628 358.643 444.71C358.775 444.925 358.888 445.106 358.963 445.271C358.982 445.353 359.02 445.403 359.076 445.485C359.076 445.502 359.095 445.502 359.095 445.518C359.208 445.683 359.284 445.865 359.359 446.013C360.245 447.448 361.865 448.635 363.938 448.866H364.183C367.424 448.866 375.17 436.679 377.469 432.952C376.527 432.44 375.377 431.797 374.133 431.006C371.891 429.571 369.403 427.658 367.538 425.233C366.388 427.476 364.032 430.808 362.996 432.952C362.996 432.952 362.864 432.671 362.676 432.176C361.941 430.577 359.811 426.718 358.077 424.607C355.552 421.556 353.969 417.466 353.762 417.021C353.762 417.152 353.649 417.532 352.481 417.664C352.085 417.713 351.689 418.01 351.293 418.406C350.898 418.802 350.54 419.296 350.219 419.742C350.163 419.791 350.125 419.857 350.087 419.907C349.955 420.121 349.842 420.286 349.767 420.5Z" fill="#FFD1A4"/>
<path d="M349.767 420.5C349.767 420.5 349.767 420.5 349.767 420.517C349.918 420.896 351.444 425.217 352.367 427.921C353.253 430.527 356.174 439.977 358.53 444.479C358.549 444.562 358.586 444.628 358.643 444.71C358.775 444.925 358.888 445.106 358.963 445.271C358.982 445.353 359.02 445.403 359.076 445.485C359.076 445.502 359.095 445.502 359.095 445.518C359.208 445.683 359.284 445.865 359.359 446.013C360.245 447.448 361.865 448.635 363.938 448.866H364.183C367.424 448.866 375.17 436.679 377.469 432.951C376.527 432.44 375.377 431.797 374.133 431.005C371.853 434.7 365.201 445.287 362.713 445.271C361.526 445.271 359.057 438.427 357.248 434.337C355.439 430.247 351.312 418.406 351.312 418.406C350.916 418.802 350.558 419.296 350.238 419.742C350.181 419.791 350.144 419.857 350.106 419.907C349.955 420.121 349.842 420.286 349.767 420.5Z" fill="#F2BA88"/>
<path d="M365.955 425.745C368.763 429.406 373.87 432.49 376.583 433.974C377.413 434.436 378.072 434.749 378.487 434.931C379.052 434.155 387.476 422.562 388.361 418.521C388.474 418.241 388.531 417.977 388.569 417.746C389.68 412.386 387.796 410.473 387.551 410.226C387.494 410.176 387.438 410.11 387.4 410.061C383.594 406.07 377.45 405.938 373.87 411.826C372.211 414.547 368.857 419.989 365.955 425.745Z" fill="#5624C1"/>
<path d="M409.524 380.095C408.619 384.812 404.059 392.233 401.741 392.91C400.346 393.338 399.027 393.503 397.934 393.553C396.125 393.635 394.505 392.514 394.184 390.947C393.902 389.628 393.43 387.962 392.62 386.676C390.999 384.07 388.889 382.701 387.833 383.179C386.759 383.658 386.872 385.34 386.872 385.34L386.175 385.323C386.175 385.323 386.119 384.779 386.006 384.07C385.93 383.361 385.836 382.454 385.798 381.761C385.798 379.996 385.176 378.265 383.951 376.88C383.216 376.022 382.331 374.703 381.37 372.707C380.748 371.388 380.597 370.118 380.729 368.98C381.238 370.118 385.591 378.99 397.746 381.217C410.428 383.542 409.241 374.736 409.147 374.29C409.806 376.055 409.938 377.968 409.524 380.095Z" fill="#442312"/>
<path d="M375.943 463.692C376.979 465.358 380.635 467.733 384.951 467.205C385.723 467.106 386.534 466.974 387.344 466.809C387.438 466.793 387.514 466.776 387.589 466.776C396.635 464.945 408.544 459.421 411.654 455.529C415.649 450.532 411.71 423.436 405.567 413.095V413.079C403.946 410.374 400.856 409.467 399.047 409.715C399.047 409.715 387.024 413.673 383.217 417.763C379.392 421.836 372.721 458.497 375.943 463.692Z" fill="#FBC006"/>
<path d="M375.943 463.692C376.979 465.358 380.635 467.733 384.95 467.205C385.723 467.106 386.533 466.974 387.344 466.809C384.517 467.469 382.35 464.616 382.35 462.637C382.35 460.674 385.195 430.478 388.437 422.05C389.398 419.56 401.685 414.646 405.548 413.079C403.927 410.374 400.837 409.467 399.028 409.715C399.028 409.715 387.005 413.673 383.198 417.763C379.391 421.836 372.72 458.497 375.943 463.692Z" fill="#FFD04D"/>
<path d="M394.185 411.793C394.185 411.793 391.66 407.571 388.663 405.889C385.667 404.19 382.727 404.602 382.727 404.602L378.261 407.389C378.261 407.389 380.824 407.307 383.669 409.137C385.365 410.226 388.154 414.481 388.154 414.481L394.185 411.793Z" fill="#FFD04D"/>
<path d="M370.779 444.018C370.779 444.018 371.552 448.751 376.734 451.901L375.886 457.887C375.886 457.887 373.06 456.419 370.233 451.159L370.779 444.018Z" fill="#FFD04D"/>
</g>
<defs>
<linearGradient id="paint0_linear_0_1" x1="447.483" y1="301.885" x2="384.499" y2="301.885" gradientUnits="userSpaceOnUse">
<stop stop-color="#B4BBE1" stop-opacity="0.1"/>
<stop offset="1" stop-color="#B4BBE1" stop-opacity="0.3"/>
</linearGradient>
<linearGradient id="paint1_linear_0_1" x1="494.625" y1="342.839" x2="575.981" y2="396.512" gradientUnits="userSpaceOnUse">
<stop stop-color="#B4BBE1" stop-opacity="0.1"/>
<stop offset="1" stop-color="#B4BBE1" stop-opacity="0.3"/>
</linearGradient>
<linearGradient id="paint2_linear_0_1" x1="440.186" y1="351.382" x2="521.541" y2="405.054" gradientUnits="userSpaceOnUse">
<stop stop-color="#B4BBE1" stop-opacity="0.1"/>
<stop offset="1" stop-color="#B4BBE1" stop-opacity="0.3"/>
</linearGradient>
<linearGradient id="paint3_linear_0_1" x1="522.004" y1="445.363" x2="107.853" y2="445.363" gradientUnits="userSpaceOnUse">
<stop stop-color="#B4BBE1" stop-opacity="0.1"/>
<stop offset="1" stop-color="#B4BBE1" stop-opacity="0.3"/>
</linearGradient>
<linearGradient id="paint4_linear_0_1" x1="243.817" y1="397.527" x2="144.978" y2="397.527" gradientUnits="userSpaceOnUse">
<stop stop-color="#CED5EF"/>
<stop offset="0.3714" stop-color="#D5DDF1"/>
<stop offset="0.8656" stop-color="#DAE3F2"/>
</linearGradient>
<linearGradient id="paint5_linear_0_1" x1="259.877" y1="405.6" x2="161.074" y2="405.6" gradientUnits="userSpaceOnUse">
<stop stop-color="#CED5EF"/>
<stop offset="0.3714" stop-color="#D5DDF1"/>
<stop offset="0.8656" stop-color="#DAE3F2"/>
</linearGradient>
<linearGradient id="paint6_linear_0_1" x1="275.936" y1="413.665" x2="177.133" y2="413.665" gradientUnits="userSpaceOnUse">
<stop stop-color="#CED5EF"/>
<stop offset="0.3714" stop-color="#D5DDF1"/>
<stop offset="0.8656" stop-color="#DAE3F2"/>
</linearGradient>
<linearGradient id="paint7_linear_0_1" x1="291.819" y1="421.661" x2="193.034" y2="421.661" gradientUnits="userSpaceOnUse">
<stop stop-color="#CED5EF"/>
<stop offset="0.3714" stop-color="#D5DDF1"/>
<stop offset="0.8656" stop-color="#DAE3F2"/>
</linearGradient>
<linearGradient id="paint8_linear_0_1" x1="307.914" y1="429.75" x2="209.147" y2="429.75" gradientUnits="userSpaceOnUse">
<stop stop-color="#CED5EF"/>
<stop offset="0.3714" stop-color="#D5DDF1"/>
<stop offset="0.8656" stop-color="#DAE3F2"/>
</linearGradient>
<linearGradient id="paint9_linear_0_1" x1="324.931" y1="438.296" x2="226.164" y2="438.296" gradientUnits="userSpaceOnUse">
<stop stop-color="#CED5EF"/>
<stop offset="0.3714" stop-color="#D5DDF1"/>
<stop offset="0.8656" stop-color="#DAE3F2"/>
</linearGradient>
<linearGradient id="paint10_linear_0_1" x1="341.149" y1="446.462" x2="242.417" y2="446.462" gradientUnits="userSpaceOnUse">
<stop stop-color="#CED5EF"/>
<stop offset="0.3714" stop-color="#D5DDF1"/>
<stop offset="0.8656" stop-color="#DAE3F2"/>
</linearGradient>
<linearGradient id="paint11_linear_0_1" x1="357.369" y1="454.59" x2="258.602" y2="454.59" gradientUnits="userSpaceOnUse">
<stop stop-color="#CED5EF"/>
<stop offset="0.3714" stop-color="#D5DDF1"/>
<stop offset="0.8656" stop-color="#DAE3F2"/>
</linearGradient>
<linearGradient id="paint12_linear_0_1" x1="367.873" y1="352.964" x2="255.673" y2="352.964" gradientUnits="userSpaceOnUse">
<stop stop-color="#CED5EF"/>
<stop offset="0.3714" stop-color="#D5DDF1"/>
<stop offset="0.8656" stop-color="#DAE3F2"/>
</linearGradient>
<linearGradient id="paint13_linear_0_1" x1="383.789" y1="360.975" x2="271.643" y2="360.975" gradientUnits="userSpaceOnUse">
<stop stop-color="#CED5EF"/>
<stop offset="0.3714" stop-color="#D5DDF1"/>
<stop offset="0.8656" stop-color="#DAE3F2"/>
</linearGradient>
<linearGradient id="paint14_linear_0_1" x1="400.021" y1="369.116" x2="287.804" y2="369.116" gradientUnits="userSpaceOnUse">
<stop stop-color="#CED5EF"/>
<stop offset="0.3714" stop-color="#D5DDF1"/>
<stop offset="0.8656" stop-color="#DAE3F2"/>
</linearGradient>
<linearGradient id="paint15_linear_0_1" x1="416.037" y1="377.178" x2="303.873" y2="377.178" gradientUnits="userSpaceOnUse">
<stop stop-color="#CED5EF"/>
<stop offset="0.3714" stop-color="#D5DDF1"/>
<stop offset="0.8656" stop-color="#DAE3F2"/>
</linearGradient>
<linearGradient id="paint16_linear_0_1" x1="432.188" y1="385.288" x2="320.016" y2="385.288" gradientUnits="userSpaceOnUse">
<stop stop-color="#CED5EF"/>
<stop offset="0.3714" stop-color="#D5DDF1"/>
<stop offset="0.8656" stop-color="#DAE3F2"/>
</linearGradient>
<linearGradient id="paint17_linear_0_1" x1="448.203" y1="393.35" x2="336.049" y2="393.35" gradientUnits="userSpaceOnUse">
<stop stop-color="#CED5EF"/>
<stop offset="0.3714" stop-color="#D5DDF1"/>
<stop offset="0.8656" stop-color="#DAE3F2"/>
</linearGradient>
<linearGradient id="paint18_linear_0_1" x1="464.309" y1="401.436" x2="352.128" y2="401.436" gradientUnits="userSpaceOnUse">
<stop stop-color="#CED5EF"/>
<stop offset="0.3714" stop-color="#D5DDF1"/>
<stop offset="0.8656" stop-color="#DAE3F2"/>
</linearGradient>
<linearGradient id="paint19_linear_0_1" x1="480.442" y1="409.541" x2="368.287" y2="409.541" gradientUnits="userSpaceOnUse">
<stop stop-color="#CED5EF"/>
<stop offset="0.3714" stop-color="#D5DDF1"/>
<stop offset="0.8656" stop-color="#DAE3F2"/>
</linearGradient>
<linearGradient id="paint20_linear_0_1" x1="237.723" y1="521.496" x2="96.9667" y2="521.496" gradientUnits="userSpaceOnUse">
<stop stop-color="#B4BBE1" stop-opacity="0.1"/>
<stop offset="1" stop-color="#B4BBE1" stop-opacity="0.3"/>
</linearGradient>
<linearGradient id="paint21_linear_0_1" x1="269.823" y1="395.821" x2="199.445" y2="395.821" gradientUnits="userSpaceOnUse">
<stop stop-color="#B4BBE1" stop-opacity="0.1"/>
<stop offset="1" stop-color="#B4BBE1" stop-opacity="0.3"/>
</linearGradient>
<clipPath id="clip0_0_1">
<rect width="544" height="432" fill="white" transform="matrix(-1 0 0 1 590 135)"/>
</clipPath>
</defs>
</svg>
