<svg width="638" height="657" viewBox="0 0 638 657" fill="none" xmlns="http://www.w3.org/2000/svg">
<path d="M587 287.999C587 439.878 463.877 563 312 563C160.123 563 37 439.878 37 287.999C37 136.122 160.123 13 312 13C463.877 13 587 136.122 587 287.999Z" fill="url(#paint0_radial_0_1533)"/>
<path d="M463.7 497.295L447.303 465.462" stroke="#33286F" stroke-opacity="0.5" stroke-width="1.37903" stroke-miterlimit="10" stroke-linecap="round" stroke-linejoin="round"/>
<path d="M478.319 460.047L459.651 410.514" stroke="#33286F" stroke-opacity="0.5" stroke-width="1.37903" stroke-miterlimit="10" stroke-linecap="round" stroke-linejoin="round"/>
<path d="M460.52 505.401L490.917 495.893" stroke="#33286F" stroke-opacity="0.5" stroke-width="1.37903" stroke-miterlimit="10" stroke-linecap="round" stroke-linejoin="round"/>
<path d="M264 340.194C276.447 353.725 306.284 374.471 330.409 338.574L294.047 214.216C294.047 214.216 234.303 266.524 264 340.194Z" fill="#49317C"/>
<path d="M264 340.194C276.447 353.725 306.284 374.471 330.409 338.574L294.047 214.216C294.047 214.216 234.303 266.524 264 340.194Z" stroke="#33286F" stroke-width="2.79713" stroke-miterlimit="10" stroke-linecap="round" stroke-linejoin="round"/>
<path d="M343.694 278.132C343.694 278.132 354.533 311.242 378.134 326.801C378.134 326.801 350.163 397.953 328.485 427.323C328.485 427.323 311.178 390.261 312.576 358.269C312.576 358.269 322.891 344.896 322.454 338.952C322.017 333.008 315.112 316.137 311.702 310.806L343.694 278.132Z" fill="#FFBFC0"/>
<path d="M353.979 299.958C347.019 288.27 343.694 278.132 343.694 278.132L311.702 310.805C315.112 316.137 322.017 333.008 322.454 338.952C322.519 339.82 322.333 340.858 322.004 341.978C338.948 332.892 348.966 313.047 353.979 299.958Z" fill="#FFA8A9"/>
<path d="M343.694 278.132C343.694 278.132 354.533 311.242 378.134 326.801C378.134 326.801 350.163 397.953 328.485 427.323C328.485 427.323 311.178 390.261 312.576 358.269C312.576 358.269 322.891 344.896 322.454 338.952C322.017 333.008 315.112 316.137 311.702 310.806L343.694 278.132Z" stroke="#33286F" stroke-width="2.79713" stroke-miterlimit="10" stroke-linecap="round" stroke-linejoin="round"/>
<path d="M275.041 222.437C265.005 232.048 252.014 249.129 263.169 277.318C272.436 300.739 278.002 311.359 282.953 316.635C287.904 321.906 298.607 332.349 305.071 332.018C311.537 331.688 337.996 317.443 346.526 286.601C353.095 284.749 365.453 271.506 361.741 259.758C359.254 251.891 352.667 256.441 352.667 256.441C353.029 248.652 351.332 228.282 327.026 213.864C302.722 199.449 280.49 217.222 275.041 222.437Z" fill="#FFBFC0"/>
<path d="M314.537 226.803L308.092 208.361C291.946 208.142 279.019 218.63 275.041 222.437C265.005 232.048 252.014 249.129 263.169 277.318C267.466 288.177 264.954 283.936 267.967 290.035C271.21 246.503 298.617 231.932 314.537 226.803Z" fill="#FFA8A9"/>
<path d="M275.041 222.437C265.005 232.048 252.014 249.129 263.169 277.318C272.436 300.739 278.002 311.359 282.953 316.635C287.904 321.906 298.607 332.349 305.071 332.018C311.537 331.688 337.996 317.443 346.526 286.601C353.095 284.749 365.453 271.506 361.741 259.758C359.254 251.891 352.667 256.441 352.667 256.441C353.029 248.652 351.332 228.282 327.026 213.864C302.722 199.449 280.49 217.222 275.041 222.437Z" stroke="#33286F" stroke-width="2.79713" stroke-miterlimit="10" stroke-linecap="round" stroke-linejoin="round"/>
<path d="M286.735 301.688C286.775 303.586 289.842 305.787 292.595 304.471C295.35 303.158 296.076 299.947 295.093 299.487C294.107 299.025 286.701 300.133 286.735 301.688Z" fill="#FAB6CB"/>
<path d="M286.97 289.339C287.745 293.038 286.665 299.102 286.737 300.761C286.808 302.421 288.556 304.55 290.59 304.67" stroke="#F57373" stroke-width="2.79713" stroke-miterlimit="10" stroke-linecap="round" stroke-linejoin="round"/>
<path d="M296.589 313.619C301.64 313.594 307.97 310.127 310.811 305.548" stroke="#F57373" stroke-width="2.79713" stroke-miterlimit="10" stroke-linecap="round" stroke-linejoin="round"/>
<path d="M292.809 262.865C292.065 263.379 291.941 263.816 292.058 264.121C292.224 264.542 293.086 265.6 294.497 265.812C295.914 266.026 296.774 265.265 298.062 264.441C299.352 263.621 304.207 260.268 306.883 259.472C308.491 258.993 312.548 259.242 312.367 258.755C312.178 258.267 307.935 256.611 305.598 257.147C302.838 257.779 297.517 259.647 292.809 262.865Z" fill="#33286F"/>
<path d="M261.515 272.24C261.741 272.811 261.948 273.343 262.168 273.899C264.422 273.128 269.515 273.274 270.836 273.257C272.161 273.243 273.157 273.404 273.996 272.469C274.828 271.535 274.824 270.206 274.705 269.769C274.614 269.454 274.288 269.163 273.506 269.142C268.555 269.023 263.934 270.344 261.725 271.307C261.576 271.373 261.428 271.481 261.281 271.577C261.367 271.801 261.424 272.013 261.515 272.24Z" fill="#33286F"/>
<path d="M309.697 272.654C310.383 274.885 309.13 277.258 306.899 277.942C304.663 278.636 302.288 277.378 301.605 275.142C300.912 272.906 302.167 270.542 304.402 269.851C306.635 269.165 309.009 270.419 309.697 272.654Z" fill="#33286F"/>
<path d="M300.61 275.044C301.325 272.563 302.729 269.868 306.515 268.7C310.603 267.442 314.534 270.379 314.534 270.379" stroke="#33286F" stroke-width="2.79713" stroke-miterlimit="10" stroke-linecap="round" stroke-linejoin="round"/>
<path d="M275.888 283.862C276.576 286.094 275.323 288.465 273.092 289.149C270.857 289.842 268.483 288.586 267.796 286.349C267.106 284.117 268.358 281.747 270.594 281.058C272.831 280.373 275.201 281.626 275.888 283.862Z" fill="#33286F"/>
<path d="M266.914 286.013C267.629 283.531 268.542 280.992 272.328 279.826C276.416 278.569 280.347 281.506 280.347 281.506" stroke="#33286F" stroke-width="2.79713" stroke-miterlimit="10" stroke-linecap="round" stroke-linejoin="round"/>
<path d="M347.724 261.012C347.292 261.67 347.024 262.187 346.956 262.467C339.306 264.496 328.717 257.084 327.039 251.628C331.067 266.886 337.696 279.613 344.283 272.93C343.234 274.718 341.738 276.202 339.613 276.802C332.621 278.788 319.334 260.607 314.537 226.803C308.802 221.559 289.671 221.908 271.839 257.04C253.32 293.517 258.888 327.584 265.895 341.975C251.39 329.36 244.048 301.376 246.495 272.607C249.656 235.419 265.026 207.224 288.664 196.902C312.298 186.595 328.493 196.734 336.984 206.356C355.459 207.391 362.227 229.768 368.465 252.327C374.716 274.886 388.27 292.536 404.016 307.571C419.737 322.605 422.828 349.416 422.365 351.444C421.904 353.486 421.316 364.031 393.527 345.514C365.723 326.969 347.068 286.58 347.068 286.58C364.73 278.509 363.681 262.173 360.716 257.489C357.751 252.803 352.675 256.441 352.675 256.441C351.501 256.929 350.382 257.853 349.445 258.859H349.43C348.746 259.601 348.143 260.369 347.724 261.012Z" fill="url(#paint1_linear_0_1533)"/>
<path d="M327.038 251.628C331.066 266.886 337.695 279.613 344.282 272.93" stroke="#33286F" stroke-width="2.79713" stroke-miterlimit="10" stroke-linecap="round" stroke-linejoin="round"/>
<path d="M323.763 224.687C323.763 224.687 323.877 226.382 324.047 228.926C324.1 229.56 324.112 230.256 324.207 230.974C324.309 231.688 324.417 232.442 324.529 233.221C324.64 233.999 324.756 234.803 324.872 235.62C324.995 236.435 325.084 237.262 325.277 238.088C325.614 239.74 325.951 241.39 326.267 242.939C326.544 244.492 326.993 245.902 327.294 247.127C327.936 249.565 328.365 251.19 328.365 251.19L328.385 251.268C328.582 252.015 328.135 252.782 327.386 252.979C326.64 253.175 325.873 252.728 325.677 251.98C325.67 251.955 325.663 251.926 325.658 251.899C325.658 251.899 325.321 250.215 324.814 247.688C324.582 246.422 324.214 244.966 324.026 243.366C323.799 241.776 323.557 240.08 323.315 238.383C323.174 237.543 323.128 236.674 323.055 235.83C322.985 234.983 322.917 234.153 322.851 233.349C322.785 232.544 322.722 231.768 322.662 231.032C322.61 230.298 322.64 229.612 322.624 228.972C322.606 226.424 322.595 224.725 322.595 224.725C322.593 224.402 322.852 224.139 323.175 224.136C323.486 224.135 323.742 224.381 323.763 224.687Z" fill="#33286F"/>
<path d="M327.012 251.545C327.026 251.572 327.026 251.601 327.038 251.628C328.717 257.084 339.305 264.496 346.955 262.467" stroke="#33286F" stroke-width="2.79713" stroke-miterlimit="10" stroke-linecap="round" stroke-linejoin="round"/>
<path d="M332.005 236.402C332.005 236.402 332.411 238.193 333.299 240.818C333.743 242.127 334.31 243.637 335.005 245.209C335.71 246.775 336.497 248.434 337.458 249.972C337.896 250.771 338.44 251.492 338.936 252.225C339.43 252.962 340.03 253.587 340.545 254.245C341.106 254.857 341.694 255.394 342.223 255.933C342.81 256.387 343.367 256.817 343.88 257.212C344.436 257.526 344.943 257.812 345.394 258.066C345.827 258.356 346.279 258.424 346.612 258.566C347.297 258.811 347.687 258.951 347.687 258.951L347.918 259.032C348.645 259.292 349.023 260.092 348.763 260.818C348.504 261.545 347.705 261.924 346.978 261.664C346.956 261.656 346.928 261.644 346.905 261.636C346.905 261.636 346.431 261.436 345.598 261.085C345.196 260.888 344.652 260.745 344.152 260.376C343.633 260.038 343.036 259.672 342.416 259.242C341.855 258.748 341.247 258.212 340.605 257.647C340.047 257.011 339.43 256.365 338.857 255.654C338.339 254.906 337.734 254.178 337.257 253.359C336.774 252.545 336.25 251.738 335.843 250.874C334.938 249.192 334.234 247.427 333.611 245.769C332.999 244.106 332.52 242.529 332.152 241.167C331.42 238.448 331.12 236.578 331.12 236.578C331.078 236.332 331.243 236.098 331.489 236.056C331.725 236.016 331.951 236.172 332.005 236.402Z" fill="#33286F"/>
<path d="M340.431 241.688C340.431 241.688 340.733 242.821 341.322 244.501C341.903 246.175 342.796 248.371 343.901 250.419C344.166 250.938 344.466 251.432 344.764 251.914C345.045 252.411 345.383 252.846 345.681 253.288C345.979 253.733 346.328 254.096 346.624 254.477C346.93 254.845 347.264 255.131 347.544 255.429C347.829 255.721 348.135 255.906 348.379 256.116C348.621 256.333 348.86 256.453 349.053 256.556C349.429 256.775 349.646 256.898 349.646 256.898L349.837 257.008C350.509 257.391 350.741 258.247 350.355 258.917C349.972 259.588 349.116 259.819 348.446 259.435C348.417 259.419 348.386 259.398 348.356 259.38C348.356 259.38 348.067 259.184 347.559 258.84C347.305 258.668 346.994 258.463 346.708 258.17C346.417 257.882 346.042 257.59 345.729 257.211C345.418 256.83 345.047 256.439 344.73 255.987C344.428 255.528 344.064 255.067 343.776 254.551C343.485 254.036 343.155 253.519 342.898 252.963C342.621 252.415 342.345 251.857 342.11 251.287C340.124 246.75 339.278 241.947 339.278 241.947C339.22 241.625 339.432 241.318 339.752 241.259C340.057 241.203 340.351 241.396 340.431 241.688Z" fill="#33286F"/>
<path d="M265.895 341.975C251.39 329.36 244.048 301.376 246.495 272.607C249.656 235.419 265.026 207.224 288.664 196.902C312.298 186.595 328.493 196.734 336.984 206.356C355.459 207.391 362.227 229.768 368.465 252.327C374.716 274.886 388.27 292.536 404.016 307.571C419.737 322.605 422.828 349.416 422.365 351.444C421.904 353.486 421.316 364.031 393.527 345.514C365.723 326.969 347.068 286.58 347.068 286.58C364.73 278.509 363.681 262.173 360.716 257.489C357.751 252.803 352.675 256.441 352.675 256.441C351.501 256.929 350.382 257.853 349.445 258.859H349.43C348.746 259.601 348.143 260.369 347.724 261.012C347.292 261.67 347.024 262.187 346.956 262.467C346.801 263.124 346.689 268.83 344.297 272.914C344.297 272.914 344.283 272.914 344.283 272.93C343.234 274.718 341.738 276.202 339.613 276.802C332.621 278.788 319.334 260.607 314.537 226.803C308.802 221.559 289.671 221.908 271.839 257.04C253.32 293.517 258.888 327.584 265.895 341.975" stroke="#33286F" stroke-width="2.79713" stroke-miterlimit="10" stroke-linecap="round" stroke-linejoin="round"/>
<path d="M313.192 227.189C313.192 227.189 313.163 227.09 313.111 226.904C313.071 226.75 312.977 226.486 312.85 226.142C312.709 225.805 312.546 225.385 312.306 224.926C312.079 224.459 311.788 223.95 311.433 223.413C311.092 222.871 310.657 222.32 310.185 221.752C309.689 221.203 309.166 220.619 308.532 220.11C307.949 219.538 307.219 219.11 306.523 218.606C305.781 218.181 305.012 217.749 304.208 217.395C303.373 217.114 302.582 216.687 301.717 216.518C300.861 216.336 300.043 216.019 299.198 215.955C298.362 215.851 297.555 215.717 296.783 215.648C296.004 215.629 295.267 215.611 294.589 215.594C293.906 215.552 293.282 215.588 292.729 215.641C292.173 215.682 291.689 215.718 291.291 215.748C290.492 215.805 290.036 215.839 290.036 215.839L289.994 215.841C289.741 215.86 289.522 215.669 289.502 215.416C289.485 215.173 289.66 214.962 289.898 214.928C289.898 214.928 290.362 214.864 291.172 214.752C291.579 214.696 292.073 214.629 292.639 214.551C293.204 214.461 293.845 214.383 294.554 214.38C295.261 214.353 296.028 214.324 296.839 214.293C297.652 214.313 298.509 214.398 299.4 214.454C300.296 214.469 301.196 214.743 302.128 214.885C303.068 215.013 303.963 215.409 304.895 215.668C305.802 215.999 306.688 216.422 307.545 216.848C308.363 217.356 309.213 217.797 309.918 218.398C310.674 218.934 311.316 219.557 311.925 220.152C312.507 220.767 313.046 221.374 313.483 221.975C313.932 222.57 314.31 223.143 314.612 223.675C314.927 224.195 315.155 224.68 315.349 225.079C315.529 225.483 315.669 225.809 315.76 226.07C315.837 226.297 315.88 226.417 315.88 226.417C316.134 227.147 315.749 227.946 315.02 228.201C314.289 228.454 313.492 228.069 313.237 227.339C313.227 227.314 313.219 227.289 313.212 227.262L313.192 227.189Z" fill="#33286F"/>
<path d="M313.835 225.493C313.84 225.47 313.972 225.191 314.179 224.619C314.396 224.05 314.668 223.208 314.954 222.184C315.211 221.156 315.513 219.945 315.677 218.623C315.879 217.306 315.949 215.887 315.928 214.468C315.861 213.769 315.882 213.047 315.748 212.364C315.635 211.678 315.561 210.988 315.359 210.356C315.193 209.713 315.038 209.085 314.784 208.53C314.551 207.967 314.377 207.407 314.088 206.956C313.828 206.486 313.591 206.057 313.38 205.675C313.119 205.325 312.892 205.021 312.703 204.769C312.327 204.264 312.112 203.976 312.112 203.976L312.081 203.935C311.962 203.776 311.996 203.552 312.154 203.433C312.303 203.323 312.513 203.347 312.635 203.482C312.635 203.482 312.887 203.763 313.327 204.254C313.548 204.502 313.815 204.802 314.123 205.148C314.382 205.531 314.674 205.965 314.994 206.437C315.344 206.896 315.583 207.468 315.886 208.051C316.211 208.629 316.436 209.282 316.678 209.959C316.954 210.627 317.1 211.353 317.288 212.085C317.495 212.816 317.545 213.58 317.681 214.336C317.84 215.858 317.898 217.394 317.808 218.824C317.756 220.261 317.548 221.584 317.366 222.718C317.158 223.85 316.944 224.785 316.759 225.441C316.584 226.1 316.439 226.505 316.449 226.484C316.176 227.206 315.369 227.57 314.646 227.296C313.923 227.023 313.561 226.215 313.835 225.493Z" fill="#33286F"/>
<path d="M199.686 357.332L209.882 380.52V380.534C209.111 381.263 208.26 382.072 207.419 382.884C206.805 381.051 203.057 371.387 202.44 369.541C201.825 367.709 199.377 364.213 199.643 359.667C199.686 358.941 199.699 358.157 199.671 357.332H199.686Z" fill="#F46CBD"/>
<path d="M151.156 286.019C151.156 286.019 169.687 291.055 176.916 305.543L175.951 305.417C169.1 299.516 160.134 296.188 153.574 294.396L151.156 286.019Z" fill="#E3CBE9"/>
<path d="M239.335 286.536C205.727 290.844 178.316 305.011 177.436 305.473L176.917 305.543C176.917 305.543 201.28 285.111 235.895 278.132L239.335 286.524V286.536Z" fill="#E3CBE9"/>
<path d="M243.812 286.019L283.557 371.205C283.557 371.205 279.39 375.513 279.138 381.583L239.684 297.013L177.436 305.473C178.315 305.011 205.727 290.844 239.335 286.536C240.819 286.342 242.3 286.174 243.812 286.019Z" fill="white"/>
<path d="M153.575 294.396C160.134 296.188 169.1 299.516 175.952 305.417L133.479 299.892L144.75 292.536C144.75 292.536 148.428 292.985 153.575 294.396Z" fill="white"/>
<path d="M176.916 305.543L193.267 342.758C191.839 342.619 190.734 343.458 191.071 345.066C191.685 347.947 192.218 355.905 191.868 359.235C191.519 362.548 191.951 363.695 192.832 367.191C193.699 370.688 195.098 378.116 195.365 382.044C195.603 385.555 196.105 388.311 196.721 391.303L177.266 384.841L129.534 299.375L133.463 299.892H133.478L175.951 305.417L176.916 305.543Z" fill="#8D58FF"/>
<path d="M212.512 394.688C212.512 394.688 218.874 384.03 220.51 382.506C222.134 380.996 227.503 379.135 231.517 376.717C235.545 374.31 237.169 367.765 236.12 366.367C235.071 364.968 232.566 366.898 229.826 368.926C227.085 370.968 220.706 372.871 217.909 373.92C215.112 374.969 214.246 376.101 212.05 378.38C211.546 378.898 210.776 379.653 209.883 380.52L199.687 357.332H199.672C199.588 353.052 198.665 347.863 196.764 345.066C195.756 343.612 194.413 342.872 193.268 342.759L176.917 305.543L177.436 305.473L239.685 297.013L279.138 381.583L280.58 384.674L244.985 390.829L241.307 391.458L241.279 391.472L228.72 393.639C230.176 392.24 232.566 391.303 238.51 387.233C244.454 383.149 245.741 376.856 244.636 375.989C243.531 375.108 241.657 376.506 239.041 378.38C236.412 380.24 230.356 382.632 228.37 383.443C226.398 384.254 224.524 385.247 221.84 387.527C220.119 388.981 215.547 392.422 212.512 394.688Z" fill="#8D58FF"/>
<path d="M221.658 427.135C225.167 439.303 237.755 446.546 245.978 455.386C247.112 465.259 240.985 483.608 231.111 489.734C221.321 475.049 208.385 444.63 202.441 431.106C201.294 428.505 200.456 427.735 199.881 422.952C199.294 418.169 197.63 395.764 196.93 392.366C196.86 392.002 196.79 391.652 196.722 391.303C196.105 388.311 195.603 385.555 195.365 382.044C195.098 378.116 193.7 370.688 192.833 367.191C191.951 363.695 191.519 362.548 191.869 359.235C192.219 355.905 191.686 347.947 191.072 345.066C190.735 343.458 191.84 342.619 193.268 342.758C194.413 342.872 195.756 343.612 196.764 345.066C198.665 347.863 199.588 353.052 199.672 357.332C199.7 358.157 199.687 358.941 199.644 359.667C199.378 364.212 201.825 367.709 202.441 369.541C203.057 371.387 206.806 381.051 207.42 382.883C208.26 382.072 209.112 381.262 209.882 380.534V380.52C210.776 379.653 211.545 378.897 212.05 378.38C214.246 376.1 215.112 374.969 217.909 373.92C220.706 372.871 227.085 370.968 229.826 368.926C232.566 366.898 235.071 364.968 236.12 366.366C237.169 367.765 235.545 374.31 231.517 376.717C227.503 379.135 222.134 380.995 220.51 382.506C218.874 384.03 212.512 394.687 212.512 394.687C215.547 392.422 220.119 388.981 221.84 387.527C224.524 385.247 226.398 384.254 228.37 383.443C230.356 382.632 236.412 380.24 239.041 378.38C241.657 376.506 243.531 375.107 244.636 375.988C245.74 376.856 244.454 383.149 238.51 387.233C232.566 391.303 230.176 392.24 228.72 393.638C227.321 394.981 219.713 404.353 219.085 405.121C222.678 402.491 228.37 398.283 230.232 396.841C232.943 394.757 240.789 391.652 241.279 391.472L241.307 391.458L244.985 390.829C244.985 390.829 238.873 400.226 236.426 401.891C234.846 402.967 229.225 408.772 225.504 412.701C224.3 418.351 224.693 422.449 221.658 427.135Z" fill="#FFBFC0"/>
<path d="M252.858 463.343C256.886 488.237 246.845 505.735 244.397 505.65C239.852 504.503 230.845 494.629 230.679 493.874C230.495 493.104 231.111 489.734 231.111 489.734C240.985 483.608 247.112 465.259 245.978 455.386C245.978 455.386 248.986 458.084 252.858 463.343Z" fill="#BB9CFF"/>
<path d="M252.691 453.903C260.201 442.071 274.117 419.806 280.58 405.177C287.054 390.548 298.454 372.968 298.454 372.968L311.711 444.742C306.453 452.728 279.711 485.37 277.697 488.685C275.685 492 274.384 499.524 272.803 501.19C271.238 502.853 266.159 502.239 264.245 503.02C262.313 503.804 249.909 508.964 249.112 508.978C248.314 508.978 244.398 505.65 244.398 505.65C246.845 505.735 256.887 488.238 252.859 463.343C248.986 458.084 245.978 455.387 245.978 455.387C245.978 455.387 248.244 453.483 249.406 453.371C249.726 453.345 250.873 453.471 252.691 453.903Z" fill="#BB9CFF"/>
<path d="M209.882 380.52C210.776 379.653 211.545 378.898 212.05 378.38C214.245 376.101 215.111 374.969 217.908 373.92C220.705 372.871 227.084 370.968 229.825 368.926C232.565 366.898 235.07 364.968 236.119 366.367C237.168 367.765 235.544 374.31 231.516 376.717C227.502 379.135 222.133 380.996 220.51 382.506C218.873 384.03 212.511 394.688 212.511 394.688" stroke="#33286F" stroke-width="2.79713" stroke-miterlimit="10" stroke-linecap="round" stroke-linejoin="round"/>
<path d="M202.44 387.556C202.44 387.556 204.902 385.261 207.419 382.884C208.26 382.072 209.112 381.263 209.882 380.534" stroke="#33286F" stroke-width="2.79713" stroke-miterlimit="10" stroke-linecap="round" stroke-linejoin="round"/>
<path d="M219.07 405.148C219.056 405.164 219.043 405.177 219.043 405.177" stroke="#33286F" stroke-width="2.79713" stroke-miterlimit="10" stroke-linecap="round" stroke-linejoin="round"/>
<path d="M209.614 396.841C209.614 396.841 210.831 395.947 212.511 394.687C215.546 392.422 220.117 388.981 221.839 387.527C224.523 385.247 226.397 384.254 228.369 383.443C230.355 382.632 236.411 380.24 239.04 378.38C241.655 376.506 243.53 375.107 244.634 375.988C245.739 376.856 244.453 383.149 238.509 387.233C232.565 391.303 230.175 392.24 228.719 393.638C227.32 394.981 219.712 404.353 219.084 405.121" stroke="#33286F" stroke-width="2.79713" stroke-miterlimit="10" stroke-linecap="round" stroke-linejoin="round"/>
<path d="M216.021 407.386C216.021 407.386 217.281 406.463 219.069 405.149C219.069 405.135 219.085 405.121 219.085 405.121C222.678 402.491 228.37 398.283 230.231 396.841C232.943 394.757 240.789 391.652 241.279 391.472" stroke="#33286F" stroke-width="2.79713" stroke-miterlimit="10" stroke-linecap="round" stroke-linejoin="round"/>
<path d="M133.463 299.892L129.534 299.375L177.266 384.841L196.721 391.303" stroke="#33286F" stroke-width="2.79713" stroke-miterlimit="10" stroke-linecap="round" stroke-linejoin="round"/>
<path d="M228.72 393.638L241.279 391.472L241.307 391.458L244.985 390.829L280.58 384.674L279.138 381.583L239.684 297.013L177.435 305.473L176.917 305.543L175.952 305.417L133.479 299.892" stroke="#33286F" stroke-width="2.79713" stroke-miterlimit="10" stroke-linecap="round" stroke-linejoin="round"/>
<path d="M199.686 357.331L209.881 380.52V380.534" stroke="#33286F" stroke-width="2.79713" stroke-miterlimit="10" stroke-linecap="round" stroke-linejoin="round"/>
<path d="M193.268 342.759L176.917 305.543C176.917 305.543 201.28 285.111 235.895 278.132L239.335 286.524" stroke="#33286F" stroke-width="2.79713" stroke-miterlimit="10" stroke-linecap="round" stroke-linejoin="round"/>
<path d="M244.984 390.829C244.984 390.829 238.872 400.226 236.425 401.891C234.845 402.967 229.224 408.772 225.504 412.701C223.488 414.813 222.02 416.393 222.02 416.393" stroke="#33286F" stroke-width="2.79713" stroke-miterlimit="10" stroke-linecap="round" stroke-linejoin="round"/>
<path d="M225.504 412.701C224.3 418.351 224.693 422.449 221.658 427.135C220.747 428.547 219.504 430.029 217.824 431.611" stroke="#33286F" stroke-width="2.79713" stroke-miterlimit="10" stroke-linecap="round" stroke-linejoin="round"/>
<path d="M221.658 427.135C225.167 439.303 237.755 446.546 245.978 455.386C247.112 465.259 240.985 483.608 231.111 489.734C221.321 475.049 208.385 444.63 202.441 431.106C201.294 428.505 200.456 427.735 199.881 422.952C199.294 418.169 197.63 395.764 196.93 392.366C196.86 392.002 196.79 391.652 196.722 391.303C196.105 388.311 195.603 385.555 195.365 382.044C195.098 378.116 193.7 370.688 192.833 367.191C191.951 363.695 191.519 362.548 191.869 359.235C192.219 355.905 191.686 347.947 191.072 345.066C190.735 343.458 191.84 342.619 193.268 342.758C194.413 342.872 195.756 343.612 196.764 345.066C198.665 347.863 199.588 353.052 199.672 357.332C199.7 358.157 199.687 358.941 199.644 359.667C199.378 364.212 201.825 367.709 202.441 369.541C203.057 371.387 206.806 381.051 207.42 382.883" stroke="#33286F" stroke-width="2.79713" stroke-miterlimit="10" stroke-linecap="round" stroke-linejoin="round"/>
<path d="M267.937 498.237C264.858 482.168 258.077 470.421 252.859 463.343C248.986 458.084 245.978 455.387 245.978 455.387C245.978 455.387 248.243 453.483 249.406 453.371C249.726 453.345 250.873 453.471 252.691 453.903C257.586 455.051 267.391 458.336 279.362 466.308" stroke="#33286F" stroke-width="2.79713" stroke-miterlimit="10" stroke-linecap="round" stroke-linejoin="round"/>
<path d="M231.111 489.734C231.111 489.734 230.495 493.104 230.679 493.874C230.845 494.629 239.852 504.503 244.397 505.65C246.845 505.735 256.886 488.237 252.858 463.343" stroke="#33286F" stroke-width="2.79713" stroke-miterlimit="10" stroke-linecap="round" stroke-linejoin="round"/>
<path d="M244.398 505.65C244.398 505.65 248.314 508.978 249.112 508.978C249.909 508.964 262.313 503.804 264.245 503.02C266.159 502.239 271.238 502.853 272.803 501.19C274.384 499.524 275.685 492 277.697 488.685C279.711 485.37 306.453 452.728 311.711 444.742L298.454 372.968C298.454 372.968 287.054 390.548 280.58 405.177C274.117 419.806 260.201 442.071 252.691 453.903" stroke="#33286F" stroke-width="2.79713" stroke-miterlimit="10" stroke-linecap="round" stroke-linejoin="round"/>
<path d="M133.463 299.893H133.478L144.749 292.536C144.749 292.536 148.427 292.985 153.574 294.396C160.133 296.188 169.1 299.516 175.951 305.417C176.007 305.46 176.049 305.501 176.105 305.543" stroke="#33286F" stroke-width="2.79713" stroke-miterlimit="10" stroke-linecap="round" stroke-linejoin="round"/>
<path d="M177.406 305.487C177.406 305.487 177.422 305.487 177.436 305.473C178.315 305.011 205.727 290.844 239.335 286.536C240.819 286.342 242.3 286.174 243.812 286.019L283.558 371.205C283.558 371.205 279.39 375.513 279.138 381.583" stroke="#33286F" stroke-width="2.79713" stroke-miterlimit="10" stroke-linecap="round" stroke-linejoin="round"/>
<path d="M153.574 294.396L151.156 286.019C151.156 286.019 169.687 291.055 176.916 305.543" stroke="#33286F" stroke-width="2.79713" stroke-miterlimit="10" stroke-linecap="round" stroke-linejoin="round"/>
<path d="M205.092 493.867C236.589 497.893 258.499 505.12 278.778 511.413C299.057 517.707 335.653 527.497 335.653 527.497L359.485 538.852V592.341H234.31C234.31 592.341 201.332 540.654 205.092 493.867Z" fill="url(#paint2_linear_0_1533)"/>
<path d="M205.092 493.867C236.589 497.893 258.499 505.12 278.778 511.413C299.057 517.707 335.653 527.497 335.653 527.497L359.485 538.852V592.341H234.31C234.31 592.341 201.332 540.654 205.092 493.867Z" stroke="#33286F" stroke-width="2.79713" stroke-miterlimit="10" stroke-linecap="round" stroke-linejoin="round"/>
<path d="M315.841 379.014C315.841 379.014 332.843 383.909 358.497 375.517L328.486 444.746C328.486 444.746 316.471 406.786 315.841 379.014Z" fill="#EEEEEE"/>
<path d="M315.841 379.014C315.841 379.014 332.843 383.909 358.497 375.517L328.486 444.746C328.486 444.746 316.471 406.786 315.841 379.014Z" stroke="#33286F" stroke-width="2.79713" stroke-miterlimit="10" stroke-linecap="round" stroke-linejoin="round"/>
<path d="M319.85 347.063C319.85 347.063 314.326 382.744 328.487 427.323L358.206 477.846L362.423 538.677C362.423 538.677 343.696 541.306 328.487 526.446C331.983 507.216 330.06 482.741 328.487 478.895C326.913 475.049 310.48 462.462 305.76 451.448C301.04 440.434 298.767 402.673 297.893 390.61C297.019 378.548 297.019 375.051 300.515 367.884C304.012 360.716 319.85 347.063 319.85 347.063Z" fill="#BB9CFF"/>
<path d="M362.422 538.677L358.97 488.871L325.002 474.603C326.802 476.462 328.098 477.947 328.486 478.895C330.059 482.741 331.982 507.216 328.486 526.446C343.695 541.306 362.422 538.677 362.422 538.677Z" fill="#925FFF"/>
<path d="M319.85 347.063C319.85 347.063 314.326 382.744 328.487 427.323L358.206 477.846L362.423 538.677C362.423 538.677 343.696 541.306 328.487 526.446C331.983 507.216 330.06 482.741 328.487 478.895C326.913 475.049 310.48 462.462 305.76 451.448C301.04 440.434 298.767 402.673 297.893 390.61C297.019 378.548 297.019 375.051 300.515 367.884C304.012 360.716 319.85 347.063 319.85 347.063Z" stroke="#33286F" stroke-width="2.79713" stroke-miterlimit="10" stroke-linecap="round" stroke-linejoin="round"/>
<path d="M370.645 320.945C370.645 320.945 350.223 379.83 328.486 427.323C328.486 427.323 336.121 458.964 352.437 478.078C361.76 497.658 355.467 535.42 355.234 537.517C355 539.615 386.004 547.309 415.606 544.512C445.208 541.715 459.428 542.18 468.052 546.376C476.676 550.572 494.857 561.76 494.857 561.76C494.857 561.76 484.6 528.66 460.592 495.095C457.795 448.243 458.637 415.202 452.668 378.314C451.331 370.053 435.97 356.799 422.831 349.41C398.912 335.962 370.645 320.945 370.645 320.945Z" fill="#BB9CFF"/>
<path d="M370.645 320.945C370.645 320.945 362.494 344.448 351.012 373.728L369.394 391.659L376.882 324.276C372.987 322.188 370.645 320.945 370.645 320.945Z" fill="#925FFF"/>
<path d="M381.525 543.863C385.521 544.336 389.799 544.708 394.241 544.92C412.941 540.552 448.506 533.87 484.373 535.884C478.848 524.157 471.018 509.672 460.592 495.095C458.74 464.079 458.483 439.116 456.789 415.081L405.403 404.286L381.525 543.863Z" fill="#925FFF"/>
<path d="M370.645 320.945C370.645 320.945 350.223 379.83 328.486 427.323C328.486 427.323 336.121 458.964 352.437 478.078C361.76 497.658 355.467 535.42 355.234 537.517C355 539.615 386.004 547.309 415.606 544.512C445.208 541.715 459.428 542.18 468.052 546.376C476.676 550.572 494.857 561.76 494.857 561.76C494.857 561.76 484.6 528.66 460.592 495.095C457.795 448.243 458.637 415.202 452.668 378.314C451.331 370.053 435.97 356.799 422.831 349.41C398.912 335.962 370.645 320.945 370.645 320.945V320.945Z" stroke="#33286F" stroke-width="2.79713" stroke-miterlimit="10" stroke-linecap="round" stroke-linejoin="round"/>
<path d="M353.98 366.098L378.135 380.53L380.749 326.35L364.7 314.875L353.98 366.098Z" fill="#BB9CFF"/>
<path d="M353.98 366.098L378.135 380.53L380.749 326.35L364.7 314.875L353.98 366.098Z" stroke="#33286F" stroke-width="2.79713" stroke-miterlimit="10" stroke-linecap="round" stroke-linejoin="round"/>
<path d="M322.409 340.194L318.926 372.601L306.982 381.579L315.21 351.242L322.409 340.194Z" fill="#BB9CFF"/>
<path d="M322.409 340.194L318.926 372.601L306.982 381.579L315.21 351.242L322.409 340.194Z" stroke="#33286F" stroke-width="2.79713" stroke-miterlimit="10" stroke-linecap="round" stroke-linejoin="round"/>
<path d="M311.472 508.978H311.486C310.423 511.496 310.27 514.126 309.78 516.545C309.039 520.209 307.333 527.146 306.521 530.992C305.698 534.838 306.983 538.922 307.796 541.719C308.619 544.516 308.731 548.712 308.844 550.81C308.857 551.133 308.871 551.453 308.886 551.761C308.815 552.237 306.439 553.986 305.502 553.636C304.535 553.286 305.152 551.355 304.803 549.005C304.453 546.643 303.319 540.95 302.172 537.552C301.039 534.139 301.277 530.404 302.675 526.796C304.074 523.188 311.472 508.978 311.472 508.978Z" fill="#E3CBE9"/>
<path d="M425.176 464.434C425.176 464.434 424.38 462.462 423.595 461.063C422.798 459.665 424.632 456.001 424.463 454.602C424.295 453.203 417.639 440.784 409.247 421.554C400.856 402.324 407.68 382.576 414.323 362.115C422.365 361.234 442.408 363.751 450.77 373.597C459.147 383.457 464.322 414.673 467.818 427.33C471.315 439.973 487.861 489.273 488.685 495.916C489.496 502.559 478.421 508.615 476.379 510.824C474.337 513.048 472.477 517.705 470.015 518.754C467.552 519.803 459.54 517.356 457.329 517.356C455.119 517.356 444.448 518.782 442.058 518.754C439.679 518.728 436.896 515.957 436.896 515.957C436.896 515.957 438.98 495.721 428.686 478.979C422.099 474.211 417.554 471.72 417.554 471.72C417.554 471.72 421.583 463.511 423.148 463.693C423.372 463.722 424.086 463.972 425.176 464.434Z" fill="#BB9CFF"/>
<path d="M488.684 495.916C488.554 494.861 488.024 492.727 487.217 489.84C455.383 467.701 428.2 465.084 428.2 465.084C456.523 480.989 469.988 500.598 475.738 511.606C475.95 511.325 476.163 511.059 476.378 510.824C478.42 508.615 489.495 502.559 488.684 495.916Z" fill="#925FFF"/>
<path d="M428.831 479.225C438.957 495.919 436.897 515.957 436.897 515.957C436.897 515.957 439.68 518.728 442.059 518.754C444.449 518.782 455.12 517.356 457.33 517.356C458.804 517.356 462.857 518.442 466.125 518.856C454.843 500.278 437.649 485.877 428.831 479.225Z" fill="#925FFF"/>
<path d="M428.686 478.979C438.98 495.721 436.896 515.957 436.896 515.957C436.896 515.957 426.798 516.069 424.812 515.957C422.828 515.845 421.079 513.622 421.079 513.622C421.079 513.622 421.218 512.866 421.121 511.174C420.994 508.727 420.38 504.321 418.169 497.426C414.436 485.776 407.094 475.105 407.094 475.105C407.094 475.105 407.849 473.888 408.842 473.568C409.834 473.245 417.554 471.72 417.554 471.72C417.554 471.72 422.099 474.211 428.686 478.979Z" fill="#BB9CFF"/>
<path d="M314.957 550.909H314.943C314.857 552.516 311.529 554.655 310.13 554.767C308.943 554.867 308.943 553.468 308.887 551.76C308.872 551.453 308.858 551.132 308.845 550.809C308.732 548.711 308.62 544.516 307.796 541.719C306.984 538.921 305.698 534.838 306.522 530.992C307.333 527.146 309.039 520.209 309.781 516.544C310.27 514.126 310.424 511.496 311.487 508.978C312.018 507.677 312.803 506.419 313.99 505.23C317.487 501.734 332.689 489.202 336.004 485.888C339.32 482.573 341.948 481.874 347.892 480.993C353.836 480.112 407.094 475.105 407.094 475.105C407.094 475.105 414.437 485.776 418.17 497.426C420.381 504.321 420.995 508.726 421.122 511.174C406.605 510.993 382.045 502.782 351.152 503.831C349.64 508.265 346.731 513.859 341.711 517.006C336.703 520.153 328.046 522.518 326.845 525.118C325.64 527.719 322.985 532.124 322.102 534.656C321.236 537.203 320.354 540.782 320.034 544.545C319.71 548.306 317.642 550.739 315.992 551.103C315.501 551.202 315.181 551.117 314.957 550.909Z" fill="#FFBFC0"/>
<path d="M421.122 511.174C420.995 508.727 420.381 504.321 418.17 497.426C414.437 485.776 407.094 475.105 407.094 475.105C407.094 475.105 403.083 475.483 397.156 476.046C389.07 489.968 375.912 499.483 368.323 504.142C391.158 505.662 409.412 511.029 421.122 511.174Z" fill="#FFA8A9"/>
<path d="M464.056 492.881C451.708 477.678 431.667 467.231 425.176 464.434C424.086 463.972 423.372 463.722 423.148 463.693C421.583 463.511 417.554 471.72 417.554 471.72C417.554 471.72 422.099 474.211 428.686 478.979C438.099 485.776 451.693 497.244 461.988 512.698" stroke="#33286F" stroke-width="2.79713" stroke-miterlimit="10" stroke-linecap="round" stroke-linejoin="round"/>
<path d="M427.385 464.979C433.064 465.679 456.043 469.231 474.28 482.309" stroke="#33286F" stroke-width="2.79713" stroke-miterlimit="10" stroke-linecap="round" stroke-linejoin="round"/>
<path d="M426.071 464.827C426.071 464.827 426.533 464.867 427.372 464.979" stroke="#33286F" stroke-width="2.79713" stroke-miterlimit="10" stroke-linecap="round" stroke-linejoin="round"/>
<path d="M427.373 464.979C427.373 464.979 427.373 464.979 427.386 464.979C427.903 464.771 439.764 460.252 451.735 462.63" stroke="#33286F" stroke-width="2.79713" stroke-miterlimit="10" stroke-linecap="round" stroke-linejoin="round"/>
<path d="M417.554 471.72C417.554 471.72 409.834 473.245 408.842 473.568C407.849 473.888 407.094 475.105 407.094 475.105C407.094 475.105 414.436 485.776 418.169 497.426C420.38 504.321 420.994 508.727 421.121 511.174C421.218 512.866 421.079 513.622 421.079 513.622C421.079 513.622 422.828 515.845 424.812 515.957C426.798 516.069 436.896 515.957 436.896 515.957C436.896 515.957 438.98 495.721 428.686 478.979" stroke="#33286F" stroke-width="2.79713" stroke-miterlimit="10" stroke-linecap="round" stroke-linejoin="round"/>
<path d="M380.08 340.194C380.08 340.194 399.288 349.703 414.323 362.115C407.679 382.576 400.856 402.324 409.247 421.554C417.639 440.784 424.294 453.204 424.462 454.602C424.631 456.001 422.798 459.665 423.595 461.064C424.38 462.462 425.176 464.434 425.176 464.434" stroke="#33286F" stroke-width="2.79713" stroke-miterlimit="10" stroke-linecap="round" stroke-linejoin="round"/>
<path d="M436.896 515.957C436.896 515.957 439.679 518.728 442.058 518.754C444.448 518.782 455.119 517.356 457.329 517.356C459.54 517.356 467.552 519.803 470.015 518.754C472.477 517.705 474.337 513.048 476.379 510.824C478.421 508.615 489.496 502.559 488.685 495.916C487.861 489.273 471.314 439.973 467.818 427.33C464.322 414.673 459.147 383.457 450.769 373.597C449.565 372.179 445.623 366.424 444.005 365.299" stroke="#33286F" stroke-width="2.79713" stroke-miterlimit="10" stroke-linecap="round" stroke-linejoin="round"/>
<path d="M407.094 475.105C407.094 475.105 353.836 480.112 347.892 480.993C341.948 481.874 339.32 482.573 336.004 485.888C332.689 489.202 317.487 501.734 313.99 505.23C312.803 506.419 312.018 507.677 311.487 508.978C310.424 511.496 310.27 514.126 309.781 516.544C309.039 520.209 307.333 527.146 306.522 530.992C305.698 534.838 306.984 538.921 307.796 541.719C308.62 544.516 308.732 548.711 308.845 550.809C308.858 551.132 308.872 551.453 308.887 551.76C308.943 553.468 308.943 554.867 310.13 554.767C311.529 554.655 314.857 552.516 314.943 550.909" stroke="#33286F" stroke-width="2.79713" stroke-miterlimit="10" stroke-linecap="round" stroke-linejoin="round"/>
<path d="M320.033 516.013C320.033 516.013 316.187 527.495 315.263 529.943C314.325 532.39 314.563 534.25 314.788 536.936C315.025 539.621 314.663 546.026 314.577 547.859C314.521 549.161 314.425 550.418 314.956 550.895V550.909C315.18 551.117 315.5 551.202 315.991 551.103C317.641 550.74 319.71 548.306 320.033 544.545C320.353 540.782 321.236 537.203 322.102 534.656C322.984 532.125 325.64 527.719 326.844 525.118C328.045 522.518 336.703 520.153 341.711 517.006C346.73 513.859 349.639 508.265 351.151 503.832C382.044 502.783 406.604 510.994 421.122 511.174" stroke="#33286F" stroke-width="2.79713" stroke-miterlimit="10" stroke-linecap="round" stroke-linejoin="round"/>
<path d="M311.472 508.978C311.472 508.978 304.074 523.188 302.675 526.796C301.277 530.404 301.039 534.139 302.172 537.552C303.319 540.95 304.453 546.643 304.803 549.005C305.152 551.355 304.535 553.286 305.502 553.636C306.439 553.986 308.815 552.237 308.886 551.761C308.886 551.747 308.886 551.747 308.886 551.733" stroke="#33286F" stroke-width="2.79713" stroke-miterlimit="10" stroke-linecap="round" stroke-linejoin="round"/>
<path d="M365.387 598.962C365.067 605.228 366.729 610.038 369.051 613.551C368.715 613.257 365.792 610.724 361.261 611.06C356.464 611.409 341.752 611.97 333.767 609.467C346.338 605.927 356.675 602.486 365.387 598.962Z" fill="#925FFF"/>
<path d="M184.483 614.64C187.868 610.836 189.111 605.509 189.503 599.41C189.784 595.02 189.029 590.319 187.742 586.041C191.364 595.088 191.838 596.724 201.978 597.186C212.118 597.661 227.825 596.626 234.607 595.999C239.977 595.508 244.496 592.249 247.111 589.913C248.174 590.292 249.153 590.892 250.047 591.704C253.405 594.738 255.473 600.67 255.473 608.025C255.473 612.584 254.019 615.982 251.683 618.29C249.391 620.544 246.229 621.731 242.704 621.872C242.369 621.523 239.251 618.346 234.874 617.437C230.23 616.459 201.308 612.026 195.966 611.409C190.636 610.794 187.237 612.64 184.496 614.64H184.483Z" fill="#925FFF"/>
<path d="M374.69 619.213C374.69 619.213 374.115 621.227 369.052 621.227C363.975 621.227 343.081 621.227 337.921 621.227C332.774 621.227 325.796 619.116 321.864 615.355C322.843 614.053 323.067 612.346 323.067 612.346C326.801 611.383 330.368 610.417 333.767 609.467C341.753 611.97 356.465 611.409 361.262 611.06C365.793 610.724 368.716 613.257 369.052 613.551C369.066 613.563 369.081 613.577 369.081 613.577C370.774 616.11 372.8 617.97 374.69 619.213Z" fill="#BB9CFF"/>
<path d="M247.111 589.913C244.495 592.249 239.977 595.508 234.606 595.999C227.824 596.627 212.117 597.661 201.978 597.186C191.838 596.724 191.364 595.088 187.742 586.041C185.838 579.747 182.803 574.335 180.258 572.124C187.88 570.208 195.252 569.957 198.593 570.166C217.907 580.558 237.291 585.691 249.516 587.48V587.495C249.516 587.495 248.635 588.544 247.111 589.913Z" fill="#BB9CFF"/>
<path d="M184.265 571.258C193.343 578.059 211.758 590.239 233.814 596.07C234.082 596.045 234.364 596.021 234.607 595.998C239.978 595.508 244.497 592.249 247.112 589.913C248.637 588.544 249.518 587.495 249.518 587.495V587.48C237.293 585.691 217.909 580.558 198.594 570.166C195.845 569.994 190.367 570.136 184.265 571.258Z" fill="#925FFF"/>
<path d="M242.704 621.872C242.454 621.898 242.201 621.898 241.949 621.898C234.495 621.898 196.034 621.898 180.3 621.898C177.421 621.898 174.664 621.381 172.12 620.432C177.938 619.647 181.867 617.605 184.483 614.64H184.496C187.237 612.64 190.636 610.794 195.966 611.409C201.308 612.026 230.231 616.459 234.874 617.437C239.251 618.346 242.369 621.523 242.704 621.872Z" fill="#BB9CFF"/>
<path d="M397.54 581.536C417.569 592.655 421.553 614.514 406.868 621.227C403.597 621.227 401.736 621.227 401.736 621.227C408.379 611.829 401.036 594.473 387.135 588.027C390.211 586.081 393.009 584.069 395.624 581.971C396.267 581.845 396.897 581.69 397.54 581.536Z" fill="white"/>
<path d="M387.135 588.027C401.037 594.473 408.379 611.829 401.736 621.227C401.736 621.227 383.093 621.227 379.708 621.227C378.647 621.227 376.757 620.584 374.689 619.213C372.799 617.97 370.773 616.11 369.081 613.577C369.081 613.577 369.065 613.563 369.051 613.551C366.73 610.039 365.067 605.228 365.387 598.962C374.058 595.452 381.107 591.857 387.135 588.027Z" fill="white"/>
<path d="M397.54 581.536C396.897 581.69 396.267 581.845 395.624 581.971C393.009 584.069 390.212 586.081 387.135 588.027C381.107 591.857 374.058 595.452 365.387 598.962C365.067 605.228 366.73 610.038 369.051 613.551C369.065 613.563 369.081 613.577 369.081 613.577C369.405 614.065 369.752 614.504 370.1 614.943C380.91 611.188 397.897 604.254 411.376 594.078C408.327 589.383 403.695 584.951 397.54 581.536Z" fill="#E3CBE9"/>
<path d="M198.595 570.166C195.254 569.957 187.882 570.208 180.26 572.124C170.849 574.487 161.071 579.368 158.036 589.032C153.772 602.656 160.108 614.99 170.568 619.788C147.897 614.893 144.4 593.69 153.379 580.417C160.54 569.816 178.903 565.145 189.56 564.894C192.553 566.781 195.574 568.543 198.595 570.166Z" fill="white"/>
<path d="M157.763 575.675C160.227 576.603 162.915 577.602 165.695 578.613C169.893 575.459 175.126 573.413 180.259 572.124C187.881 570.208 195.253 569.957 198.594 570.166C195.573 568.543 192.552 566.781 189.559 564.894C180.656 565.104 166.398 568.413 157.763 575.675Z" fill="#E3CBE9"/>
<path d="M187.742 586.041C189.029 590.319 189.784 595.02 189.503 599.41C189.111 605.509 187.868 610.836 184.484 614.64C181.867 617.605 177.938 619.647 172.12 620.432C171.589 620.234 171.071 620.025 170.566 619.788C160.107 614.99 153.771 602.656 158.035 589.032C161.07 579.368 170.848 574.487 180.259 572.124C182.804 574.335 185.839 579.747 187.742 586.041Z" fill="white"/>
<path d="M280.061 605.116C282.984 610.612 285.825 614.206 288.187 616.571C273.362 618.346 262.229 618.164 251.684 618.29C254.02 615.982 255.474 612.584 255.474 608.025C255.474 600.67 253.406 594.738 250.048 591.704L250.076 591.662C253.112 590.962 256.609 589.676 260.034 588.207C268.075 584.795 275.712 580.417 275.712 580.417C275.054 585.048 275.53 596.613 280.061 605.116Z" fill="#FFBFC0"/>
<path d="M297.892 595.088C304.535 611.997 323.066 612.346 323.066 612.346C323.066 612.346 322.843 614.053 321.864 615.355C321.458 615.913 320.9 616.404 320.157 616.654C317.71 617.465 305.584 620.388 302.551 620.85C299.529 621.311 295.558 621.549 293.235 620.388C292.13 619.829 290.355 618.71 288.186 616.571C285.824 614.206 282.983 610.612 280.06 605.116C275.529 596.613 275.054 585.048 275.711 580.417C275.865 579.342 276.09 578.627 276.328 578.431C277.613 577.382 289.739 569.215 291.362 568.166C292.997 567.117 296.032 568.166 296.032 568.166C296.032 568.166 290.775 576.977 297.892 595.088Z" fill="#656EBE"/>
<path d="M219.783 507.915C220.79 508.321 221.81 508.714 222.832 509.076C234.495 513.272 248.033 518.754 260.033 533.901C272.018 549.061 281.697 559.9 291.362 568.166C289.738 569.215 277.613 577.382 276.327 578.431C276.09 578.627 275.864 579.342 275.711 580.417C275.711 580.417 268.074 584.795 260.033 588.207C257.852 588.389 254.215 588.179 249.517 587.48C237.292 585.691 217.908 580.558 198.594 570.166C195.573 568.543 192.552 566.781 189.559 564.894C188.497 564.222 187.419 563.522 186.356 562.809C156.107 542.53 156.637 532.558 156.469 529.244C156.287 525.929 159.671 504.657 168.762 498.363C177.853 492.07 195.91 493.23 202.44 493.58C208.971 493.93 209.77 495.945 212.343 499.062C214.565 501.734 216.383 505.356 219.783 507.915Z" fill="url(#paint3_linear_0_1533)"/>
<path d="M484.574 555.579C484.574 555.579 489.259 566.823 484.574 584.487C479.875 602.151 462.223 621.227 440.378 621.227C425.792 621.227 413.455 621.227 406.868 621.227C421.553 614.514 417.569 592.655 397.54 581.536C396.896 581.69 396.267 581.845 395.624 581.971C393.008 584.069 390.211 586.081 387.134 588.027C381.107 591.857 374.058 595.452 365.387 598.962C356.675 602.487 346.338 605.927 333.766 609.467C330.366 610.417 326.8 611.383 323.066 612.346C323.066 612.346 304.535 611.997 297.892 595.088C290.774 576.977 296.032 568.166 296.032 568.166C310.129 560.012 345.975 530.125 363.275 518.055C380.576 505.985 391.246 496.559 405.414 496.727C417.204 496.867 444.897 512.784 468.895 546.796C474.251 549.747 484.574 555.579 484.574 555.579Z" fill="url(#paint4_linear_0_1533)"/>
<path d="M406.869 621.227C413.456 621.227 425.793 621.227 440.379 621.227C462.224 621.227 479.875 602.151 484.575 584.487C489.26 566.823 484.575 555.579 484.575 555.579C484.575 555.579 481.442 553.809 477.734 551.727C478.473 555.855 475.432 556.665 475.432 556.665C477.8 561.359 473.676 567.093 466.595 568.166C459.515 569.24 446.578 563.771 438.362 561.061C430.145 558.352 428.692 561.432 428.692 561.432C425.694 564.25 422.19 563.917 422.19 563.917C420.908 564.325 418.519 563.917 417.236 562.693C415.954 561.469 413.452 560.916 412.824 562.046C412.196 563.177 411.785 563.827 410.174 566.387C408.561 568.946 398.531 566.83 395.624 566.422C392.718 566.013 392.237 569.161 391.131 571.375C390.024 573.589 383.205 584.837 367.996 591.662C352.788 598.485 313.993 610.445 313.984 610.447C313.986 610.447 313.986 610.447 313.986 610.447C313.998 610.45 317.786 611.226 321.628 612.237C322.534 612.334 323.067 612.346 323.067 612.346C326.801 611.383 330.367 610.417 333.767 609.467C346.339 605.927 356.676 602.487 365.387 598.962C374.058 595.452 381.107 591.857 387.135 588.027C390.212 586.081 393.009 584.069 395.624 581.971C396.268 581.845 396.897 581.69 397.54 581.536C417.569 592.655 421.554 614.514 406.869 621.227Z" fill="url(#paint5_linear_0_1533)"/>
<path d="M296.032 568.166C296.032 568.166 292.997 567.117 291.362 568.166C289.739 569.215 277.613 577.382 276.328 578.431C276.09 578.627 275.865 579.342 275.711 580.417C275.054 585.048 275.529 596.613 280.06 605.116C282.983 610.612 285.824 614.206 288.186 616.571C290.355 618.71 292.13 619.829 293.235 620.388C295.558 621.549 299.529 621.311 302.551 620.85C305.584 620.388 317.71 617.465 320.157 616.654C320.9 616.404 321.458 615.913 321.864 615.355C322.843 614.053 323.066 612.346 323.066 612.346C323.066 612.346 304.535 611.997 297.892 595.088C290.775 576.977 296.032 568.166 296.032 568.166V568.166Z" stroke="#33286F" stroke-width="2.79713" stroke-miterlimit="10" stroke-linecap="round" stroke-linejoin="round"/>
<path d="M471.193 547.643C471.193 547.643 471.983 548.963 473.169 550.944C473.761 551.934 474.453 553.089 475.195 554.328C475.565 554.946 475.947 555.586 476.336 556.236C476.719 556.892 477.137 557.534 477.499 558.218C480.355 563.713 483.21 569.206 483.21 569.206C483.345 569.465 483.245 569.785 482.985 569.92C482.737 570.048 482.435 569.963 482.291 569.729L482.273 569.7C482.273 569.7 479.076 564.482 475.88 559.262C475.474 558.616 475.007 557.997 474.582 557.373C474.148 556.752 473.72 556.141 473.308 555.549C472.481 554.367 471.711 553.263 471.049 552.317C469.728 550.425 468.846 549.163 468.846 549.163C468.402 548.53 468.557 547.657 469.191 547.215C469.823 546.772 470.695 546.926 471.139 547.559C471.157 547.586 471.176 547.615 471.193 547.643Z" fill="#33286F"/>
<path d="M296.032 568.166C310.13 560.012 345.975 530.125 363.275 518.055C380.577 505.985 391.247 496.559 405.414 496.727C417.204 496.867 444.897 512.784 468.895 546.796C469.271 547.327 469.646 547.863 470.02 548.404" stroke="#33286F" stroke-width="2.79713" stroke-miterlimit="10" stroke-linecap="round" stroke-linejoin="round"/>
<path d="M400.071 576.261C400.071 576.261 400.194 576.145 400.423 575.926C400.525 575.828 400.653 575.707 400.801 575.564C400.962 575.399 401.145 575.21 401.351 574.998C401.762 574.573 402.261 574.056 402.834 573.465C403.441 572.884 403.963 572.181 404.612 571.447C405.251 570.715 405.942 569.914 406.611 568.987C407.293 568.079 408.034 567.138 408.708 566.092C409.413 565.069 410.148 564.015 410.811 562.886C411.153 562.328 411.497 561.766 411.844 561.202L412.809 559.458C413.472 558.304 414.061 557.106 414.668 555.941C415.271 554.774 415.794 553.591 416.333 552.46C416.822 551.307 417.332 550.205 417.759 549.138C418.203 548.075 418.609 547.066 418.957 546.124C419.663 544.242 420.226 542.661 420.584 541.544C420.952 540.428 421.125 539.793 421.125 539.793C421.205 539.496 421.51 539.323 421.806 539.404C422.084 539.481 422.255 539.758 422.206 540.036C422.206 540.036 422.086 540.72 421.819 541.882C421.549 543.046 421.164 544.71 420.559 546.664C420.27 547.647 419.931 548.702 419.553 549.812C419.202 550.934 418.728 552.078 418.287 553.282C417.794 554.464 417.317 555.7 416.759 556.927C416.199 558.153 415.65 559.411 414.996 560.618L414.055 562.446C413.715 563.039 413.378 563.63 413.041 564.218C412.392 565.405 411.665 566.524 410.964 567.609C410.289 568.71 409.522 569.701 408.823 570.661C408.146 571.629 407.416 572.503 406.734 573.307C406.058 574.107 405.437 574.875 404.853 575.435C404.276 576.023 403.773 576.536 403.36 576.958C403.153 577.17 402.969 577.358 402.808 577.522C402.625 577.697 402.469 577.844 402.344 577.964C402.111 578.182 401.988 578.297 401.988 578.297C401.425 578.824 400.539 578.796 400.012 578.233C399.485 577.67 399.513 576.789 400.071 576.261Z" fill="#33286F"/>
<path d="M323.066 612.346C326.801 611.383 330.367 610.417 333.767 609.467C346.339 605.927 356.675 602.487 365.387 598.962C374.058 595.452 381.107 591.857 387.135 588.027C390.212 586.081 393.009 584.069 395.624 581.971C397.507 580.456 399.302 578.89 401.031 577.279" stroke="#33286F" stroke-width="2.79713" stroke-miterlimit="10" stroke-linecap="round" stroke-linejoin="round"/>
<path d="M395.327 580.603C395.327 580.603 395.573 580.539 396.033 580.417C396.264 580.357 396.548 580.281 396.882 580.195C396.965 580.172 397.053 580.15 397.141 580.126L397.209 580.108L397.226 580.104C397.25 580.098 397.054 580.147 397.141 580.125L397.149 580.122L397.184 580.111L397.321 580.066C397.511 580.007 397.711 579.944 397.924 579.877C398.763 579.607 399.816 579.305 400.966 578.908C402.064 578.452 403.307 578.012 404.658 577.43C405.994 576.792 407.485 576.2 408.955 575.343C409.694 574.931 410.475 574.543 411.236 574.082C411.992 573.613 412.767 573.135 413.556 572.648C414.363 572.192 415.104 571.608 415.894 571.073C416.672 570.525 417.479 569.992 418.223 569.363C418.982 568.755 419.746 568.141 420.515 567.524L422.707 565.531C423.455 564.883 424.123 564.155 424.827 563.462C425.523 562.766 426.228 562.078 426.848 561.325C427.484 560.587 428.118 559.855 428.741 559.132C429.318 558.37 429.886 557.615 430.446 556.875C431.034 556.152 431.488 555.358 431.99 554.618C432.471 553.865 433.018 553.167 433.415 552.414C434.242 550.924 435.098 549.544 435.673 548.166C435.989 547.488 436.291 546.838 436.579 546.221C436.846 545.596 437.059 544.984 437.281 544.418C437.72 543.281 438.115 542.288 438.317 541.435C438.813 539.747 439.095 538.782 439.095 538.782L439.106 538.744C439.169 538.529 439.397 538.404 439.613 538.467C439.813 538.526 439.933 538.724 439.902 538.923C439.902 538.923 439.74 539.938 439.457 541.715C439.343 542.615 439.053 543.668 438.729 544.885C438.562 545.492 438.41 546.148 438.204 546.826C437.958 547.488 437.699 548.186 437.431 548.913C436.938 550.394 436.171 551.892 435.424 553.516C435.067 554.338 434.562 555.103 434.12 555.93C433.65 556.741 433.193 557.587 432.618 558.374C432.069 559.18 431.509 559.997 430.941 560.823C430.322 561.613 429.695 562.411 429.063 563.215C428.446 564.036 427.744 564.791 427.045 565.557C426.335 566.31 425.684 567.132 424.9 567.817L422.626 569.953C421.827 570.613 421.031 571.272 420.242 571.926C419.468 572.599 418.628 573.175 417.816 573.767C416.994 574.343 416.217 574.97 415.374 575.466C414.545 575.981 413.729 576.49 412.929 576.985C412.118 577.462 411.286 577.862 410.497 578.286C408.932 579.163 407.342 579.775 405.92 580.424C404.474 581.041 403.057 581.463 401.848 581.895C400.643 582.252 399.608 582.498 398.746 582.736C398.531 582.792 398.33 582.846 398.138 582.898L397.997 582.933L397.765 582.986C397.672 583.003 397.586 583.02 397.5 583.037C397.162 583.101 396.874 583.156 396.639 583.2C396.172 583.29 395.923 583.337 395.923 583.337C395.163 583.483 394.432 582.984 394.286 582.224C394.149 581.5 394.597 580.799 395.3 580.612L395.327 580.603Z" fill="#33286F"/>
<path d="M397.527 581.536H397.54C417.569 592.655 421.553 614.514 406.868 621.227" stroke="#33286F" stroke-width="2.79713" stroke-miterlimit="10" stroke-linecap="round" stroke-linejoin="round"/>
<path d="M387.135 588.027C401.036 594.473 408.379 611.829 401.736 621.227C401.736 621.227 403.597 621.227 406.868 621.227C413.456 621.227 425.792 621.227 440.378 621.227C462.224 621.227 479.875 602.151 484.574 584.487C489.259 566.823 484.574 555.579 484.574 555.579C484.574 555.579 474.251 549.747 468.895 546.796" stroke="#33286F" stroke-width="2.79713" stroke-miterlimit="10" stroke-linecap="round" stroke-linejoin="round"/>
<path d="M369.051 613.551C366.73 610.038 365.067 605.228 365.387 598.962" stroke="#33286F" stroke-width="2.79713" stroke-miterlimit="10" stroke-linecap="round" stroke-linejoin="round"/>
<path d="M401.736 621.227C401.736 621.227 383.093 621.227 379.709 621.227C378.647 621.227 376.758 620.584 374.689 619.213C372.8 617.97 370.773 616.11 369.081 613.577" stroke="#33286F" stroke-width="2.79713" stroke-miterlimit="10" stroke-linecap="round" stroke-linejoin="round"/>
<path d="M374.69 619.213C374.69 619.213 374.115 621.227 369.052 621.227C363.975 621.227 343.081 621.227 337.921 621.227C332.774 621.227 325.796 619.116 321.864 615.355" stroke="#33286F" stroke-width="2.79713" stroke-miterlimit="10" stroke-linecap="round" stroke-linejoin="round"/>
<path d="M369.08 613.577C369.08 613.577 369.065 613.564 369.051 613.551C368.715 613.257 365.792 610.724 361.261 611.06C356.464 611.409 341.752 611.97 333.767 609.467" stroke="#33286F" stroke-width="2.79713" stroke-miterlimit="10" stroke-linecap="round" stroke-linejoin="round"/>
<path d="M275.711 580.417C275.711 580.417 268.075 584.795 260.033 588.207C256.608 589.676 253.112 590.962 250.075 591.662" stroke="#33286F" stroke-width="2.79713" stroke-miterlimit="10" stroke-linecap="round" stroke-linejoin="round"/>
<path d="M260.033 588.207C257.852 588.389 254.215 588.179 249.517 587.48C237.292 585.691 217.908 580.558 198.594 570.166C195.573 568.543 192.552 566.781 189.559 564.894C188.497 564.222 187.419 563.522 186.356 562.809C156.107 542.53 156.637 532.558 156.469 529.244C156.287 525.929 159.671 504.657 168.762 498.363C177.853 492.07 195.91 493.23 202.44 493.58C208.971 493.93 209.77 495.945 212.343 499.062C214.565 501.734 216.383 505.356 219.783 507.915" stroke="#33286F" stroke-width="2.79713" stroke-miterlimit="10" stroke-linecap="round" stroke-linejoin="round"/>
<path d="M200.579 498.237C200.579 498.237 209.39 503.763 219.783 507.915C220.79 508.321 221.809 508.714 222.832 509.076C234.494 513.272 248.033 518.754 260.032 533.901C272.018 549.061 281.696 559.9 291.362 568.166" stroke="#33286F" stroke-width="2.79713" stroke-miterlimit="10" stroke-linecap="round" stroke-linejoin="round"/>
<path d="M198.594 570.165C195.253 569.957 187.881 570.207 180.259 572.123C170.848 574.487 161.07 579.368 158.035 589.032C153.771 602.656 160.107 614.99 170.566 619.788C171.071 620.025 171.589 620.234 172.12 620.432C174.664 621.381 177.379 621.231 180.259 621.231C195.992 621.231 233.415 621.227 240.87 621.227C241.121 621.227 242.481 621.258 242.733 621.231C246.257 621.09 249.391 620.544 251.683 618.29C254.019 615.982 255.473 612.584 255.473 608.025C255.473 600.67 253.405 594.738 250.047 591.703C249.153 590.892 248.174 590.292 247.111 589.913" stroke="#33286F" stroke-width="2.79713" stroke-miterlimit="10" stroke-linecap="round" stroke-linejoin="round"/>
<path d="M251.685 618.29C262.23 618.164 273.362 618.346 288.187 616.571" stroke="#33286F" stroke-width="2.79713" stroke-miterlimit="10" stroke-linecap="round" stroke-linejoin="round"/>
<path d="M172.12 620.432C177.938 619.647 181.867 617.605 184.483 614.64C187.868 610.836 189.111 605.509 189.503 599.41C189.784 595.02 189.029 590.319 187.742 586.041C185.839 579.747 182.804 574.335 180.258 572.124" stroke="#33286F" stroke-width="2.79713" stroke-miterlimit="10" stroke-linecap="round" stroke-linejoin="round"/>
<path d="M187.742 586.041C191.365 595.088 191.839 596.724 201.978 597.186C212.118 597.661 227.825 596.627 234.607 595.999C239.977 595.508 244.496 592.249 247.112 589.913C248.636 588.544 249.517 587.495 249.517 587.495" stroke="#33286F" stroke-width="2.79713" stroke-miterlimit="10" stroke-linecap="round" stroke-linejoin="round"/>
<path d="M184.497 614.64C187.238 612.64 190.637 610.794 195.967 611.409C201.309 612.026 230.232 616.46 234.875 617.438C239.252 618.347 241.641 620.894 241.977 621.243" stroke="#33286F" stroke-width="2.79713" stroke-miterlimit="10" stroke-linecap="round" stroke-linejoin="round"/>
<path d="M189.56 564.894C178.903 565.145 160.54 569.816 153.379 580.417C144.4 593.69 147.897 614.893 170.568 619.788" stroke="#33286F" stroke-width="2.79713" stroke-miterlimit="10" stroke-linecap="round" stroke-linejoin="round"/>
<path d="M313.984 610.447C313.984 610.447 352.786 598.487 367.996 591.662C383.205 584.837 390.024 573.589 391.131 571.375C392.237 569.162 392.718 566.013 395.624 566.422C398.531 566.83 408.561 568.946 410.174 566.387C411.785 563.827 412.196 563.177 412.824 562.046C413.452 560.916 415.954 561.469 417.236 562.693C418.519 563.917 420.908 564.325 422.19 563.917" stroke="#33286F" stroke-width="1.39857" stroke-miterlimit="10" stroke-linecap="round" stroke-linejoin="round"/>
<path d="M428.692 561.432C428.692 561.432 430.146 558.352 438.362 561.061C446.579 563.771 459.515 569.24 466.595 568.166C473.676 567.093 477.8 561.359 475.433 556.665C475.433 556.665 478.473 555.856 477.735 551.727" stroke="#33286F" stroke-width="1.39857" stroke-miterlimit="10" stroke-linecap="round" stroke-linejoin="round"/>
<path d="M200.529 614.953C200.266 616.834 198.529 618.146 196.648 617.883C194.767 617.62 193.456 615.884 193.718 614.002L196.66 592.957C196.923 591.077 198.66 589.767 200.543 590.028C202.422 590.292 203.733 592.029 203.471 593.911L200.529 614.953Z" fill="white"/>
<path d="M200.529 614.953C200.266 616.834 198.529 618.146 196.648 617.883C194.767 617.62 193.456 615.884 193.718 614.002L196.66 592.957C196.923 591.077 198.66 589.767 200.543 590.028C202.422 590.292 203.733 592.029 203.471 593.911L200.529 614.953Z" stroke="#33286F" stroke-width="2.79713" stroke-miterlimit="10" stroke-linecap="round" stroke-linejoin="round"/>
<path d="M218.156 616.444C218.043 618.339 216.415 619.785 214.518 619.673C212.623 619.559 211.178 617.931 211.29 616.036L212.555 594.824C212.668 592.929 214.296 591.484 216.192 591.596C218.087 591.709 219.532 593.337 219.42 595.234L218.156 616.444Z" fill="white"/>
<path d="M218.156 616.444C218.043 618.339 216.415 619.785 214.518 619.673C212.623 619.559 211.178 617.931 211.29 616.036L212.555 594.824C212.668 592.929 214.296 591.484 216.192 591.596C218.087 591.709 219.532 593.337 219.42 595.234L218.156 616.444Z" stroke="#33286F" stroke-width="2.79713" stroke-miterlimit="10" stroke-linecap="round" stroke-linejoin="round"/>
<path d="M233.97 616.324C233.934 618.222 232.365 619.732 230.467 619.695C228.567 619.658 227.058 618.089 227.093 616.19L227.509 594.944C227.547 593.046 229.116 591.537 231.015 591.575C232.913 591.611 234.422 593.18 234.386 595.08L233.97 616.324Z" fill="white"/>
<path d="M233.97 616.324C233.934 618.222 232.365 619.732 230.467 619.695C228.567 619.658 227.058 618.089 227.093 616.19L227.509 594.944C227.547 593.046 229.116 591.537 231.015 591.575C232.913 591.611 234.422 593.18 234.386 595.08L233.97 616.324Z" stroke="#33286F" stroke-width="2.79713" stroke-miterlimit="10" stroke-linecap="round" stroke-linejoin="round"/>
<path d="M34 621.357H599.289" stroke="#33286F" stroke-width="2.79713" stroke-miterlimit="10" stroke-linejoin="round"/>
<defs>
<radialGradient id="paint0_radial_0_1533" cx="0" cy="0" r="1" gradientUnits="userSpaceOnUse" gradientTransform="translate(312 288) rotate(-90) scale(275)">
<stop stop-color="#C6A0FF"/>
<stop offset="1" stop-color="#EEE2FF" stop-opacity="0"/>
</radialGradient>
<linearGradient id="paint1_linear_0_1533" x1="319.189" y1="202.93" x2="409.396" y2="340.864" gradientUnits="userSpaceOnUse">
<stop stop-color="#1D0056"/>
<stop offset="1" stop-color="#942760"/>
</linearGradient>
<linearGradient id="paint2_linear_0_1533" x1="341.66" y1="620.127" x2="290.851" y2="520.909" gradientUnits="userSpaceOnUse">
<stop stop-color="#8170ED"/>
<stop offset="1" stop-color="#5737DD"/>
</linearGradient>
<linearGradient id="paint3_linear_0_1533" x1="275.818" y1="615.076" x2="223.999" y2="523.609" gradientUnits="userSpaceOnUse">
<stop stop-color="#8170ED"/>
<stop offset="1" stop-color="#5737DD"/>
</linearGradient>
<linearGradient id="paint4_linear_0_1533" x1="464.475" y1="656.357" x2="399.643" y2="531.75" gradientUnits="userSpaceOnUse">
<stop stop-color="#8170ED"/>
<stop offset="1" stop-color="#5737DD"/>
</linearGradient>
<linearGradient id="paint5_linear_0_1533" x1="466.76" y1="640.838" x2="440.857" y2="560.836" gradientUnits="userSpaceOnUse">
<stop stop-color="#8170ED"/>
<stop offset="1" stop-color="#5737DD"/>
</linearGradient>
</defs>
</svg>
