<svg width="24" height="24" viewBox="0 0 24 24" fill="none" xmlns="http://www.w3.org/2000/svg">
<path d="M0.5 17.7083C0.5 18.7139 0.899478 19.6784 1.61055 20.3894C2.32163 21.1005 3.28605 21.5 4.29167 21.5H10.0258L10.4412 19.8398C10.6302 19.0838 11.021 18.3932 11.5728 17.8425L18.4585 10.9557C18.8537 10.5599 19.3308 10.2555 19.8563 10.064C20.3818 9.87256 20.9428 9.79858 21.5 9.84733V4.29167C21.5 3.28605 21.1005 2.32163 20.3894 1.61055C19.6784 0.899478 18.7139 0.5 17.7083 0.5H9.83333V6.04167C9.83333 6.5396 9.73526 7.03265 9.54471 7.49267C9.35416 7.9527 9.07487 8.37069 8.72278 8.72278C8.37069 9.07487 7.9527 9.35416 7.49267 9.54471C7.03265 9.73526 6.5396 9.83333 6.04167 9.83333H0.5V17.7083ZM8.08333 1.01333L1.01333 8.08333H6.04167C6.58315 8.08333 7.10246 7.86823 7.48534 7.48534C7.86823 7.10246 8.08333 6.58315 8.08333 6.04167V1.01333ZM19.2833 11.7817L12.3965 18.6673C11.9959 19.0692 11.7113 19.5719 11.5728 20.1222L11.0385 22.2583C10.9854 22.4709 10.9882 22.6936 11.0467 22.9047C11.1052 23.1158 11.2174 23.3082 11.3724 23.463C11.5274 23.6179 11.7198 23.7299 11.931 23.7883C12.1422 23.8466 12.3648 23.8493 12.5773 23.796L14.7123 23.2628C15.2632 23.1242 15.7662 22.8392 16.1683 22.438L23.054 15.5523C23.5348 15.0484 23.7994 14.3764 23.7912 13.68C23.783 12.9835 23.5027 12.3179 23.0102 11.8254C22.5177 11.333 21.8521 11.0527 21.1557 11.0445C20.4593 11.0363 19.7873 11.3009 19.2833 11.7817Z" fill="#BD9EFF"/>
</svg>
