
<svg width="14" height="14" viewBox="0 0 14 14" fill="none" xmlns="http://www.w3.org/2000/svg">
<path fill-rule="evenodd" clip-rule="evenodd" d="M6.78575 0.654813C3.26131 0.654813 0.404363 3.51176 0.404363 7.0362C0.403189 7.97649 0.61045 8.90535 1.01123 9.75595L0.417764 12.6512C0.396634 12.7546 0.401467 12.8616 0.431829 12.9626C0.462192 13.0637 0.517136 13.1556 0.591744 13.2302C0.666352 13.3048 0.758295 13.3598 0.859344 13.3901C0.960393 13.4205 1.06739 13.4253 1.17077 13.4042L4.066 12.8107C4.89175 13.2 5.8145 13.417 6.78575 13.417C10.3102 13.417 13.1671 10.5606 13.1671 7.03556C13.1671 3.51176 10.3102 0.654175 6.78575 0.654175" fill="#9D6FFF"/>
</svg>
