
<svg width="11" height="15" viewBox="0 0 11 15" fill="none" xmlns="http://www.w3.org/2000/svg">
<path d="M9.54172 10.3685L10.0127 7.6428C10.0403 7.48305 10.0327 7.31918 9.99044 7.16266C9.94814 7.00615 9.87215 6.86076 9.7678 6.73668C9.66344 6.6126 9.53323 6.51282 9.38629 6.44431C9.23934 6.3758 9.0792 6.34022 8.91707 6.34007H5.45513C5.37441 6.33999 5.29467 6.32235 5.22145 6.28837C5.14823 6.2544 5.08327 6.2049 5.03109 6.14331C4.97891 6.08172 4.94075 6.00952 4.91926 5.93171C4.89777 5.8539 4.89347 5.77235 4.90665 5.69271L5.34958 2.99036C5.42112 2.55158 5.40065 2.10271 5.28945 1.67226C5.24138 1.49448 5.14928 1.33169 5.02166 1.19892C4.89403 1.06616 4.73499 0.967705 4.55925 0.912664L4.46238 0.881264C4.24353 0.811361 4.00626 0.82761 3.79899 0.926693C3.57184 1.03626 3.40616 1.23601 3.3447 1.47317L3.0267 2.69842C2.92563 3.08837 2.77851 3.46492 2.58844 3.82011C2.31053 4.3392 1.88162 4.7554 1.43602 5.13954L0.474 5.96795C0.340633 6.0832 0.23647 6.22841 0.170047 6.39168C0.103624 6.55495 0.0768314 6.73164 0.0918641 6.90726L0.635005 13.1824C0.658905 13.4598 0.785912 13.7182 0.990967 13.9066C1.19602 14.0949 1.46423 14.1996 1.74267 14.1999H4.84852C7.17408 14.1999 9.15891 12.5792 9.54105 10.3685" fill="#9D6EFF"/>
</svg>
