
<svg width="23" height="24" viewBox="0 0 23 24" fill="none" xmlns="http://www.w3.org/2000/svg">
<path d="M11.5 14.875C13.0878 14.875 14.375 13.5878 14.375 12C14.375 10.4122 13.0878 9.125 11.5 9.125C9.91218 9.125 8.625 10.4122 8.625 12C8.625 13.5878 9.91218 14.875 11.5 14.875Z" fill="white"/>
<path d="M22.2378 11.7556C21.3925 9.56893 19.9249 7.67788 18.0165 6.31619C16.108 4.95449 13.8424 4.18185 11.4997 4.09375C9.15694 4.18185 6.89135 4.95449 4.98293 6.31619C3.07452 7.67788 1.60693 9.56893 0.761569 11.7556C0.704477 11.9135 0.704477 12.0865 0.761569 12.2444C1.60693 14.4311 3.07452 16.3221 4.98293 17.6838C6.89135 19.0455 9.15694 19.8182 11.4997 19.9062C13.8424 19.8182 16.108 19.0455 18.0165 17.6838C19.9249 16.3221 21.3925 14.4311 22.2378 12.2444C22.2949 12.0865 22.2949 11.9135 22.2378 11.7556ZM11.4997 16.6719C10.5757 16.6719 9.67243 16.3979 8.90414 15.8845C8.13585 15.3712 7.53705 14.6415 7.18345 13.7878C6.82984 12.9342 6.73732 11.9948 6.91759 11.0886C7.09785 10.1823 7.54281 9.34986 8.19618 8.69649C8.84955 8.04311 9.682 7.59816 10.5883 7.41789C11.4945 7.23763 12.4339 7.33015 13.2875 7.68375C14.1412 8.03735 14.8709 8.63616 15.3842 9.40445C15.8976 10.1727 16.1716 11.076 16.1716 12C16.1697 13.2385 15.6768 14.4257 14.8011 15.3014C13.9254 16.1771 12.7382 16.67 11.4997 16.6719Z" fill="white"/>
</svg>
