<svg width="56" height="37" viewBox="0 0 56 37" fill="none" xmlns="http://www.w3.org/2000/svg">
<rect x="0.793975" y="0.620799" width="54.7243" height="35.2136" rx="4.28274" stroke="#5624C1" stroke-width="0.95172"/>
<path d="M13.9595 11.0105H21.1767M19.1146 8.94841V11.0105C19.1146 15.5656 16.8061 19.2587 13.9595 19.2587" stroke="#5629C5" stroke-width="1.90344" stroke-linecap="round" stroke-linejoin="round"/>
<path d="M14.9897 15.1347C14.9897 17.3452 18.0333 19.1639 21.8976 19.2588M22.207 26.476L26.3311 17.1967L30.4552 26.476M29.5273 24.414H23.1349" stroke="#5629C5" stroke-width="1.90344" stroke-linecap="round" stroke-linejoin="round"/>
<path d="M38.1957 15.5882H45.7165C46.3927 15.5882 46.7308 16.4067 46.2537 16.8838L42.4933 20.6442C42.1962 20.9413 41.7159 20.9413 41.422 20.6442L37.6585 16.8838C37.1813 16.4067 37.5194 15.5882 38.1957 15.5882Z" fill="#5525C2"/>
</svg>
